<?xml version="1.0" standalone="no"?>
<!DOCTYPE svg PUBLIC "-//W3C//DTD SVG 1.1//EN" "http://www.w3.org/Graphics/SVG/1.1/DTD/svg11.dtd" >
<svg>
<metadata>
Created by FontForge 20120731 at Thu Jun 23 19:17:54 2016
 By www
Copyright (c) 2015 by MA^ns Grebck. All rights reserved.
</metadata>
<defs>
<font id="UnthriftFirstPersonal" horiz-adv-x="202" >
  <font-face 
    font-family="Unthrift First Personal"
    font-weight="400"
    font-stretch="normal"
    units-per-em="1000"
    panose-1="0 0 0 0 0 0 0 0 0 0"
    ascent="750"
    descent="-250"
    x-height="413.5"
    cap-height="859"
    bbox="-555.5 -381.083 1411.54 1002.29"
    underline-thickness="50"
    underline-position="-50"
    unicode-range="U+000D-FB06"
  />
<missing-glyph horiz-adv-x="190" 
 />
    <glyph glyph-name="l_l" unicode="ll" horiz-adv-x="397" 
d="M64 321q-19 -17 -40 -34q-8 -18 -11 -34l-2.5 -12.5t-1.5 -15.5t2.5 -14.5t9.5 -8.5q14 -4 29 -1t29 9.5t27 15t24 15.5q12 8 24 16.5t24 16.5q6 19 14 37.5t16 35.5q15 32 32 62.5t35 61.5q19 28 38.5 55.5t40.5 53.5q20 25 42 49.5t50 40.5q11 6 23 7.5t22 -1.5
t16 -11.5t6 -23.5q-1 -15 -6.5 -30.5t-13.5 -30t-17.5 -28t-18.5 -25.5q-41 -57 -87.5 -108t-96.5 -100q-15 -14 -29.5 -27.5t-30.5 -26.5l-2 -9q-1 -3 -3.5 -12t-4.5 -19t-1.5 -18t5.5 -9q4 -2 10.5 -0.5t12.5 4.5t11.5 7t9.5 6q14 9 27.5 18.5t27.5 20.5q22 17 43.5 35
t41.5 37q2 1 5.5 4.5t7.5 7t8 6t7 1.5q4 -2 3 -6t-3.5 -9t-5.5 -9t-4 -5q-15 -24 -34.5 -44.5t-40.5 -39.5q-22 -20 -47.5 -38t-54.5 -28q-12 -4 -24.5 -4t-23.5 8q-13 10 -15.5 25t-1.5 29v2q-23 -19 -49 -35.5t-55 -24.5q-24 -7 -48 -2.5t-37 28.5q-7 13 -8 28.5t2 30.5
t8 30t10 28q25 62 62 117t77 107q20 26 42.5 50.5t48.5 43.5q7 6 16.5 11.5t19.5 7.5t19.5 0t16.5 -12q8 -11 6.5 -24.5t-7.5 -24.5q-8 -15 -17 -29.5t-18 -28.5q-20 -28 -42 -53.5t-45 -49.5q-25 -27 -51 -52.5t-54 -50.5zM310 455q-20 -32 -38 -63.5t-33 -65.5
q51 45 94.5 94t82.5 104q11 15 21 30.5t19 32.5q3 4 7 11.5t7.5 15t5.5 15.5t0 14q-7 -2 -13.5 -6t-11.5 -9q-15 -11 -28 -25t-25 -28q-25 -29 -46.5 -58.5t-41.5 -61.5zM104 432q-34 -49 -60 -100q28 24 54 50t50 53q42 45 76 94q8 12 16 24.5t15 25.5q1 2 3 7t4.5 10
t3.5 9.5t-1 6.5q-8 0 -19.5 -10.5t-16.5 -15.5q-13 -11 -24 -24l-22 -26q-21 -25 -40.5 -51t-38.5 -53zM477 643q0 -1 0.5 -1t0.5 1h-1z" />
    <glyph glyph-name="b_b" unicode="bb" horiz-adv-x="400" 
d="M49 332q-4 -3 -7.5 -5.5t-7.5 -4.5q-11 -23 -19 -47t-9 -47q-1 -19 9.5 -19.5t24 7.5t26 19t17.5 16q11 11 21 23.5t18 25.5q8 11 17.5 26t5.5 29q-2 9 -3.5 17.5t9.5 13.5q11 7 27.5 7.5t29.5 3.5q5 1 10 1.5t10 2.5q20 37 42.5 72t48.5 68q17 21 34.5 41t38.5 37
q6 5 17.5 11.5t22.5 8.5t19 -2t9 -20q1 -23 -13.5 -46.5t-26.5 -41.5q-15 -23 -31.5 -43.5t-36.5 -40.5q-19 -17 -41 -32t-46 -26q-1 -1 -3 -1q-8 -17 -15.5 -35t-14.5 -35q-8 -20 -15.5 -40.5t-9.5 -42.5q-1 -5 -0.5 -15t8.5 -12q9 -3 18.5 4t14.5 12q17 15 29.5 34
t20.5 40q0 1 0.5 1.5t0.5 1.5q-9 10 -13 22.5t-3 26.5q0 11 4.5 25.5t18.5 16.5q11 1 17 -8.5t9 -17.5q10 -26 7 -49q13 -5 30 0q15 5 27 13q4 2 11.5 10t12.5 8q6 0 4.5 -6t-5.5 -13.5t-9.5 -14t-6.5 -7.5q-15 -15 -35 -22.5t-40 -1.5q-12 -26 -30 -47t-40 -36
q-11 -8 -24 -14t-27 -1q-15 5 -20.5 18.5t-7.5 27.5q-3 31 4.5 61.5t19.5 59.5l9 20q-9 -2 -19.5 -2.5t-20.5 -2.5q6 -12 4.5 -26t-6 -28t-12 -27t-13.5 -22q-17 -26 -41.5 -48.5t-53.5 -33.5q-28 -11 -52 -1t-26 43q-1 32 11 64t24 60q27 62 62 120t77 111q21 26 43 50.5
t47 47.5q6 5 14.5 13t18.5 14t20.5 8t18.5 -5q10 -9 6.5 -23t-6.5 -24q-7 -17 -15 -32.5t-17 -31.5q-17 -31 -36 -60t-40 -57q-22 -27 -46 -53t-50 -49q-25 -23 -55 -43zM121 477q-19 -30 -36.5 -59.5t-33.5 -61.5q35 29 65.5 63t56.5 71q17 23 33.5 47.5t31.5 50.5l27 53
l11 23q0 2 1 3l-3 -3l-24 -22q-12 -13 -23.5 -26t-22.5 -27q-22 -27 -42.5 -55t-40.5 -57zM317 481q-9 -14 -17.5 -28t-16.5 -28q20 11 39 29q19 16 35 35t30 40q8 11 15 22.5t12 22.5q1 3 5 12t6 17q-5 -3 -9 -7.5t-7 -6.5q-18 -14 -35 -32q-16 -17 -30 -36.5t-27 -39.5z
M295 367q-3 -2 4 -5l-3 3zM283 688q-2 -2 0 -4v4zM432 606q1 -1 4 0h-4zM295 367l1 -2v1z" />
    <glyph glyph-name="d_d" unicode="dd" horiz-adv-x="599" 
d="M400 365q-23 -9 -42.5 -24t-36.5 -33q-20 -23 -35 -50q-3 -7 -6 -13.5t-5 -14.5t-2 -13v-3h1q2 -2 10 0.5t17 6.5t17 8t10 6q16 9 31.5 20t30.5 22l19 15q3 18 8.5 35.5t12.5 34.5q13 30 29.5 59t35.5 56q18 27 39 53t45 49q9 8 20.5 19.5t25 20.5t28 13.5t28.5 -1.5
q15 -6 18.5 -17.5t0.5 -25t-10 -27t-12 -22.5q-17 -29 -37.5 -55t-42.5 -51q-35 -41 -73 -79.5t-79 -73.5q0 -5 -0.5 -12t0 -14.5t3 -13.5t8.5 -8q7 -2 15 0.5t16 7t15 10t13 9.5q23 18 44.5 38.5t46.5 39.5q1 1 5 3t7.5 3t5.5 0t-1 -7q-12 -24 -29 -44q-8 -10 -22.5 -24.5
t-31.5 -29t-36 -26t-36.5 -15.5t-32 3.5t-23.5 30.5q-2 5 -3 9t-2 9l-8 -6q-12 -10 -26.5 -21t-30.5 -21t-33 -16.5t-34 -6.5q-28 1 -35 21t-3 43l-35 -28q-10 -8 -23.5 -17.5t-28.5 -15.5t-30 -6t-27 11q-13 11 -16 29l-21 -13q-10 -6 -23 -11.5t-26 -7t-24.5 3t-19.5 18.5
q-7 12 -7.5 26.5t3.5 29t11 27.5t15 24q36 53 91 78q11 5 23 8.5t24 1.5q7 -2 15 -8q4 8 8.5 14.5t9.5 13.5q37 59 81 107q8 9 19 20.5t23 21t26 15t28 2.5q19 -4 22.5 -16.5t-0.5 -27.5t-12.5 -29.5t-14.5 -23.5q-17 -29 -37.5 -55.5t-42.5 -52.5q-30 -36 -63 -71.5
t-70 -66.5q-1 -5 -1.5 -9.5t0.5 -9.5q1 -13 13 -11t26.5 9.5t27.5 17t17 12.5q19 14 36 30t35 31q21 29 49 49q12 8 26 15.5t28 9.5q13 2 23 -4q5 -2 8.5 -8t-4.5 -10zM496 401q-18 -29 -32 -61l38 36q53 51 101 110q11 14 21 27.5t19 28.5q10 15 18 30q2 4 3 6.5t2 7.5
q0 4 -1 6q-5 0 -11.5 -4.5t-12.5 -9.5t-11.5 -10t-6.5 -6q-13 -12 -25.5 -24.5t-23.5 -25.5q-44 -51 -78 -111zM93 299q14 37 36 76q-35 -17 -64.5 -40t-51.5 -56q-2 -3 -7 -12t-9 -19t-4.5 -18.5t7.5 -9.5q9 -2 19 2t17 7q11 7 22 13.5t21 14.5l1 1q3 11 6 21.5t7 19.5z
M160 346q-11 -17 -21 -38q23 21 43 43t40 45q32 35 61 76q7 11 13.5 21t13.5 22q3 6 6 13.5t5 14.5q-12 -4 -22.5 -14.5l-17.5 -17.5q-12 -13 -23.5 -26t-22.5 -27q-21 -26 -39.5 -54.5t-35.5 -57.5z" />
    <glyph glyph-name="e_e" unicode="ee" horiz-adv-x="381" 
d="M58 299q-12 -4 -24.5 -6.5t-24.5 -3.5q-3 -6 -6.5 -12t-5.5 -12q-5 -11 -9.5 -27t3.5 -26q4 -6 11 -7.5t15.5 -1t16 2t13.5 3.5q15 4 30.5 9.5t29.5 12.5q5 19 15.5 37t19.5 31q19 26 42 50.5t51 42.5q8 4 18.5 8t21 5t20 -3t14.5 -15q7 -14 2 -28t-15 -27t-22.5 -23.5
t-21.5 -17.5q-26 -21 -54 -39t-57 -34l-3 -2q0 -10 10 -11q17 -2 34.5 4.5t32.5 13.5q30 14 57.5 31t54.5 36q14 11 29 21.5t29 22.5q3 3 7.5 1.5t1.5 -7.5q-8 -17 -28.5 -34.5t-34.5 -29.5q-48 -42 -104 -69q-11 -6 -26 -12t-30.5 -9t-30 -1t-24.5 14q-7 6 -8 14
q-22 -10 -44 -17t-45 -9q-23 -3 -41.5 5.5t-23.5 33.5q-5 29 9 57.5t31 51.5q18 25 41.5 47.5t52.5 34.5q12 5 25 6t25 -7q11 -8 12.5 -20t-3.5 -23q-14 -23 -39 -38.5t-50 -23.5zM229 348q-22 -21 -42 -44t-34 -50l13 8q28 17 55 36t48 43q1 2 5.5 7.5t7.5 12t4 11.5t-5 5
q-14 2 -28 -9.5t-24 -19.5zM75 363q-14 -11 -26 -23.5t-23 -26.5q40 8 70 32q2 1 8 6t11.5 11t8.5 11.5t-1 8.5q-5 4 -11.5 2.5t-13.5 -5.5t-13.5 -8.5t-9.5 -7.5z" />
    <glyph glyph-name="f_f" unicode="ff" horiz-adv-x="391" 
d="M265 551q-45 -33 -83 -75.5t-74 -84.5q-28 -32 -54.5 -65t-52.5 -67q34 -2 67 -2.5t67 1.5q30 45 62.5 88t67.5 85q27 32 56 62.5t61 59.5l28 26t32 18q3 0 10.5 0.5t15 -0.5t11.5 -5t-2 -11q-15 -19 -33 -34.5t-35 -32.5q-23 -23 -44.5 -46t-42.5 -48q-32 -38 -62 -76.5
t-59 -78.5q51 7 98.5 21.5t91.5 43.5q0 1 4 4.5t9 6.5t9 4t4 -5q1 -9 -9 -20.5t-15 -16.5q-22 -23 -49 -38t-57 -26q-58 -20 -120 -23q-2 -5 -5 -8.5t-5 -7.5q-39 -60 -75.5 -121t-61.5 -128q-2 -3 -6.5 -16.5t-8 -28t-3 -26t10.5 -11.5q12 1 23.5 8t21.5 17.5t18 21.5
t13 20q17 28 26.5 58.5t9.5 63.5q-2 26 -6 50q-1 3 -3 8t-1 8q2 5 6.5 4t7.5 -5q16 -25 23.5 -54t6 -59t-11 -59t-27.5 -54q-17 -21 -41 -39t-52 -23q-20 -3 -36.5 6t-21.5 30q-5 31 5 63.5t21 60.5q13 32 27 63.5t31 62.5q13 23 26.5 47t27.5 47q-20 0 -39.5 2t-39.5 4
q-13 2 -25 3.5t-24 3.5l-40 -56q-20 -29 -38 -59t-33 -62q-6 -14 -12 -28.5t-8 -29.5q-2 -17 6.5 -24t22.5 3q25 17 40.5 46t24.5 55q6 14 9.5 29t5.5 29t2 27t1 26q2 13 9.5 8.5t9.5 -11.5q5 -14 6.5 -28.5t1.5 -28.5q-1 -31 -8.5 -62t-24.5 -58q-7 -11 -16.5 -22.5
t-21 -21t-25 -16t-26.5 -7.5q-14 -2 -24 4t-15.5 15.5t-7 22t0.5 24.5q5 32 20 63t30 60q16 28 32.5 56t35.5 56q-7 2 -15.5 3t-13.5 5q-8 5 -4.5 14.5t12.5 7.5l37 -5q35 52 72 101.5t78 98.5l46 50q11 11 22 22.5t24 20.5q12 8 26.5 11t28.5 1q3 0 7 -1.5t7.5 -3.5t4 -5
t-3.5 -7z" />
    <glyph glyph-name="g_g" unicode="gg" horiz-adv-x="499" 
d="M404 378q-26 -5 -50 -18t-44 -30q-21 -17 -42.5 -42t-26.5 -54q-2 -15 8 -12.5t19 7.5q15 5 28.5 13t26.5 17q13 10 25.5 19t24.5 20l12 9q6 10 12.5 19.5t14.5 17.5q5 5 12 5.5t12 -3.5q9 -8 5.5 -19.5t-11.5 -19.5q-6 -6 -12 -12.5t-13 -12.5l-15 -37q33 28 65 53
q3 2 14 11t23.5 18t23.5 14.5t13 1.5q2 -3 0 -7t-6 -8l-8 -8l-5 -5q-10 -11 -21 -21.5t-22 -21.5q-29 -29 -59.5 -56t-61.5 -55l-36 -65q-35 -60 -72 -119t-83 -110l-20.5 -20.5t-24.5 -19t-27 -8t-26 11.5q-11 10 -11.5 24t5 28.5t13.5 27.5t15 22q38 56 87 104t99 94
l50 47l30 54v1l-15 -10q-11 -7 -25.5 -16.5t-30.5 -15.5t-31.5 -6t-27.5 12q-17 17 -12 41.5t16 43.5h-1q-80 -62 -150 -129l-43 -70q-37 -60 -75.5 -119t-82.5 -114q-8 -10 -17 -22t-19.5 -23.5t-22 -20t-24.5 -12.5q-8 -2 -15.5 -1t-13.5 6q-12 8 -12.5 22t4.5 26
q12 32 32.5 60t41.5 54q22 28 45 54t47 52q33 35 66.5 69t68.5 67q11 17 21.5 34.5t21.5 34.5q-12 -10 -25 -17.5t-27 -13.5q-16 -7 -34 -9.5t-32 10.5q-11 11 -12 25.5t4 28.5q15 38 47 69.5t68 50.5q17 9 38.5 16.5t40.5 2.5q3 -1 9 -5.5t10.5 -10t4.5 -10.5t-9 -7
q-34 -8 -64 -20.5t-58 -35.5q-14 -11 -26 -24t-21 -27q-2 -4 -6.5 -14t-3.5 -12q8 -7 22 -1.5t21 9.5q15 8 29 17t28 20q13 10 24.5 20.5t22.5 22.5q4 3 7 6t9 2q7 -2 10 -8.5t-1 -12.5q-5 -14 -14 -27.5t-17 -26.5l-12 -20q40 32 82.5 64.5t89.5 55.5q33 23 75 32
q8 2 19.5 4t18.5 -3q9 -5 6.5 -13.5t-11.5 -9.5zM202 -10q14 22 27.5 43.5t26.5 44.5q-43 -42 -85.5 -85.5t-73.5 -94.5q-1 -2 -5 -8t-7 -13.5t-4.5 -13.5t1.5 -8t9.5 1.5t12.5 8.5t11 11t7 8q23 24 42.5 51t37.5 55zM-129 -80q23 29 44 59t42 61q-24 -25 -46.5 -51
t-44.5 -53q-20 -24 -40 -51t-32 -56q7 6 13 12.5t12 13.5q14 16 26.5 32t25.5 33z" />
    <glyph glyph-name="m_m" unicode="mm" horiz-adv-x="860" 
d="M-33 292q17 20 34.5 40.5t37.5 40.5q4 4 10.5 9.5t14 9t15 4t13.5 -5.5t7 -14t-1.5 -16.5t-7 -16.5t-7.5 -14l-14 -25l16 16q14 15 27.5 30.5t30.5 28.5q12 10 24.5 11t22.5 -5t16 -17.5t5 -26.5q-1 -17 -9 -34q18 21 37 40q27 29 55 51q13 10 29.5 18.5t33.5 5.5
q22 -3 30 -24q4 -15 -1.5 -29.5t-12.5 -26.5q-18 -33 -45 -67q-6 -8 -11.5 -15t-10.5 -15q-3 -5 -5.5 -9t-4.5 -9q-2 -2 -2 -4t-1 -3q8 0 17.5 8.5t14.5 12.5q9 8 17.5 17t16.5 17l22 23q14 15 27.5 29t27.5 28q5 5 14.5 14t20 16t20.5 9.5t17 -4.5q13 -13 6 -30t-14 -30
q-5 -10 -10 -19t-10 -19l32 30q15 14 30.5 27t29.5 27q13 11 27.5 22t34.5 5q15 -5 22.5 -20t5.5 -31l-2 -9q6 7 13 13q9 9 22 21.5t27.5 23t30 15t29.5 -1.5q12 -5 15.5 -14.5t2.5 -20t-5 -21.5t-8 -20q-9 -16 -20 -31.5t-22 -31.5l-21 -28q-2 -4 -9 -13t-6 -14q1 0 6.5 2
t7.5 3q6 3 11 6.5t10 6.5q11 8 21 16t20 17q20 17 40 33t42 32q2 2 6.5 5.5t8.5 4.5q7 0 5.5 -5.5t-3.5 -7.5q-8 -11 -17 -21.5t-17 -19.5q-20 -20 -40 -37.5t-41 -34.5q-7 -5 -16.5 -12t-20 -12t-21.5 -6t-20 5q-13 8 -12.5 23t4.5 27q16 46 42 90q6 11 13 20.5t14 19.5
q1 1 1 2q0 2 1 3q-9 -3 -18.5 -9.5t-12.5 -8.5q-13 -8 -23.5 -17t-21.5 -18q-21 -20 -41 -40t-38 -43q-2 -4 -5 -8t-7 -6q-5 -2 -10.5 1.5t-6.5 9.5q-2 11 6 23.5t13 20.5q6 12 11.5 24.5t10.5 24.5q2 6 6.5 15.5t-0.5 16.5q-2 1 -7.5 -2t-11.5 -7.5t-11 -9t-7 -6.5
q-14 -10 -25.5 -21t-22.5 -22q-24 -24 -45 -48q-10 -9 -18.5 -21t-18.5 -20q-8 -10 -17 -4.5t-11 15.5q-1 10 5.5 19t11.5 17q8 14 13.5 29.5t10.5 30.5q3 7 6.5 14.5t5.5 15.5q-10 -8 -19 -17t-18 -17l-34 -29q-14 -17 -28 -33t-30 -30q-12 -11 -29 -22.5t-34 -6.5
q-14 3 -18 15t-1 23q5 22 16.5 41t22.5 38q6 11 12 21t13 20q1 3 5 10t7 14q-2 -1 -4 -1q-7 -4 -13.5 -8t-12.5 -9q-14 -8 -26 -18t-24 -21q-23 -20 -44.5 -41.5t-42.5 -44.5q-3 -3 -7.5 -9t-10 -11t-11 -7.5t-11.5 2.5q-5 3 -5 9t1.5 12.5t4 12.5t3.5 10q5 15 10 29.5
t10 29.5q2 8 5 15t5 14q1 3 1.5 6.5t-0.5 5.5h-3q-8 -2 -14.5 -7.5t-12.5 -10.5q-27 -24 -50 -53q-8 -10 -15.5 -20t-15.5 -20q-6 -7 -11.5 -15t-11.5 -13q-5 -5 -10 -5.5t-9 2t-6.5 7.5t-1.5 11q2 14 10.5 27t13.5 25q11 20 19 45l7 19q0 1 0.5 1.5t0.5 2.5l-5 -4
q-8 -6 -16.5 -12.5t-16.5 -13.5l-29 -22l-14 -10q-5 -3 -10.5 0t0.5 9zM168 349h1h-1z" />
    <glyph glyph-name="n_n" unicode="nn" horiz-adv-x="717" 
d="M-30 291q7 10 23.5 31.5t36 40.5t39.5 26.5t34 -10.5q8 -18 -1.5 -36.5t-19.5 -34.5q-8 -12 -16.5 -24.5t-16.5 -23.5q14 11 27 21.5t26 22.5q26 23 53 46.5t58 37.5q29 14 44.5 0t7.5 -43q-5 -19 -12.5 -35.5t-15.5 -33.5q-5 -8 -9 -17l-8 -18q-1 -3 -3.5 -9t-3.5 -11
q3 2 8 3t7 3q9 4 20 13q11 8 21 16.5t21 17.5q9 8 18 15.5t18 15.5l2 2q20 20 40.5 39t44.5 33q9 4 18 5t16 -2.5t10.5 -11t-0.5 -19.5q-6 -20 -17 -37t-21 -35q8 6 14 12.5t13 11.5q14 12 27 22.5t27 21.5q24 21 54 40q13 8 28 14t30 1q10 -3 14 -11t4 -17.5t-3 -19.5
t-6 -17q-6 -15 -13.5 -30t-14.5 -30q-4 -9 -8 -17t-8 -17q-2 -3 -4 -8l-4 -10q8 3 19.5 9t13.5 8q22 14 44 32q20 14 39 30.5t39 31.5l3.5 3t7 5t6 1.5t2.5 -5.5q0 -4 -4 -8.5t-6 -7.5q-31 -37 -65 -74q-9 -10 -26 -26.5t-36 -29t-38.5 -15.5t-33.5 14q-8 9 -8.5 20.5
t2.5 23t8.5 22.5l9.5 19q11 22 23 43.5t20 44.5q-9 -3 -18.5 -9t-17.5 -11q-13 -8 -25.5 -17t-24.5 -19q-23 -19 -45 -40t-49 -36q-17 -9 -27 1t-5 28q4 14 11 26l14 24q5 7 8.5 13t7.5 14l8 13q-4 -2 -7 -4t-5 -3q-8 -5 -15 -10.5t-15 -10.5l-12 -10l-38 -38
q-18 -18 -37 -36t-40 -34q-7 -5 -16 -10.5t-18.5 -8t-19 -1.5t-17.5 9q-7 7 -8 16.5t0.5 19.5t4.5 19.5t6 17.5q4 13 9 24.5t10 24.5q2 2 8 15t10 23q-5 -2 -10.5 -5t-8.5 -5q-19 -11 -40 -27q-20 -15 -38 -31l-36 -32q-16 -14 -31.5 -28.5t-32.5 -26.5q-8 -6 -18.5 -9.5
t-18.5 6.5q-6 7 -4.5 17.5t6.5 21t11 20t10 15.5q12 19 26 38.5t25 40.5q-5 -2 -9 -5.5t-8 -6.5q-18 -12 -36 -27q-7 -6 -14 -12.5t-15 -11.5l-3 -3t-3 -2q-3 -2 -6.5 1t-1.5 7zM213 217q0 2 -1 2q0 -1 1 -2zM569 217q0 1 -1 2q0 -1 1 -2z" />
    <glyph glyph-name="o_o" unicode="oo" horiz-adv-x="482" 
d="M88 403q11 3 20.5 4t20.5 -1l1 -1q10 2 20.5 -3t18.5 -11q7 -7 12 -17q26 0 53 8q14 2 27 5.5t27 5.5h2q8 4 16.5 6.5t16.5 3.5h4q14 2 23 -2h1q6 8 14.5 11.5t16.5 -3.5q10 -8 13 -19.5t1.5 -24t-6 -25.5t-10.5 -25q12 -8 22 -11q14 -5 28.5 -2.5t27.5 10.5q3 1 10 7
t14.5 12.5t14 10.5t8.5 3q3 -3 0.5 -9t-7 -12.5t-10 -12l-7.5 -7.5q-11 -11 -24 -18.5t-29 -10.5q-34 -6 -62 16q-16 -26 -37 -48.5t-47 -37.5q-11 -6 -25.5 -11t-28 -5.5t-25.5 5.5t-19 21q-8 20 -3 42t13 40q8 17 20.5 32.5t26.5 28.5l-10 -3q-11 -4 -23 -7t-24 -5
q-2 -17 -9 -34t-14 -29q-15 -27 -36.5 -50t-48.5 -37q-11 -7 -26.5 -12.5t-31 -6.5t-28.5 5t-19 23q-9 29 0.5 62.5t23.5 58.5q16 26 40 48.5t53 31.5zM120 364q-9 9 -9 19q-25 -10 -44 -30t-33 -42q-4 -6 -13.5 -23t-16 -35.5t-6.5 -33.5t15 -17q14 -1 29 7.5t26 16.5
q14 11 26.5 23.5t23.5 26.5q10 14 18.5 29t13.5 32q0 2 1 3.5t1 3.5q-20 5 -32 20zM337 335q-5 23 3 46q-14 -1 -26 -8t-23 -15q-20 -17 -37 -39t-28 -45q-4 -9 -9 -25t3 -25q7 -7 18 -4.5t19 5.5q26 10 46 29.5t34 41.5q2 3 5 6.5t5 8.5q-3 5 -5.5 11t-4.5 13zM368 383
q-5 -7 -6 -19.5t1 -20.5l1 2q2 6 5 18t-1 20z" />
    <glyph glyph-name="p_p" unicode="pp" horiz-adv-x="508" 
d="M-32 292q14 20 31 38t35 35q8 8 17.5 17t20.5 12q8 3 12.5 1t10.5 -4q6 0 8 -9t1 -13l-2 -11q20 19 43 36.5t50 22.5q16 2 28.5 -5.5t14.5 -24.5q0 -4 0.5 -8t-0.5 -8q18 7 36 6.5t28 -18.5l4 -9q7 6 13.5 12t13.5 11q17 12 36 22.5t40 10.5q23 0 31 -17.5t4 -37.5
q-5 -21 -15 -40.5t-23 -36.5q-8 -11 -17.5 -21.5t-20.5 -20.5q38 17 72 43t64 52q4 3 10.5 10t12.5 9q5 1 5.5 -1.5t-1 -5.5t-3.5 -6.5t-2 -4.5q-12 -14 -24.5 -27t-26.5 -25q-25 -22 -53 -40.5t-58 -31.5q-5 -2 -17.5 -6.5t-27.5 -8.5t-30.5 -6t-25.5 0q-23 -51 -50 -99
t-58 -92q-9 -12 -18 -24.5t-19 -24.5q-10 -11 -20 -23t-23 -19q-9 -5 -20 -6t-19.5 2t-12.5 11t-1 21q6 29 20.5 57t30.5 54q34 57 74 116q28 40 56.5 78t61.5 74l10 11q2 6 4 14.5t-3 13.5q-4 6 -13 6.5t-14 -0.5l-15 -3q-7 -20 -18.5 -38t-22.5 -33q-14 -18 -33 -36.5
t-40.5 -32.5t-46 -22t-48.5 -5q-26 -54 -53.5 -107.5t-58.5 -106.5l-36 -58t-39 -56l-13.5 -18t-17 -17.5t-20.5 -10.5t-23 2q-9 5 -12 14t0 19q4 14 10.5 27t12.5 26q15 31 32.5 60.5t35.5 58.5q38 60 77 117.5t83 113.5l30 38l17 34l10 20t10 21q-8 -5 -15.5 -12
t-14.5 -12l-40 -33l-22 -17q-4 -3 -9.5 -2t-0.5 8zM306 312q-1 -2 -1 -5q-3 -18 -8 -34.5t-11 -33.5q-2 -7 -5 -13t-5 -12l8 3q28 14 53 39q11 11 20.5 22.5t19.5 23.5q10 14 19.5 28t14.5 31q1 2 3 7.5t-3 7.5q-8 2 -15 -0.5t-14 -4.5q-14 -7 -27.5 -17.5t-26.5 -21.5z
M213 170q12 22 23.5 44.5t21.5 46.5q-26 -29 -49 -60.5t-44 -63.5q-18 -26 -34.5 -52.5t-32.5 -53.5q-8 -14 -16 -28.5t-15 -29.5q-3 -8 -10 -19.5t-9 -22.5q5 2 8.5 6.5t6.5 6.5q7 7 13 14t11 14q12 16 23 31t21 31q44 64 82 136zM-57 110q8 14 15 26.5t14 26.5
q-17 -24 -34 -49l-34 -50q-40 -59 -71 -116q-9 -15 -16.5 -30t-15.5 -30q-3 -7 -8.5 -16.5t-7.5 -19.5l10 13l21 30q13 18 24 36t22 37q21 35 41 70.5t40 71.5zM151 364q-39 -30 -75 -71l-7 -15q14 10 27 18.5t27 17.5q17 11 36 22t39 19l1 2t3 6.5t4 10t2 10t-3 5.5
q-14 2 -28.5 -7.5t-25.5 -17.5zM120 257q15 16 30 33t29 35q-20 -12 -38.5 -25t-37.5 -26q-13 -9 -24.5 -18t-22.5 -19l-8 -7l-9 -19l-2 -3q12 0 23.5 5t22 12.5t20 16t17.5 15.5zM81 366q-1 0 -1 -0.5t-1 -0.5q1 0 2 1z" />
    <glyph glyph-name="r_r" unicode="rr" horiz-adv-x="403" 
d="M-30 286q18 31 42 61q6 8 12 16.5t11 17.5q-8 11 -9 24t4 24q6 14 20.5 21.5t28.5 -2.5q17 -11 12 -29.5t-17 -35.5h4q12 2 23 5.5t22 8.5q7 3 15.5 1t14.5 -6.5t7.5 -12t-4.5 -15.5q-5 -7 -12 -13.5t-13 -13.5q-10 -11 -19.5 -22t-18.5 -23l-16 -24t-14 -25
q-5 -12 -5 -22q-1 -1 -0.5 -3.5t0.5 -3.5q5 0 10.5 3t11 8t10.5 9.5t8 7.5l41 42q11 12 21.5 25t21.5 26q10 15 23 29q2 2 7.5 11t12.5 20l-5.5 5.5t-4.5 7.5q-6 16 -1 35q5 13 18 22t27 4q11 -4 15.5 -11.5t3.5 -16.5t-5 -18.5t-10 -18.5q12 -1 24 2t23 7q9 3 18.5 5
t17.5 -3q10 -7 11 -17.5t-7 -19.5q-18 -21 -35 -43t-31 -45q-8 -13 -15 -26.5t-12 -28.5q-1 -2 -1 -5t-1 -7l-2 -10l1 -1q3 -1 11.5 3.5t12.5 6.5q12 8 23 16.5t21 17.5q21 19 40.5 38t40.5 37q3 3 11 10.5t13 1.5q4 -5 -3.5 -14.5t-10.5 -13.5q-16 -22 -34 -41t-37 -38
q-17 -17 -37 -34t-43 -22q-20 -4 -32 8t-12 32q0 26 12 51t25 48l16 26t17 26h-1q-10 -1 -19 -1t-18 3q-5 0 -7 2l-2 -2q-8 -10 -15 -20t-15 -19q-12 -19 -26 -36.5t-28 -34.5q-17 -20 -36 -42.5t-44 -34.5q-20 -9 -36.5 0t-18.5 31q-3 27 12 54t29 48l23 31h-6
q-6 0 -14.5 0.5t-13.5 4.5l-8 -9q-22 -29 -45 -50l-20 -16q-3 -2 -7 0t-2 6z" />
    <glyph glyph-name="t_t" unicode="tt" horiz-adv-x="317" 
d="M0 451q8 8 18.5 10.5t21.5 5.5q8 2 17 4l18 4q15 24 30.5 47t32.5 45q4 5 9.5 13.5t12 16t14 13.5t15.5 6t12.5 -4.5t6.5 -11t1.5 -14t-1.5 -13.5q-5 -21 -15.5 -40.5t-21.5 -38.5q15 3 30 5.5t30 4.5l26 40q17 26 38 53q8 11 18 23t24 19q7 3 14.5 1t11.5 -11
q5 -13 -1.5 -29t-11.5 -28q-11 -26 -27 -55q45 6 90.5 10t91.5 6q14 1 27.5 1t27.5 -2q3 0 7.5 -0.5t6.5 -3.5q5 -5 1.5 -8.5t-7.5 -5.5q-23 -16 -47 -16.5t-50 -2.5q-42 -2 -84 -5.5t-84 -7.5q-22 -38 -46.5 -74t-50.5 -71q-11 -14 -21 -27t-21 -26q-2 -8 -3.5 -15
t-3.5 -14q-1 -8 -4 -22.5t5 -21.5h-1h3q4 -1 9.5 1t11 5.5t10.5 7t9 5.5q14 9 26 19t24 21q20 18 40 37.5t43 36.5q7 5 8 -0.5t-2 -10.5q-7 -12 -15.5 -23.5t-17.5 -22.5q-20 -23 -42.5 -45t-46.5 -40q-8 -6 -17.5 -11.5t-19.5 -9.5t-20.5 -3.5t-20.5 6.5q-13 8 -17 21.5
t-3 29.5q-9 -9 -21 -20t-25 -20t-27 -15t-29 -4q-18 2 -27 12.5t-12.5 25t-2 30t4.5 28.5q8 33 22 64t29 61q7 14 14 27t15 26q-11 -2 -21 -4t-21 -4q-4 -2 -9 -3.5t-8 -0.5q-5 2 -5 6t4 7zM33 320q-5 -11 -8.5 -22.5t-6.5 -22.5q-4 -12 -7 -27t2 -28q3 -6 8.5 -6.5
t11.5 1.5t12 6l9 6q23 15 43.5 36t38.5 42q15 44 34 85.5t42 81.5q-4 0 -7 -0.5t-7 -0.5l-44 -6q-10 -14 -19.5 -28t-20.5 -28q-25 -34 -57 -67zM268 510l17 2q2 2 2.5 4t2.5 4q8 13 14.5 25.5t13.5 26.5l9 21l-9 -13q-9 -11 -17.5 -23t-16.5 -24zM56 371q11 14 21.5 29
t20.5 30q5 8 10 15t10 15l-16 -2l-18 -32t-17 -33zM205 392l15 20q11 16 22 32.5t22 33.5q-4 0 -7.5 -0.5t-8.5 -1.5q-7 -12 -13.5 -24.5t-12.5 -25.5zM129 499q-3 -4 -5.5 -7.5t-4.5 -7.5l15 3l14 25q6 10 11 21l10 22l-5 -7q-10 -11 -18.5 -23t-16.5 -26z" />
    <glyph glyph-name="G_r" unicode="Gr" horiz-adv-x="661" 
d="M850 733q-7 6 -16.5 7.5t-17.5 1.5q-17 0 -34 -2.5t-34 -6.5q-33 -6 -65 -16t-63 -21q-64 -26 -125 -57t-118 -69q-55 -37 -104.5 -79.5t-93.5 -91.5q-42 -48 -75.5 -104.5t-47.5 -119.5q-5 -20 -6.5 -40t8.5 -40q12 -19 32 -26.5t41 -9.5q48 -3 93.5 15.5t83.5 46.5
q26 20 51 48.5t36 60.5q7 20 0 35.5t-27 23.5q-20 -11 -41 -19t-38 -11t-28.5 2t-13.5 21q-3 16 6 27t23.5 17t30.5 8t28 2q8 0 16.5 -1t16.5 -3q12 7 24 13.5t23 14.5q14 9 28 19t28 22q-3 20 7 40.5t24 33.5q11 8 21 5t20 -12q10 -11 5 -23t-10 -22q-7 -12 -18 -25
q3 0 9 2q12 3 22.5 7.5t24.5 -0.5q10 -3 16.5 -10.5t9.5 -16.5q4 -12 0 -23.5t-11 -22t-15 -20.5t-14 -19q-15 -26 -26 -55q0 -2 -1.5 -7.5t-2 -11t1 -8.5t7.5 -1q14 6 25 18.5t22 24.5t22 24.5t23 23.5q15 19 38 37q3 2 6.5 5t8.5 1t3.5 -6t-3.5 -8q-12 -23 -27 -44
t-32 -41q-18 -24 -42 -46q-11 -9 -23 -17.5t-27 -8.5q-16 0 -25 9t-12.5 22t-3 27.5t3.5 25.5q4 18 10.5 36t17.5 34l22 26q2 2 3 4.5t3 4.5q-5 0 -9.5 -1t-8.5 -1q-14 -1 -31 2q-8 2 -14 6q-11 -9 -22.5 -17t-23.5 -16q-5 -3 -13.5 -9t-20.5 -14q10 -7 18 -15.5t13 -19.5
q11 -25 7 -50.5t-17.5 -49.5t-32 -44.5t-35.5 -35.5q-48 -39 -109.5 -63t-124.5 -19q-32 2 -61.5 15t-46.5 42q-18 29 -17 61.5t8 64.5q14 65 45.5 123t74.5 109q44 52 96.5 97t110.5 83t120 69t125 55q32 12 64 22t65 18q32 8 66 12t66 -3q20 -5 36.5 -19.5t11.5 -37.5
q10 -2 18.5 -8t1.5 -16q-8 -11 -21 -18.5t-27 -10.5q-7 -2 -19 -4q-22 -15 -45 -23q-10 -4 -21 -4.5t-17 9.5q-5 9 -1.5 17t11 15t16.5 12t15 8q9 5 19 10t21 9l6 9v2q-1 0 -1 -2zM517 449q3 0 5 3zM278 298q1 -1 3 -1q-1 1 -3 1zM784 674q-2 2 -2 0h2z" />
    <glyph glyph-name="i_t_i" unicode="iti" horiz-adv-x="445" 
d="M21 442q10 7 21.5 9.5t23.5 4.5l66 9l82 8q5 7 8.5 13.5t8.5 12.5q18 27 39 51q10 11 22.5 22t26.5 16q10 2 20 0t16 -11q8 -11 4.5 -23t-8.5 -22l-27 -47q53 5 105.5 7.5t106.5 1.5q15 0 30.5 -0.5t30.5 -0.5q14 -1 31 0t31 -3q10 -3 16.5 -11t11.5 -17q7 -17 -11 -17
q-64 7 -127.5 8t-128.5 -1l-120 -3l-22 -29q-26 -32 -53 -64t-56 -62l-6 -17q-2 -5 -6 -16t-6.5 -23t-2 -23t6.5 -16h1q1 0 2 1q4 1 6.5 2t5.5 3l24 18q27 23 50 50q22 23 43 46t43 45q10 12 22 22l8 10q16 19 37 16q3 0 7.5 -0.5t8 -2.5t5 -5t-2.5 -8l-58 -80
q-8 -13 -16.5 -25.5t-16.5 -26.5q-4 -7 -7.5 -13.5t-6.5 -14.5q-3 -5 -6 -11.5t-3 -11.5q3 -1 15 7.5t25 19t24.5 20.5t13.5 12q20 18 40 37t43 35q4 4 9 0q2 -4 0 -7t-4 -5q-8 -12 -16.5 -23.5t-18.5 -23.5q-19 -23 -41 -46.5t-47 -41.5q-7 -5 -16.5 -10t-20 -7.5t-20 0
t-16.5 11.5t-7 20t3 23t9 24l11 22q-29 -36 -60 -69l-16.5 -16.5t-21 -17t-23 -11.5t-23.5 0q-11 4 -17.5 13t-9 20t-2.5 23t2 23l-23 -19q-10 -8 -23 -18t-28 -16.5t-30 -8t-28 7.5q-13 8 -16.5 21.5t-1.5 28.5t7.5 29.5t10.5 25.5q11 25 23.5 48t29.5 45q8 11 16.5 16
t22.5 3q3 -1 12 -3t4 -9q-23 -29 -43.5 -62t-35.5 -66q-2 -5 -6 -14.5t-5.5 -18.5t1.5 -14t15 -1q23 7 42 21.5t36 29.5l34 29q8 21 16.5 41.5t18.5 40.5q7 15 15 30.5t16 30.5q-5 0 -9.5 -0.5t-9.5 -0.5l-107 -9l-43 -6q-9 -2 -12 4t6 11zM468 533q-4 10 6 22.5t18 18.5
q11 8 25 7.5t18 -17.5q3 -15 -6 -24t-21 -17q-11 -7 -23 -6t-17 16zM114 502q0 2 1 3q0 2 1 3l7 11q5 5 9.5 10t10.5 7q11 5 20 0t11 -16q1 -16 -10 -20.5t-23 -9.5q-4 -2 -10 -4t-10 -2q-7 1 -9.5 6.5t2.5 10.5v1zM322 538q-15 -13 -27.5 -27.5t-23.5 -30.5q5 0 8.5 0.5
t8.5 1.5q6 9 12 17.5t11 17.5q1 1 4.5 7t6.5 14zM248 446q-10 -17 -20 -33t-19 -33l20 22q8 11 17 22.5t18 22.5q-4 -1 -8 -1h-8zM325 557q-2 -1 1 -6q2 6 -1 6z" />
    <glyph glyph-name="i_t" unicode="it" horiz-adv-x="320" 
d="M41 457q25 11 54 13.5t55 4.5q17 2 35 3.5t35 3.5q13 21 27 38q7 9 16.5 22t21 24t24.5 18t27 5q9 -2 15.5 -8.5t8.5 -16.5q2 -11 -3 -20.5t-10 -17.5l-20 -37q115 9 231 12q34 2 67 2t66 -1l63 -2q15 -1 32.5 -0.5t31.5 -4.5q11 -4 18 -11t13 -16q6 -11 1 -14t-15 -1
q-29 2 -59.5 3.5t-60.5 3.5q-98 4 -195.5 2.5t-195.5 -4.5q-5 -1 -9.5 -1h-9.5q-23 -34 -49.5 -65.5t-53.5 -61.5l-33 -34q-2 -5 -3.5 -10t-3.5 -10l-5.5 -16.5t-6 -22.5t-2 -22.5t6.5 -15.5h1v-1h1q12 2 21 8t18 14q14 11 26 22t25 23q20 20 41 39t44 36q6 5 11.5 4
t0.5 -10q-6 -12 -14 -23.5t-16 -22.5q-18 -26 -40 -48.5t-46 -42.5q-9 -7 -20.5 -15t-23.5 -13t-24.5 -5.5t-24.5 7.5q-17 12 -19.5 33t0.5 42l-13 -11q-10 -9 -22.5 -19t-26.5 -18t-29 -12.5t-29 -1.5q-20 5 -27 19.5t-4.5 34.5t11.5 42.5t20 43.5t22 37.5l17 25.5
q8 11 16.5 17t23.5 4q1 0 5 -1t7.5 -2t5.5 -3.5t-1 -5.5q-24 -29 -44 -62t-35 -67q-2 -4 -6 -13.5t-5.5 -18t1 -14t13.5 -1.5q23 6 42 20.5t36 28.5l36 32q14 39 31.5 77.5t39.5 74.5l-54 -3q-20 -2 -38 -3l-36 -2q-7 -1 -15 -3.5t-15 -0.5q-8 -2 -8 6t6 10zM124 523
q0 1 0.5 1.5t0.5 1.5q0 2 1 3q2 4 4 6t4 5q9 12 20 18q10 4 19 -1t11 -16q2 -16 -9.5 -20.5t-23.5 -9.5q-4 -2 -9.5 -3.5t-10.5 -1.5q-7 0 -9.5 6t2.5 10v1zM253 455q-12 -18 -23 -37t-22 -39l21 24q20 23 41 52h-17zM275 486q5 0 9 0.5t9 0.5q6 10 12 19t11 20l6 12
q-6 -5 -11.5 -10t-10.5 -10zM324 557q-2 -2 1 -4q0 4 -1 4z" />
    <glyph glyph-name="q_u" unicode="qu" horiz-adv-x="507" 
d="M-301 -37q14 25 37.5 39t49.5 23q64 23 128 35l45 7l72 94q12 17 24.5 33t24.5 33q-12 -11 -24 -20.5t-26 -17.5q-14 -9 -29.5 -15.5t-32.5 -4.5q-20 5 -28.5 20.5t-4.5 35.5q4 21 14.5 41t25 38t31.5 33t34 27q17 14 37 24t42 13q9 2 20.5 3t19.5 -4q10 -2 8.5 -12
t-10.5 -10q-32 0 -61.5 -20.5t-51.5 -42.5q-22 -21 -43 -48q-10 -11 -20 -26t-12 -30q-1 -11 11 -8t27 11t28.5 17l16.5 11q13 11 25.5 22t25.5 22q11 11 21 23.5t23 21.5q11 11 22 -1q5 -6 4 -12t-5 -12l-39 -63q-20 -31 -40 -60.5t-40 -58.5q-9 -13 -17.5 -25.5
t-16.5 -25.5q2 0 4 0.5t4 0.5q32 39 64.5 76.5t65.5 75.5q23 26 45.5 50.5t47.5 48.5l25 25t26 24q9 10 24 22l12 12t15 9q13 2 14.5 -7.5t-3.5 -17.5v-1l-3 -4q-23 -27 -42 -57q-11 -15 -21.5 -29.5t-19.5 -31.5q-5 -7 -8.5 -14l-7.5 -15q-2 -2 -4 -10l13 10q13 10 25 20.5
t24 21.5l43 40q7 5 13 11t13 12q5 4 10.5 9.5t11.5 7.5t12 -1.5t8 -10.5q1 -7 -2.5 -12t-7.5 -10q-12 -16 -22.5 -32t-20.5 -33q-5 -8 -8.5 -15.5t-7.5 -15.5q-2 -3 -2.5 -7.5t-1.5 -8.5q8 4 15 9t13 10q5 3 10 7l10 8q19 14 36.5 27.5t34.5 27.5q12 8 23 16.5t22 16.5
q2 2 6 5.5t9 2.5q5 -3 1 -8.5t-6 -8.5q-15 -21 -33.5 -41t-38.5 -37q-19 -17 -39 -33t-43 -27q-12 -7 -27.5 -10t-25.5 11q-6 9 -5 20t6 22l-21 -18q-12 -9 -27.5 -20t-32.5 -8q-9 2 -14.5 10t-5.5 17q0 17 10.5 35t18.5 32l7 12q-52 -52 -100.5 -107t-94.5 -112
q62 2 124 -12l28 -8t28 -10q9 -4 21.5 -10.5t17.5 -15.5q2 -5 -2 -9.5t-9 -0.5q-3 1 -6 3l-6 4q-14 8 -28 12.5t-28 7.5q-42 8 -83.5 9t-83.5 -3q-32 -42 -63.5 -84t-62.5 -85q-24 -35 -47 -70.5t-44 -71.5q-7 -11 -16 -7t-13 14q-5 13 -3 28t5 28q10 32 25 62.5t34 57.5
q19 29 39 57t40 55q-67 -13 -133 -38q-18 -7 -35.5 -15t-34.5 -16q-4 -3 -9 -6.5t-10 -4.5q-8 -2 -9 5t2 12zM-6 37h-4q-13 -20 -29 -41z" />
    <glyph glyph-name="s_t" unicode="st" horiz-adv-x="301" 
d="M103 544q23 11 45 17q7 2 13.5 4t13.5 2q9 0 17 -1t17 1q32 6 65 10t66 7l22 22q22 22 46.5 41.5t52.5 34.5q7 4 13.5 6.5t14.5 0.5q11 -2 17.5 -11.5t4.5 -20.5q-2 -13 -8 -24.5t-12 -22.5l-9 -15q28 2 56 2.5t57 1.5q6 0 14.5 -1t1.5 -11q-12 -20 -34 -20
q-30 -1 -59.5 -2.5t-59.5 -3.5l-4 -5q-20 -25 -42 -48.5t-45 -44.5q-34 -31 -69.5 -56t-73.5 -48l-14 -22q-11 -16 -20 -33t-17 -34q-5 -10 -13.5 -26.5t-5.5 -29.5q11 -1 23.5 8t20.5 16q28 21 54 45l46 45l10 10t12 8q5 0 5.5 -2.5t-1 -6.5t-4 -7.5t-3.5 -4.5
q-36 -52 -86 -96q-8 -8 -18 -17t-21.5 -16.5t-24 -11t-24.5 -0.5q-13 4 -17 14t-3 22.5t5 25t7 20.5q5 15 11.5 30t13.5 29l-12 -6q-13 -6 -25.5 -12t-24.5 -13q-4 -26 -11.5 -51t-21.5 -45q-7 -9 -19 -20.5t-26.5 -19t-28.5 -8t-25 11.5t-9 26t10.5 27.5t19.5 25.5t19 19
q14 13 28.5 23.5t30.5 21.5l2 17q1 10 2 19.5t3 19.5l-32 -29q-8 -8 -16 -15t-17 -14q-6 -5 -12.5 -10t-13.5 -10q-3 -2 -6 1t-1 7q11 24 28.5 43t36.5 39q8 9 17.5 17.5t19.5 17.5q5 6 12 12.5t16 3.5q12 -4 12 -15.5t-2 -19.5q-4 -16 -6.5 -30.5t-4.5 -30.5q21 12 42 23
l42 22q2 4 4 7t4 7q51 85 116 164q-34 -4 -68 -7.5t-68 -8.5q-14 -2 -29 -4l-30 -4q-3 -1 -7.5 -1.5t-7.5 1.5q-5 4 -4 9.5t6 7.5zM296 463q-8 -10 -15 -19t-14 -19q60 43 108 94q19 19 37 40l-36 -3q-21 -22 -41 -45.5t-39 -47.5zM5 180q25 12 36.5 37t17.5 52
q-7 -5 -13.5 -9.5t-12.5 -9.5q-11 -9 -22.5 -19.5t-19.5 -23.5q-4 -5 -8 -12.5t-2 -14.5t11 -4.5t13 4.5zM467 641q-16 -11 -29.5 -24t-27.5 -27q7 0 13 0.5t13 1.5q8 11 17 23t14 26z" />
    <glyph glyph-name="t_e" unicode="te" horiz-adv-x="274" 
d="M14 447q6 11 16 14t21 5t21.5 3.5t21.5 2.5l36 41q11 11 21.5 22.5t22.5 22.5q11 10 23.5 21t27.5 15q10 3 19.5 -2t11.5 -16q2 -15 -6.5 -29t-16.5 -25q-15 -22 -31 -40q11 1 22.5 2t22.5 3q130 13 263 21q8 1 19 2.5t19 -2.5q10 -2 6 -11t-8 -14q-8 -10 -20 -10.5
t-23 -0.5l-67 -4q-65 -4 -129.5 -5.5t-129.5 -8.5q-16 -17 -32 -32.5t-33 -30.5q-17 -14 -33 -28t-33 -28q-5 -3 -8.5 -6.5l-7.5 -7.5q-11 -21 -21 -47q-2 -5 -5.5 -14t-5.5 -18.5t-1 -18.5t7 -12q11 -2 22.5 2t22.5 11q-5 25 5 49q10 29 29.5 55.5t43.5 48.5q7 6 17.5 14.5
t21.5 14t22.5 6.5t21.5 -8q9 -8 10 -19t-3 -22.5t-11 -22t-12 -18.5q-38 -53 -89 -95l-7 -6q7 -1 14.5 2.5t12.5 5.5q17 7 31.5 15.5t28.5 19.5q26 17 49 35.5t48 37.5q2 1 5.5 4t5.5 4q5 2 7.5 -1t0.5 -7q-7 -9 -14 -18.5t-15 -17.5q-20 -23 -43.5 -44.5t-49.5 -38.5
q-11 -8 -24.5 -16t-28 -13t-29 -5.5t-27.5 8.5q-3 1 -7 5q-17 -11 -34 -16t-34 0t-23 18t-6 28t4.5 31t8.5 27q17 42 40 80t50 74h-2q-3 -1 -14 -3t-21.5 -2.5t-17 2t-0.5 11.5zM91 266q-4 -7 -5 -14q33 25 63 59q14 17 25.5 34t16.5 37h-1q0 1 -4.5 -1t-10 -5.5t-10.5 -7
t-6 -4.5q-23 -20 -39 -45q-19 -25 -29 -53zM166 509q-8 -8 -15.5 -17t-15.5 -18l25 3l10 12q8 11 16.5 21.5t15.5 22.5q5 5 8 10.5t6 10.5q-4 -2 -7 -5t-6 -5zM103 436q-14 -19 -27.5 -38.5t-25.5 -39.5l54 56q17 17 32 35l-25 -3zM231 562q-1 0 -2 -1q1 0 2 1z" />
    <glyph glyph-name="t_h" unicode="th" horiz-adv-x="443" 
d="M-15 462q32 11 66 17.5t69 11.5l11 13q19 20 39.5 42t45.5 36q7 5 15 5t14 -6q8 -9 3.5 -21t-10.5 -21q-11 -20 -24 -36q4 0 7 1l75 9q13 15 25.5 30t26.5 30q22 25 45.5 49.5t50.5 42.5q9 7 21.5 12t24.5 -1q11 -5 13.5 -15.5t-2.5 -21.5q-10 -29 -32.5 -54.5
t-42.5 -48.5q-4 -4 -7 -7.5t-6 -7.5q37 1 76 0q12 -1 22.5 -5t18.5 -14q8 -11 1.5 -16t-17.5 -6q-30 -1 -59.5 -0.5t-59.5 -0.5q-6 -1 -12 -1h-12q-10 -11 -20 -20.5t-20 -19.5q-38 -38 -77 -73.5t-80 -70.5l-19 -27q19 16 38 31.5t39 30.5q7 6 24 20t36 24.5t36 12.5
t24 -16q3 -9 2.5 -18.5t-3.5 -19.5t-7.5 -19.5t-7.5 -16.5q-5 -10 -9.5 -19.5t-9.5 -20.5q-3 -4 -8 -12.5t-7 -16.5q8 2 17 7.5t13 8.5q19 11 40 27q15 11 30 23.5t30 26.5q4 4 15 15.5t17 10.5q5 -2 -0.5 -12.5t-14.5 -22.5t-18.5 -22.5t-12.5 -13.5q-17 -17 -34.5 -33.5
t-37.5 -30.5q-7 -5 -16.5 -9.5t-20 -7t-20 -1.5t-16.5 9q-7 7 -7.5 17t2 20.5t7.5 20t8 17.5q5 11 10 21t10 21q8 16 12 31q-9 -3 -18 -9.5t-14 -8.5q-14 -10 -28.5 -19.5t-28.5 -20.5q-28 -20 -53.5 -42t-51.5 -45q-3 -3 -8 -8.5t-10.5 -10t-11.5 -7t-11 0.5q-8 4 -7.5 11
t4.5 13q8 12 14 23q-17 -14 -35.5 -26t-38.5 -23q-10 -5 -22.5 -10t-24.5 -2q-13 2 -19.5 14t-5.5 24q1 27 14 53t26 49q16 27 33.5 53t37.5 52q8 11 16.5 22.5t17.5 22.5l-22 -4q-11 -3 -18.5 -9.5t-18.5 -6.5q-11 -1 -21 0t-20 5q-6 3 -11 10t6 11zM29 315q-2 -4 -4 -7
t-4 -7q-8 -14 -15 -27t-13 -27q-4 -9 -9.5 -22.5t-3.5 -23.5h4q1 0 2 1q5 2 9.5 4.5t9.5 4.5q18 10 38 23q18 13 37 26t36 27q13 9 26 20q29 42 59 83.5t62 81.5q-39 -1 -80 -6l-18 -20q-20 -23 -41.5 -44.5t-44.5 -42.5l-45 -40zM346 517q7 1 13.5 1.5t12.5 0.5l1 1
q15 17 29 33.5t27 33.5q7 8 13 17l12 18q2 2 6 7.5t7 10.5q-10 -5 -19 -14.5t-16 -15.5q-14 -13 -26.5 -27t-25.5 -28zM86 400q-8 -11 -14.5 -21t-14.5 -20q18 17 34.5 35t33.5 36l28 33l-20 -3zM283 439q-8 -10 -15 -19t-14 -19q20 19 39.5 37t39.5 38h-10.5t-10.5 -1z
M221 555q-17 -12 -30.5 -27t-27.5 -31l20 2l24 35q2 4 6.5 9.5t7.5 11.5zM295 229q2 -2 4 -2q-2 2 -4 2z" />
    <glyph glyph-name="b_e" unicode="be" horiz-adv-x="370" 
d="M120 362q6 -8 9 -15q2 -7 2.5 -14t-0.5 -15h1q8 -6 17.5 -8t19.5 -2q11 26 28 49t40 40q10 8 22.5 13t25.5 4q17 -1 26.5 -12t7.5 -27q-2 -14 -9.5 -26t-18 -22t-22.5 -18t-24 -14q-26 -13 -49 -17l-4 -12q-2 -5 -4.5 -12t-3.5 -14.5t1 -14.5t8 -10q6 -4 13 -3t14.5 4
t14.5 7t12 7q14 8 26.5 18t24.5 20q22 18 42 37t42 36q4 3 10 3t2 -7q-5 -10 -11.5 -19t-13.5 -17q-37 -44 -82 -79q-11 -8 -24.5 -17t-28.5 -15.5t-30.5 -7.5t-28.5 7q-11 7 -16.5 17.5t-6.5 22.5t1 24.5t5 24.5l-16 4t-16 7q-2 0 -2 1l-3 -7q-26 -58 -74 -100
q-8 -7 -18.5 -14t-21.5 -11t-22.5 -4t-21.5 7q-12 7 -15 19.5t-1 26t6.5 26.5t8.5 23q13 32 30 61t35 57q36 57 78.5 110t93.5 98q9 8 20.5 18.5t25 17.5t27.5 8.5t27 -7.5q10 -7 13.5 -17t2 -21.5t-6 -22t-9.5 -19.5q-31 -48 -74 -88t-87 -75zM24 300l-9 -15
q-11 -20 -22.5 -43t-12.5 -46q0 -10 6.5 -10t14.5 4t16 10t11 8q36 31 57 72q2 5 6 13t7 17q-7 9 -11 18l-4 8q-8 -6 -17 -11.5t-17 -10.5zM135 454q-22 -26 -42.5 -52.5t-39.5 -55.5q20 18 41 36t41 37q39 37 76 76q9 11 19 22.5t18 23.5q5 8 13 19t10 22q-7 -2 -13.5 -7
t-11.5 -9q-21 -17 -40 -34q-19 -19 -36.5 -38.5t-34.5 -39.5zM220 321q-2 -2 -4 -6q23 7 46.5 21t28.5 37q2 7 -1 8t-8 -1.5t-10.5 -6t-7.5 -4.5q-27 -22 -44 -48zM109 353q1 0 1 2l-1 -1v-1z" />
    <glyph glyph-name="o_n" unicode="on" horiz-adv-x="488" 
d="M130 414q2 0 6 0.5t6 -1.5q9 0 18 -3.5t14 -11.5q4 -8 6 -15q26 15 55 26.5t59 11.5q11 0 20 -4t14 -15q5 -14 -3.5 -29t-16.5 -26q-11 -17 -23.5 -31.5t-26.5 -28.5q8 7 16.5 13.5t17.5 12.5q12 10 24 19.5t25 18.5q11 8 23.5 15t26.5 7q15 1 20.5 -5.5t6 -16.5t-3 -21
t-7.5 -19q-8 -14 -16 -26t-17 -25q-1 -2 -8 -15.5t-12 -21.5l1 1q12 4 21 12q10 6 19 13.5t17 15.5q18 14 35 29.5t34 30.5l23 20q2 2 5 1t3 -5q1 -3 -1 -6t-3 -5q-23 -36 -54 -67q-16 -16 -32.5 -30.5t-35.5 -25.5q-12 -8 -28.5 -14.5t-30.5 4.5q-8 6 -8.5 15t2.5 19t8 19
t9 15q11 18 22.5 36.5t20.5 38.5l-15 -6q-18 -8 -31 -16q-16 -11 -31 -23t-29 -24q-14 -11 -26.5 -23t-26.5 -23q-3 -2 -7.5 -5.5t-9.5 -5.5t-10 -2.5t-9 3.5q-12 10 -2 27q8 14 19 27t22 25q3 4 15.5 19.5t26.5 32.5t25 31t10 14t-1 1q-5 -1 -9.5 -0.5t-9.5 -0.5l-29 -10
q-16 -7 -31.5 -14.5t-29.5 -15.5l-13 -7q-1 -1 -1 -3q-9 -30 -28 -57t-43 -49q-21 -20 -49.5 -38.5t-59.5 -18.5q-11 0 -21.5 4.5t-17.5 13.5q-8 13 -6.5 29t6.5 30q10 31 28.5 58.5t41.5 50.5q14 14 30.5 25.5t35.5 18.5l18 4t17 2zM94 333q-12 9 -13 19.5t4 21.5
q-9 -7 -16.5 -14t-15.5 -14q-23 -23 -43.5 -50.5t-28.5 -58.5q-5 -20 1.5 -26t18 -4.5t25 8.5t21.5 13q26 20 49 44t42 51l3 5q-13 -4 -25 -3.5t-22 8.5zM121 355q10 2 18.5 5.5t17.5 8.5v8q-2 15 -14.5 13.5t-21.5 -8.5q-3 -3 -6.5 -8.5t-5 -10t1 -7.5t10.5 -1z" />
    <glyph glyph-name="s_s" unicode="ss" horiz-adv-x="355" 
d="M-23 297q12 23 30 42t35 38q9 10 17.5 19.5t16.5 19.5q5 5 8.5 9t7.5 9t8 9.5t11 4.5q7 1 12 -3.5t6 -11.5q1 -5 -1 -10t-3 -10q-2 -8 -2 -16v-15v-9l33 19q9 6 20.5 13t24.5 12t26 6.5t24 -4.5q9 -4 14 -15t7 -23.5t2 -25.5v-22t-0.5 -18.5t-1.5 -18.5q30 10 56 21
q7 3 13.5 6.5t13.5 7.5q5 3 12.5 8.5t12.5 6.5q6 0 4.5 -5t-6.5 -12t-11 -12.5t-7 -6.5q-23 -22 -54 -34q-10 -5 -19.5 -8.5t-19.5 -7.5q-6 -30 -20 -58q-6 -11 -16.5 -22t-22.5 -19t-26 -12t-28 -2q-13 2 -22 11.5t-9 23.5q0 15 8 28t19 24q17 17 39 28.5t45 19.5
q3 22 3 46q0 14 -1 30t-8 30q-9 4 -18 -2q-9 -3 -17 -7l-16 -8q-14 -8 -27.5 -16.5t-26.5 -17.5l-2 -27q-2 -32 -14 -61.5t-38 -50.5q-11 -9 -23.5 -15.5t-27.5 -6.5q-17 1 -27 12.5t-12 27.5t4 30.5t16 27.5t22 24.5t24 20.5l45 33v26l-38 -36q-10 -10 -20.5 -19.5
t-21.5 -18.5q-5 -3 -10.5 -6.5t-10.5 -5.5q-3 -2 -9.5 -2.5t-2.5 7.5zM85 287q2 7 2.5 13t1.5 13q-26 -18 -46 -38q-12 -11 -24 -27t-12 -34q0 -10 5.5 -12t12.5 0.5t14 7.5t10 9q26 28 36 68zM172 170q23 9 36 31t19 45q-10 -4 -19.5 -8t-19.5 -9q-11 -6 -23 -14t-17 -22
q-7 -14 1.5 -21t22.5 -2z" />
    <glyph glyph-name="o_e" unicode="oe" horiz-adv-x="373" 
d="M100 399q3 -1 7 -5q8 3 16.5 1.5t17.5 -10.5q14 -16 10 -39.5t-14 -44.5q6 -1 12 -1h12q28 51 72 86q8 6 20.5 13.5t26 11.5t25.5 2.5t20 -14.5t4.5 -26t-12.5 -24.5t-21.5 -21t-21.5 -15.5q-20 -12 -41 -20.5t-44 -12.5q-6 -11 -11.5 -24t-7.5 -23.5t1 -17.5t14 -5
q14 1 28 7t26 14q16 9 30.5 18.5t28.5 20.5q23 17 44.5 36t43.5 37q9 7 10.5 1t-3.5 -12q-14 -24 -35 -45t-43 -40t-48 -36q-11 -7 -24 -15t-27.5 -13.5t-29.5 -7t-28 5.5t-18 18.5t-5 24.5t4 27t9 26q-5 0 -11 0.5t-12 1.5l-3 -5q-14 -26 -36.5 -47t-49.5 -34
q-12 -6 -25.5 -7.5t-24 2.5t-17.5 13.5t-7 26.5q0 31 14.5 61.5t32.5 55.5q9 11 19 20.5t21 17.5q10 7 24.5 14.5t26.5 2.5zM73 340q0 5 1 10t3 10q-4 -4 -6 -5q-12 -8 -23 -19t-19 -23q-20 -26 -33 -58q-1 -3 -2.5 -9t-3 -12.5t-1.5 -12t3 -7.5q9 -7 20 -2t19 10
q14 9 25.5 20.5t21.5 24.5q5 6 9 11.5t9 12.5q-24 16 -23 49zM246 355q-11 -11 -20.5 -22t-17.5 -23q11 4 21.5 9t19.5 10q13 8 25.5 17.5t21.5 21.5q4 5 6 13t-9 6q-14 -2 -26 -12t-21 -20zM97 345q-3 -21 12 -33l3 7q2 3 5.5 10t6 14.5t2.5 15t-4 11.5q-5 4 -9 2t-7.5 -7
t-6 -11t-2.5 -9z" />
    <glyph glyph-name=".notdef" horiz-adv-x="190" 
 />
    <glyph glyph-name="NULL" horiz-adv-x="0" 
 />
    <glyph glyph-name="NULL" horiz-adv-x="0" 
 />
    <glyph glyph-name="nonmarkingreturn" unicode="&#xd;" horiz-adv-x="190" 
 />
    <glyph glyph-name="space" unicode=" " horiz-adv-x="190" 
 />
    <glyph glyph-name="e_alt" horiz-adv-x="216" 
d="M22 238q-8 -2 -15.5 -3.5t-14.5 1.5q1 -8 6 -16q8 -11 23 -9.5t31 9t30 17t21 14.5q27 17 53.5 35t51.5 38q5 4 13.5 11.5t15.5 9.5q4 2 6 -1t1 -7q0 -4 -4 -9t-7 -9q-17 -25 -39 -44.5t-47 -36.5q-26 -17 -53 -33t-57 -21q-19 -5 -39.5 1t-28.5 26q-9 20 -6.5 40.5
t11.5 39.5t23 35.5t29 30.5q9 9 25 21.5t34 22t35.5 11t30.5 -11.5q13 -15 9.5 -32.5t-15 -34.5t-26.5 -31.5t-25 -22.5q-16 -13 -34 -24t-38 -17zM33 322q-11 -11 -23 -28t-17 -35q5 2 11 4t12 5q13 6 25 14t25 16q25 19 44 42q5 7 13.5 18t5.5 21l-1 1q-1 0 -1 1v-1
q-13 0 -26 -5.5t-25 -14t-23 -19t-20 -19.5z" />
    <glyph glyph-name="f_alt" horiz-adv-x="201" 
d="M-123 184q7 1 13.5 2t13.5 3l36 54q37 57 77.5 111.5t86.5 106.5q22 24 44.5 47t46.5 45q19 19 38 33t48 12q6 0 9.5 -5.5t-1.5 -11.5q-15 -17 -32 -33l-34 -32q-23 -23 -43.5 -46t-40.5 -47q-44 -51 -84 -104.5t-78 -108.5l-2 -4q27 9 52.5 22t51.5 27t50.5 29t48.5 32
q11 7 21 14t21 14q6 4 7 2t0.5 -6t-2.5 -8.5t-3 -5.5q-15 -26 -35.5 -47t-45 -38.5t-51.5 -31t-54 -23.5q-22 -8 -45 -14.5t-46 -9.5q-30 -48 -58 -96t-54 -98q-17 -31 -31.5 -62.5t-23.5 -65.5q-1 -2 -3 -9t-3.5 -15.5t-1 -15t3.5 -6.5q12 -2 25 9t21 19q42 40 71.5 95
t40.5 112q4 23 2.5 46t-6.5 46q-2 5 3 7.5t8 -2.5q2 -2 3 -5t3 -5q13 -23 16 -46q12 -56 -5 -114t-51 -103q-37 -47 -85 -78q-15 -10 -33.5 -14.5t-34.5 6.5q-11 8 -14 21t-1.5 28t5.5 29.5t7 25.5q9 33 22.5 65.5t27.5 64.5q40 83 87 158q-2 0 -4 0.5t-4 0.5q-6 0 -9 3.5
t-3 8t2.5 8.5t8.5 4z" />
    <glyph glyph-name="g_alt" horiz-adv-x="258" 
d="M150 378q-23 -5 -44 -15.5t-40 -24.5q-24 -17 -45 -40.5t-31 -51.5q-2 -5 -3 -11.5t1 -11.5q2 -2 8 -0.5t8 2.5q16 4 30 12.5t27 17.5q14 9 27.5 19t27.5 20l12 9q0 1 2 3q7 10 14 21.5t17 18.5q11 7 20.5 0.5t7.5 -18.5q-2 -13 -12 -21.5t-20 -15.5l-10 -9l-3 -6
q-8 -15 -14.5 -31t-15.5 -31q-5 -8 -9.5 -16.5t-9.5 -16.5q35 35 70.5 69t73.5 66q10 8 19 15t19 14q3 1 6 0t2 -5q0 -3 -3.5 -7t-5.5 -6q-20 -25 -41 -47.5t-43 -45.5q-44 -44 -86 -87t-84 -88q-31 -52 -64 -102.5t-68 -99.5q-20 -28 -40.5 -55.5t-44.5 -51.5
q-10 -10 -20.5 -19t-24.5 -14q-12 -2 -22.5 3t-11.5 19q-1 13 5.5 25.5t13.5 23.5q9 15 19.5 29t21.5 28q21 26 43 52t45 52q28 31 55.5 60.5t55.5 59.5q19 30 37.5 60t36.5 61q5 9 10.5 18t11.5 18q-20 -14 -41.5 -26t-44.5 -14q-25 -2 -37 16t-8 42q6 29 24.5 55.5
t40.5 46.5q20 19 44.5 33t50.5 21q8 2 19.5 4t20.5 0q12 -1 12 -12.5t-12 -13.5zM-168 -163q24 32 44 62q-17 -19 -33 -38t-32 -39l-29 -39q-2 -4 -6.5 -10t-8.5 -13q6 5 11.5 11.5t9.5 11.5q12 13 22.5 26.5t21.5 27.5z" />
    <glyph glyph-name="h_alt" horiz-adv-x="308" 
d="M58 343q-2 -2 -5 -5.5t-7 -5.5l-28 -62l-15 -38l19 19q29 30 59 59q14 14 28 27t29 26q13 10 28 19.5t33 11.5q9 1 18.5 -3t13.5 -13q8 -14 2 -28.5t-13 -26.5q-3 -5 -15.5 -22t-25.5 -35.5t-21 -35t-3 -19.5l1 -1q1 -1 9 2.5t10 5.5q12 6 21.5 14t19.5 16q19 17 36.5 34
t36.5 34q4 4 12 10.5t14 7.5t7 -1.5t0 -6.5t-3.5 -8t-3.5 -7q-11 -18 -27.5 -34t-31.5 -30q-17 -15 -34.5 -29t-37.5 -25q-13 -7 -27.5 -9t-24.5 11q-6 9 -6 20t3.5 22.5t9 21.5t9.5 18l27 47l19 29q-11 -3 -20.5 -11.5t-16.5 -13.5q-14 -13 -27 -25t-26 -25
q-23 -23 -46 -48t-48 -46q-6 -6 -15 -11.5t-17.5 -7t-16 2t-10.5 16.5q-2 13 2 26.5t8 24.5q5 17 11.5 33t13.5 33q29 64 62 125t71 120q35 53 76.5 105.5t96.5 86.5q8 5 17.5 10t19.5 8t20 2.5t19 -6.5q11 -6 14 -16t1 -20.5t-7 -21.5t-10 -19q-26 -42 -59 -79.5t-66 -73.5
q-30 -32 -60.5 -63.5t-62.5 -61.5zM142 505q-33 -54 -61 -107q28 28 55.5 56t54.5 57q23 25 45.5 51.5t45.5 52.5l43 57q0 1 3.5 7t8 14t9 15.5t7.5 11.5h-1q-5 0 -8 -1t-7 -3q-9 -4 -17.5 -8.5t-16.5 -10.5q-17 -12 -31.5 -26t-28.5 -29q-29 -32 -53.5 -66.5t-47.5 -70.5z
M356 720q1 -1 2 0h-2z" />
    <glyph glyph-name="i_alt" horiz-adv-x="130" 
d="M100 395q-14 -20 -29 -39.5t-29 -39.5q-8 -13 -16.5 -26t-16.5 -27q-4 -7 -8 -13.5t-6 -13.5q-2 -5 -5 -11.5t-4 -11.5q4 -1 15.5 7.5t25 19t24.5 20t13 11.5l40 38t43 35q4 4 9 0q2 -4 0 -7l-4 -6q-8 -11 -16.5 -22.5t-18.5 -23.5q-19 -23 -41 -46.5t-47 -41.5
q-7 -5 -16.5 -10t-20 -7.5t-20 -0.5t-16.5 12q-8 11 -7 24.5t6 28t12 27.5t12 23q28 54 66 102q15 17 37 16q3 0 7.5 -1t8 -2.5t5 -5t-2.5 -8.5zM103 452q-3 11 6.5 23t17.5 18q11 9 25 8t18 -18q4 -15 -6 -24t-21 -17q-11 -7 -23 -6t-17 16z" />
    <glyph glyph-name="j_alt" horiz-adv-x="138" 
d="M77 396q-25 -48 -47.5 -95t-44.5 -95l28 26q46 43 97 79q11 8 22 15.5t22 14.5q8 5 12 2t-3 -11q-42 -45 -85.5 -86t-87.5 -84l-48 -49q-17 -37 -34.5 -73t-36.5 -72q-15 -31 -31.5 -61.5t-33.5 -60.5q-17 -29 -35.5 -56.5t-42.5 -52.5q-8 -8 -18.5 -16t-22 -12.5
t-23.5 -4t-22 10.5q-11 10 -12.5 24.5t3 30t11.5 29.5l12 24q32 60 76 113.5t89 104.5q20 23 41 45t43 44q20 42 39 82t39 82l21 45q6 11 10.5 22.5t12.5 20.5q6 7 15 12t17 10q2 2 4.5 3.5t4.5 1.5q6 1 9 -3.5t0 -9.5zM-209 -104q17 31 32.5 62t30.5 62l-52 -59
q-24 -28 -46.5 -56t-42.5 -59q-19 -27 -34 -58q-1 -2 -3.5 -10t-5.5 -16t-4.5 -14.5t0.5 -6.5h5q7 0 15 6.5t13 11.5q9 8 16.5 18t15.5 20q17 24 31.5 48.5t28.5 50.5zM84 472q-5 14 3 29t19 24q4 4 11.5 8t15.5 6t15 0t10 -11q4 -12 -6 -26.5t-24 -24t-27.5 -12.5t-16.5 7z
" />
    <glyph glyph-name="k_alt" horiz-adv-x="288" 
d="M66 372l-24 -35l-10 -15q15 16 30.5 31.5t31.5 29.5q19 17 39 35.5t43 29.5q17 8 37.5 7.5t31.5 -19.5q11 -17 5.5 -33.5t-16.5 -31.5q-32 -39 -75 -67t-88 -51q2 -11 7 -20t14 -15q12 -9 27 -6.5t27 8.5q25 11 46.5 28.5t42.5 34.5q8 8 16.5 15.5t17.5 15.5l23 21
q1 1 4.5 4t7 5t6.5 2.5t4 -4.5q0 -4 -3 -9.5t-5 -7.5l-15 -25q-11 -14 -23 -27t-25 -26q-24 -20 -52 -39t-60 -24q-35 -7 -56.5 11.5t-34.5 49.5q-4 10 -5 18.5t10 16.5q14 8 28.5 15t28.5 15q27 17 54 36.5t47 45.5q4 4 9 13.5t-4 11.5q-14 2 -29.5 -9t-26.5 -19
q-28 -20 -53.5 -43t-50.5 -47q-19 -18 -36.5 -36.5t-34.5 -36.5q-5 -5 -8.5 -9.5t-8.5 -8.5q-3 -3 -8 -10t-11 -13.5t-12 -10t-12 0.5q-5 4 -3.5 11t5.5 14.5t9 14.5t7 10l39 64q19 31 38.5 61.5t39.5 60.5q38 58 78 114.5t85 109.5q7 8 17.5 20.5t23 23t26 16t26.5 -0.5
q17 -8 15.5 -25.5t-12 -37t-24 -37t-19.5 -24.5q-28 -35 -58.5 -67t-63.5 -63q-17 -16 -33.5 -30t-34.5 -28zM130 462q-6 -8 -8 -12l14 16q23 24 43.5 48.5t41.5 50.5q11 12 20 24.5t18 26.5q5 7 9 13.5t7 13.5q0 1 0.5 1t0.5 1q-5 -4 -9 -9t-9 -10q-12 -13 -23.5 -26
t-22.5 -27q-21 -27 -41.5 -55t-40.5 -56z" />
    <glyph glyph-name="l_alt" horiz-adv-x="184" 
d="M75 349q-22 -19 -46 -34q-4 -10 -7.5 -19.5t-6.5 -19.5q-5 -13 -8.5 -28t0.5 -29q2 -7 6.5 -9t9.5 -1.5t10.5 3t10.5 4.5q29 14 53 36t47 43q10 10 20 19l20 18q2 1 6.5 5t8.5 6t6.5 1.5t1.5 -7.5q-2 -8 -8.5 -17t-11.5 -15q-18 -24 -39 -45q-21 -22 -45.5 -42t-53.5 -32
q-12 -5 -26 -7.5t-26 5.5t-16.5 20.5t-4.5 26.5q-1 32 10.5 64t25.5 60q14 32 30 61.5t34 58.5q35 59 75 115t88 105q9 8 20.5 19.5t25 20t27.5 12.5t27 -3q9 -4 13 -12t5 -17.5t0 -19.5t-4 -17q-12 -32 -35 -60.5t-44 -55.5q-24 -29 -49 -57t-51 -56q-24 -26 -48.5 -51.5
t-50.5 -48.5zM149 517q-26 -37 -51.5 -75.5t-46.5 -80.5q26 30 52.5 59.5t52.5 60.5q23 27 46.5 54t45.5 56q11 14 21.5 28t20.5 29q7 10 15.5 23t9.5 27q-8 -4 -16.5 -11t-13.5 -12q-14 -11 -25.5 -23.5t-23.5 -26.5q-23 -26 -45 -53t-42 -55z" />
    <glyph glyph-name="m_alt" horiz-adv-x="428" 
d="M-25 291q4 8 18 29.5t31.5 41.5t36 30t30.5 -4q9 -12 4 -27q-5 -16 -13 -30.5t-15 -29.5l-11 -28l29 33q14 17 29 32.5t32 29.5q6 5 14 11.5t16.5 11t17.5 6t18 -4.5q11 -7 13.5 -18t0 -23t-8 -24t-9.5 -20l-4 -7l27 32q13 15 26 29t28 28q12 10 26 20t31 10
q15 0 21.5 -8.5t8 -20t-1 -24.5t-6.5 -22q-13 -35 -36 -67q-7 -9 -13.5 -18.5t-12.5 -20.5q-5 -7 -11.5 -17t-6.5 -19q6 0 12 5t11 8q8 6 15 12t14 13l49 51q12 12 24.5 23.5t26.5 22.5q1 1 4 3.5t6 4t5.5 0.5t2.5 -5q0 -6 -7.5 -15t-10.5 -14q-41 -56 -94 -106
q-6 -5 -16 -13t-20.5 -13.5t-21 -7t-19.5 6.5q-10 9 -11 21t2.5 24t9.5 24t11 21q8 16 16.5 31.5t16.5 30.5q5 8 8.5 15l7.5 15q2 4 3.5 10.5t3.5 11.5q-4 -2 -8 -4.5t-6 -4.5q-8 -5 -15 -10.5t-14 -10.5q-14 -13 -27.5 -26.5l-27.5 -27.5q-13 -14 -25 -28t-24 -29
q-6 -8 -12 -15t-11 -15q-5 -6 -9.5 -14.5t-11.5 -11.5q-8 -4 -12 -0.5t-5.5 10.5t-1 14t1.5 11q4 18 11.5 34t15.5 32q5 11 10.5 20.5t10.5 19.5l6 13q2 4 5 10.5t5 11.5q-4 -2 -8 -4.5t-6 -4.5q-10 -7 -18 -14t-16 -15q-29 -29 -56 -62q-14 -17 -26 -33.5t-23 -34.5
q-4 -4 -10 -5.5t-11 0t-8 6t-2 11.5q2 18 12 36.5t17 34.5l15 37q3 8 7 17.5t6 19.5q-8 -6 -15 -13.5t-14 -13.5q-8 -8 -16 -15t-18 -13q-3 -2 -8.5 -6.5t-8.5 -5.5q-4 -2 -6.5 1t-0.5 7zM76 360q-1 0 -1 -1z" />
    <glyph glyph-name="n_alt" horiz-adv-x="345" 
d="M-31 291q13 19 27.5 36t31.5 34q9 8 19 15.5t21 12.5q8 2 18 1.5t15 -8.5q8 -17 -1.5 -33.5t-18.5 -30.5q-8 -13 -15 -24.5t-15 -23.5q-1 -2 -2 -3.5t-2 -3.5l12 11q15 14 29.5 27t29.5 26q14 13 29 25.5t30 23.5q13 10 27 19t30 12q6 2 13 0.5t12 -6.5q11 -9 9.5 -23.5
t-5.5 -25.5q-7 -18 -15.5 -35t-16.5 -34q-3 -8 -7 -16.5t-7 -17.5l-7 -16q8 2 15 6.5t13 7.5l22 16l22 16q17 14 34.5 29t36.5 29q1 1 4 3.5t6 4t5.5 1t2.5 -5.5q0 -4 -4.5 -8.5t-6.5 -7.5q-30 -37 -61 -70q-9 -9 -24.5 -24t-33 -26.5t-35.5 -14t-31 13.5q-7 9 -7.5 19.5
t2.5 22t8 22t9 18.5q10 20 22.5 40.5t19.5 42.5q-2 0 -2.5 -0.5t-1.5 -0.5q-8 -4 -14.5 -8t-13.5 -9l-37 -27q-9 -7 -17 -13.5t-16 -14.5q-21 -17 -40.5 -36.5t-40.5 -37.5q-4 -3 -10.5 -8t-13 -8t-13.5 -3t-12 7q-6 7 -4.5 16t6 18.5t10.5 18.5l10 15l30 48q5 8 11 16.5
t11 17.5q-1 -1 -2 -1t-1 -1q-5 -2 -9.5 -5.5t-9.5 -7.5q-18 -13 -35 -29q-8 -7 -15.5 -14t-16.5 -13q0 -1 -2 -2.5t-3 -2.5q-4 -2 -7 1t-1 7z" />
    <glyph glyph-name="o_alt" horiz-adv-x="245" 
d="M130 388q-2 1 -9 -3t-9 -5q-7 -3 -13 -5.5t-11 -7.5q-14 -9 -25 -21t-20 -26q-6 -9 -14 -24.5t-11.5 -32t-0.5 -31t18 -21.5q13 -6 30 0.5t33.5 21t32 33.5t26.5 38q-23 13 -27.5 39t17.5 47q14 13 31 10.5t25 -18.5q6 -12 6.5 -26t-3.5 -28h3q14 0 27 3.5t26 8.5
q2 1 5.5 3t6.5 2q7 3 5.5 -3.5t-3.5 -8.5q-16 -17 -37.5 -26.5t-44.5 -9.5q-4 -8 -8 -15t-8 -13q-16 -26 -37.5 -47.5t-49.5 -34.5q-30 -13 -60.5 -5.5t-43.5 39.5q-8 20 -6.5 41.5t8.5 42.5t19 39.5t27 32.5q14 14 33.5 25.5t39.5 12.5q7 0 12.5 -2t11.5 -4q9 -2 8 -11.5
t-10 -9.5zM161 340q2 -5 10 -8q6 15 7.5 26.5t-5.5 14.5q-2 0 -2 1q-5 0 -8 -4t-4 -10t-0.5 -11.5t2.5 -8.5z" />
    <glyph glyph-name="p_alt" horiz-adv-x="288" 
d="M-32 291q17 23 35.5 43.5t39.5 38.5q14 14 29.5 20.5t29.5 -10.5q4 -6 2 -13l-4 -14l-2 -4l8 7q10 9 21.5 19.5t25 19.5t27.5 14.5t29 4.5q18 -2 24 -12.5t5.5 -24.5t-6 -28.5t-10.5 -24.5q-14 -28 -32 -51.5t-41 -43.5q38 17 71.5 42.5t62.5 51.5q5 4 11.5 11t12.5 9
q4 1 5 -1.5t-0.5 -6t-3.5 -6.5t-3 -4q-24 -29 -50 -52q-26 -22 -53.5 -40.5t-57.5 -32.5q-6 -2 -24.5 -8.5t-38.5 -10t-35.5 -2.5t-15.5 14q0 6 4 9t10 5.5t12 4t10 3.5q15 8 28.5 18.5t26.5 22.5q12 11 22.5 24t21.5 26q11 14 21 28t17 31q2 4 4.5 10t-0.5 10
q-5 2 -12 -0.5t-12 -5.5q-15 -7 -28 -17.5t-26 -21.5q-16 -15 -31.5 -30t-30.5 -32q-11 -25 -23.5 -48.5t-24.5 -48.5q-32 -62 -65 -123t-68 -122q-18 -31 -36 -61t-38 -59q-19 -30 -37 -55q-10 -13 -19.5 -26t-22.5 -22q-13 -8 -29 -11t-24 12q-4 7 -2 18t6.5 22.5
t10.5 21.5t9 16q32 62 69 120.5t76 115.5q39 59 80 115.5t85 111.5l6 8l20 36q7 14 15 28.5t15 29.5l-12 -10l-36 -31l-35 -27q-2 -2 -6.5 -5.5t-8.5 -4.5q-3 0 -4.5 3t0.5 6zM-100 47q13 21 25 42t24 43q-15 -21 -29 -42t-28 -41q-27 -40 -53.5 -80t-51.5 -82
q-13 -20 -24.5 -40.5t-22.5 -40.5l-19 -38q-2 -4 -5 -9t-5 -11l7 11q8 8 15 18l14 20q13 20 25.5 39t24.5 39q27 43 52.5 85.5t50.5 86.5zM103 382q-1 0 -1 1z" />
    <glyph glyph-name="q_alt" horiz-adv-x="296" 
d="M-267 0q15 23 40 37t51 22q31 11 63.5 16.5t64.5 9.5l48 6q28 41 55.5 80t53.5 80l-17 -12q-17 -11 -36 -22t-40 -13q-15 -2 -27.5 6t-16.5 23q-6 18 0 38t14 37q19 35 52 63.5t73 35.5q20 3 40 0t37 -17q4 -3 8 -8t6 -10q2 -8 -4.5 -14.5t-14.5 -1.5q-15 9 -30.5 10.5
t-30.5 -3t-29 -13t-26 -18.5q-26 -20 -45 -49q-5 -8 -11 -20.5t-3 -23.5h-1q1 -1 2 -1h15q8 2 14.5 4.5t13.5 5.5q14 7 26.5 15t24.5 17l23 16q4 4 9.5 8t10.5 6q11 2 14.5 -6.5t-0.5 -16.5q-19 -32 -38.5 -64t-39.5 -64l-40 -64l24 2t24 1q48 62 97.5 121t107.5 111
q4 3 9 9t10 7q5 0 5.5 -2.5t-1 -5.5t-3.5 -6t-3 -4l-44 -58l-31 -41l-28 -36l-28 -36l-45 -58q23 -1 44.5 -2t44.5 -3q30 -5 62 -11t59 -21q7 -3 14 -12t-6 -16q-8 -3 -19 2.5t-18 7.5q-51 14 -105.5 14.5t-108.5 -4.5q-17 -23 -33.5 -45.5t-33.5 -45.5l-82 -114
q-10 -14 -19.5 -27.5t-20.5 -26.5q-8 -11 -18.5 -25t-24.5 -19q-11 -3 -17.5 1.5t-9.5 13t-3.5 18.5t1.5 18q3 22 12 41.5t20 38.5q20 42 43.5 80.5t48.5 76.5q-28 -5 -56 -10.5t-56 -12.5q-45 -11 -86 -28q-6 -2 -15 -7.5t-16 -4.5q-10 2 -9.5 10t5.5 14zM50 45l3 4
q-11 -1 -20.5 -1.5t-20.5 -2.5l-32 -55q-16 -28 -31 -55.5t-29 -56.5q-5 -11 -11 -22t-11 -23l36 50q8 11 16 22.5t16 22.5z" />
    <glyph glyph-name="r_alt" horiz-adv-x="208" 
d="M-26 291q9 17 21 33l24 32q5 7 9.5 14t9.5 14q-3 2 -4 7q-7 16 -4 32q2 16 15.5 27t30.5 5q11 -5 15 -12.5t2.5 -16.5t-6.5 -19t-11 -20q12 0 28.5 6t23.5 8q8 3 16 0.5t13 -8.5t5 -14t-7 -15q-19 -23 -38.5 -44t-35.5 -46q-7 -11 -15 -25.5t-6 -27.5q0 -4 6 -2t13.5 5.5
t14 8t8.5 5.5q26 19 49.5 40.5t47.5 43.5q4 4 15 14.5t17 8.5q4 -2 2.5 -7t-4.5 -10t-7 -10t-5 -7q-18 -25 -41.5 -47.5t-46.5 -42.5q-8 -7 -19 -15.5t-23.5 -14.5t-25 -6.5t-22.5 8.5q-12 10 -14.5 23.5t1.5 28.5t11 29t13 25q8 14 17.5 27t19.5 26q-22 -2 -32 7l-5 -5
q-11 -14 -22 -26.5t-24 -24.5l-20 -18q-4 -2 -9 -1t-1 7zM63 424q-1 0 0 -1v1z" />
    <glyph glyph-name="s_alt" 
d="M-29 291q8 17 22 32t27 30l35 40l11.5 11.5t11.5 14.5q2 11 7.5 19t17.5 6q13 -3 14.5 -12t-2.5 -18q-2 -13 -1 -26.5t0 -24.5q0 -35 -3 -69l-3 -14q25 8 46 19q13 7 24 15.5t24 16.5l4.5 4.5t8 6t8.5 3t4 -4.5q1 -9 -9.5 -20.5t-15.5 -16.5q-21 -21 -47.5 -33.5
t-53.5 -20.5q-6 -20 -15.5 -38t-26.5 -30q-17 -14 -41 -22t-45 2q-16 7 -22 18.5t-4.5 24.5t9.5 24.5t21 18.5q20 10 41.5 14t43.5 8q7 23 9 48t4 48q-11 -11 -23 -21.5t-23 -21.5q-9 -8 -17.5 -15.5t-17.5 -14.5l-5 -3t-9.5 -4.5t-8 -0.5t-0.5 7zM21 205q16 11 28 31
q-2 0 -4.5 -0.5t-4.5 -0.5q-13 -3 -25.5 -5.5t-23.5 -8.5q-3 -2 -7 -5t-6.5 -7.5t-2.5 -8.5t6 -7q10 -5 21.5 1t18.5 11zM82 428q-3 0 -1 -4q0 3 1 4z" />
    <glyph glyph-name="t_alt" horiz-adv-x="179" 
d="M-289 521q26 8 52.5 11.5t52.5 8.5q33 5 66 8.5t65 7.5q45 5 89.5 10t89.5 9q13 18 27 35.5t31 31.5q15 11 34 23.5t39 14.5q13 2 24 -3.5t9 -21.5q-1 -19 -12 -37t-23 -34q62 3 123 4t124 0q17 0 32 -0.5t31 -1.5q14 -1 27.5 -2.5t24.5 -12.5q5 -4 10.5 -11t-0.5 -12
q-5 -5 -17 -3t-18 2q-91 5 -180.5 5.5t-180.5 -3.5q-26 -36 -54.5 -70.5t-58.5 -68.5q-16 -17 -32 -34.5t-34 -34.5l-3 -3q0 -1 -0.5 -1.5t-0.5 -1.5q-7 -17 -13 -33.5t-11 -34.5q-2 -11 -5.5 -26t2.5 -25q11 0 24 9t22 15q13 10 25 20t25 21q3 2 14 12.5t24.5 20.5
t24.5 16.5t14 1.5q2 -5 -2.5 -11.5t-6.5 -10.5q-8 -13 -18.5 -24t-21.5 -22q-20 -20 -43.5 -40.5t-49.5 -34.5q-19 -11 -38 -9.5t-28 23.5q-6 14 -6.5 30t2.5 32.5t7.5 32t9.5 28.5q38 114 105 217l-121 -11l-60 -7q-14 -2 -31 -2t-29 -7q-5 -3 -9 -6t-10 -5q-16 -4 -29 -5
q-14 -2 -28 -2t-28 -2q-11 -1 -21.5 -1.5t-21.5 -0.5q-12 0 -14 11.5t9 14.5zM86 419q25 28 48 57l28 36l28 36h-12.5t-12.5 -1q-14 -20 -27 -40.5t-26 -41.5zM249 638q-17 -10 -32 -26t-27 -31q6 0 12 0.5t12 0.5l15 24q5 7 10 15.5t10 16.5zM255 657q-1 -1 -1 -3
q0 1 0.5 1.5t0.5 1.5z" />
    <glyph glyph-name="u_alt" horiz-adv-x="339" 
d="M100 401q-4 -13 -10 -24t-14 -22q-9 -13 -17.5 -25.5t-16.5 -25.5t-14.5 -25.5t-11.5 -26.5q-3 -8 -6 -15.5t-5 -15.5q-1 -2 -2 -7.5t0 -8.5q14 0 26.5 5t24.5 13.5t23 19t21 19.5q49 46 92 103q8 10 15 22t16 20q6 4 12 3.5t10.5 -4t7 -9.5t-0.5 -13q-2 -7 -7.5 -13.5
t-10.5 -13.5l-18 -29q-9 -15 -17 -31t-14 -33q-1 -3 -3.5 -10t-4.5 -15t-2 -14.5t4 -7.5q9 2 16.5 3.5t15.5 7.5q28 17 52.5 39.5t49.5 43.5q13 9 25 17.5t26 15.5q7 1 7 -3t-3.5 -10t-8.5 -11.5t-7 -8.5q-20 -26 -42.5 -49.5t-47.5 -44.5q-17 -13 -36 -24t-40 -13
q-20 -2 -32.5 11.5t-13.5 33.5q-1 8 0 16t3 16l-33 -32q-19 -17 -40.5 -34t-46.5 -25q-21 -6 -38.5 2.5t-22.5 31.5q-3 24 4.5 49t18.5 47q21 49 56 91q8 9 16.5 16t20.5 11q7 2 17 1t7 -14z" />
    <glyph glyph-name="v_alt" horiz-adv-x="354" 
d="M-30 292q17 23 36.5 45.5t41.5 41.5q6 5 14 12t17.5 11.5t19 5t17.5 -6.5q7 -6 8.5 -16t0 -20.5t-4.5 -20.5t-5 -17l-18 -65q-2 -8 -5 -17.5t-5 -18.5q8 5 15 12t14 13q28 24 53 50q12 14 24.5 27.5t23.5 27.5l16 23q0 10 3 21l4 12t9 8q7 3 13.5 0t9.5 -9q3 -8 1 -18
t-7 -18q2 -26 22 -43t49 -8q14 5 23 11q3 2 7.5 6t8.5 5q7 0 4.5 -5.5t-8 -12.5t-12 -13t-7.5 -7q-29 -17 -60.5 -8.5t-48.5 37.5q-3 -5 -6.5 -9.5t-7.5 -9.5q-20 -26 -42 -49t-47 -44q-7 -6 -15.5 -14t-18 -15t-20 -11t-20.5 -2q-14 2 -17 13t-1.5 25t6 27.5t6.5 21.5
q9 28 15 57q2 8 4.5 17.5t4.5 18.5q-6 -2 -5 -2l-26 -18q-11 -8 -22.5 -17t-22.5 -18q-5 -5 -10.5 -9.5t-12.5 -8.5q-1 -3 -7 -7q-4 -4 -8 0t-1 9z" />
    <glyph glyph-name="w_alt" horiz-adv-x="420" 
d="M139 405q-20 -21 -44 -37.5t-44 -39.5q-17 -20 -33.5 -47t-14.5 -54q1 -12 13.5 -12t28 6t29.5 14.5t19 11.5q25 15 48 34t43 40q2 2 3 2.5t2 2.5q10 14 20.5 22t18.5 -3q4 -9 -3 -18q1 -1 -2 -4l-3 -4q-7 -9 -15 -22t-13.5 -27.5t-7.5 -29t4 -26.5q2 -5 7.5 -4.5
t11.5 3.5t11.5 6t7.5 5q13 8 23 19t21 22q10 12 18.5 24.5t16.5 26.5q4 7 8 13.5t7 14.5l6 11q-2 4 -2 7q-4 11 2 21t20 8t17.5 -12t1.5 -23q12 -13 26 -18q16 -4 29 -1q6 0 14.5 4.5t14.5 4.5q9 -2 3.5 -8t-7.5 -8q-11 -9 -25 -14q-15 -6 -32 -4.5t-31 10.5q-2 0 -2 1
q-1 -1 -1 -2q-14 -29 -33.5 -55t-43.5 -46q-17 -17 -40 -31t-49 -12q-13 1 -20.5 8.5t-10.5 18t-3 23t2 24.5q-11 -10 -23 -18.5t-23 -16.5q-12 -8 -29 -18t-35.5 -15.5t-36 -5t-31.5 13.5q-15 14 -14.5 36.5t5.5 40.5q6 23 18 42.5t26 36.5q14 19 32.5 35.5t38.5 27.5
q9 6 20 9t22 3q6 0 13.5 -4.5t-0.5 -12.5z" />
    <glyph glyph-name="x_alt" horiz-adv-x="315" 
d="M-115 54q1 10 5.5 18.5t11.5 16.5q9 12 19.5 24t20.5 25q23 26 46.5 50.5t48.5 48.5l35 35t37 35q1 14 1.5 26t-0.5 22q-2 16 -10.5 22.5t-22.5 -4.5q-12 -8 -22 -18.5t-21 -20.5q-10 -10 -20.5 -19t-21.5 -19q-4 -3 -7.5 -6t-7.5 -7q-5 -2 -9 0.5t0 7.5q15 19 30.5 38
t32.5 37q8 9 19 19.5t23 17t25 6.5t26 -10q12 -10 18 -24.5t9 -30.5q47 40 92 77q26 22 52.5 43t56.5 38q11 7 23 15t25 10q7 1 19.5 -1.5t7.5 -13.5q-2 -10 -13.5 -17t-19.5 -12q-14 -8 -28 -17.5t-28 -19.5q-27 -19 -54.5 -38.5t-53.5 -40.5q-20 -16 -38.5 -31.5
t-36.5 -32.5v-12t1 -11q1 -14 1 -30t8 -27q4 -5 10.5 -3.5t13.5 6t13 9.5t9 8q26 20 49.5 41t48.5 41q5 4 12.5 12t13.5 9q6 0 5 -4t-4.5 -9.5t-7.5 -10t-4 -5.5q-19 -23 -38 -45.5t-40 -43.5q-8 -9 -17.5 -18.5t-20.5 -17t-23 -11.5t-25 -1q-28 5 -38 29t-12 53l-79 -75
q-21 -22 -42.5 -43t-42.5 -44q-10 -11 -19 -23t-20 -20q-1 -1 -4.5 -3.5t-7.5 -4t-7 -1t-3 5.5z" />
    <glyph glyph-name="y_alt" horiz-adv-x="300" 
d="M103 396q-19 -18 -34.5 -38.5t-29.5 -43.5q-16 -24 -26 -47q-2 -5 -4 -10.5t-4 -11.5q-1 -2 -0.5 -8.5t-0.5 -7.5h1q3 -2 8 0t10.5 5t10.5 6t7 5q15 9 28 20.5t26 22.5q17 16 33 30.5t33 31.5l38 38q11 10 21.5 21.5t23.5 18.5q3 1 8.5 4t10.5 4t9 -0.5t4 -8.5
q0 -5 -3 -11t-5 -11q-3 -8 -6.5 -16.5t-8.5 -16.5q-16 -31 -33.5 -60.5t-35.5 -59.5l-18 -29q25 19 49 38.5t48 39.5q13 11 26 21.5t27 22.5q2 1 6.5 -1t0.5 -7l-26 -28q-24 -26 -50 -48.5t-52 -45.5l-72 -60l-46 -70t-47 -70q-40 -56 -81.5 -109.5t-89.5 -102.5
q-22 -21 -47 -42t-54 -31q-16 -5 -30.5 -2.5t-25 11t-15 22t0.5 30.5q8 29 30.5 54t42.5 46q25 24 51 46.5t52 45.5q32 27 65 53.5t66 52.5q20 16 40 31t40 31q24 36 46.5 72t45.5 73l19 31l-51 -49q-18 -17 -37 -32.5t-39 -29.5q-8 -5 -17 -10.5t-19 -8.5t-20 -2.5t-19 7.5
q-14 10 -15.5 27t3 35t12.5 35.5t14 28.5q11 17 23.5 36t29.5 30q8 6 18 10t21 5q3 0 6.5 -0.5t6.5 -2t3.5 -4t-3.5 -6.5zM-97 -86q31 38 59.5 76.5t57.5 78.5q-4 -2 -7 -5t-6 -5q-36 -30 -71 -60t-70 -61q-26 -23 -50.5 -46.5t-47.5 -49.5q-11 -11 -20 -22.5t-16 -25.5
q-2 -5 -5.5 -11.5t-1.5 -11.5q1 -4 4.5 -5t7.5 0l8 2t6 2q23 9 42.5 27t37.5 36q19 19 37 39.5t35 41.5z" />
    <glyph glyph-name="z_alt" horiz-adv-x="284" 
d="M-33 291q29 43 71 73q23 17 54 31.5t61 8.5q11 -2 18.5 -9.5t8.5 -18.5q2 -15 -7 -28t-17 -24q-18 -19 -38 -34.5t-40 -30.5l10 2q13 2 26.5 1.5t23.5 -11.5q8 -10 9 -23t-3 -27l8 7q23 20 45.5 41t45.5 42l39 37q3 3 7 8.5t8 7.5q4 5 6.5 1t1.5 -8q0 -2 -2.5 -6t-4.5 -6
q-8 -12 -17.5 -24t-18.5 -23q-21 -23 -42.5 -44.5t-44.5 -41.5l-53 -47q-26 -58 -62 -111t-76 -104q-20 -25 -41.5 -49t-48.5 -40q-9 -6 -20.5 -10t-22.5 -4t-20.5 4.5t-15.5 16.5q-6 13 -3 26.5t10.5 27t18 25.5t18.5 21q22 25 47 47.5t51 44.5l114 98q5 9 9.5 18t9.5 18
q4 9 11.5 24t5.5 27q-6 2 -14 0t-13 -4q-10 -1 -19.5 -3t-20.5 -1q-16 2 -22 13.5t2 25.5q11 17 28.5 29.5t33.5 25.5q15 13 32 27.5t27 32.5q-5 0 -10.5 -1t-8.5 -1q-17 -3 -31 -9q-14 -5 -27.5 -12t-26.5 -16q-24 -16 -43 -32l-17 -13q0 -4 -5 -4q-3 -1 -5 2t0 6zM-4 21
q16 21 29 41q-14 -11 -26.5 -23t-26.5 -24q-23 -20 -44.5 -40t-41.5 -43q-3 -2 -11 -11.5t-15.5 -20t-11 -19.5t2.5 -11q5 2 9 5q4 2 7.5 3.5t5.5 3.5q23 17 42 39q23 23 42.5 48.5t38.5 51.5z" />
    <glyph glyph-name="a_swash" horiz-adv-x="480" 
d="M196 384q-17 3 -34 0t-33 -10.5t-30 -17.5t-26 -21q-30 -27 -53 -59q-6 -8 -11.5 -17t-10.5 -19q-4 -6 -7 -19q-1 -1 -0.5 -5t-0.5 -5q28 2 54.5 18t49.5 32q12 8 24.5 16.5t23.5 17.5q3 10 9 22.5t14.5 23t19 15.5t23.5 -1q10 -5 14.5 -17t-1.5 -21q-8 -14 -19.5 -25
t-23.5 -22q-4 -4 -12 -10q-2 -5 -2.5 -10t-1.5 -10q-2 -6 -3.5 -16.5t-1 -21t3 -20t10.5 -13.5q25 -12 54.5 -5.5t53.5 17.5q60 25 103 69q20 18 35 39t23 47q1 2 1.5 7.5t1.5 11t3.5 10t6.5 4.5q7 -1 13.5 -11t8.5 -15q6 -14 4.5 -28.5t-7.5 -28t-14.5 -26.5t-17.5 -23
q-20 -24 -44 -43t-51 -34q-28 -14 -58.5 -24.5t-62.5 -13.5q-14 -1 -29.5 0.5t-29 6.5t-24 14.5t-14.5 25.5q-5 14 -5 29.5t2 30.5q-13 -8 -26 -15l-26 -14q-11 -6 -25 -13t-29 -11.5t-29.5 -4t-25.5 10.5q-8 7 -11 17t-2.5 21t3.5 21.5t6 19.5q11 28 29.5 55t42.5 48.5
t52 35.5t59 17q14 2 28 0.5t27 -7.5q9 -2 13 -8q3 -7 -1.5 -13.5t-12.5 -4.5zM-9 210l-1 1v-1h1z" />
    <glyph glyph-name="b_swash" horiz-adv-x="539" 
d="M49 308q-8 -8 -16.5 -14.5t-16.5 -13.5q0 -2 -0.5 -3t-0.5 -2q-5 -13 -10 -29.5t0 -29.5q3 -10 14.5 -7t25 11t25 17.5t14.5 12.5q18 17 35.5 37t29.5 43q-14 14 -15 29q-3 15 7 28q2 2 5 2.5t5 2.5q1 4 6 6q4 1 10 -0.5t8 -3.5q17 -10 20 -27t-2 -35q15 -8 33.5 -11
t36.5 -3q34 -1 67 6.5t63 21.5q60 28 101 73q4 6 8.5 11.5t7.5 10.5q3 4 5.5 9t5.5 8q4 6 7 5t5.5 -4.5t4 -8.5t1.5 -8q2 -32 -15.5 -55.5t-41.5 -41.5q-52 -40 -119 -54q-33 -7 -68 -7t-69 8q-19 3 -43 14q-4 -12 -11 -20q-18 -26 -41.5 -46.5t-49.5 -37.5
q-10 -6 -22.5 -12.5t-25.5 -10t-25.5 -2t-22.5 11.5t-12.5 25t-0.5 30.5t7 30.5t9 26q12 33 27 62.5t34 58.5t39.5 56.5t42.5 53.5q22 25 45 49.5t49 44.5q11 9 23 17.5t26 16.5l19 9.5t20 -1.5q8 -7 13 -14t0 -18q-6 -12 -12.5 -23t-14.5 -22q-35 -55 -77 -103.5t-87 -96.5
q-43 -43 -86 -83zM39 330q28 26 55 53t53 56q20 23 39 46t36 47q14 17 28 37t23 41l-11 -9q-29 -21 -53 -47q-25 -25 -47.5 -51t-43.5 -54t-40 -56t-36 -58z" />
    <glyph glyph-name="c_swash" horiz-adv-x="413" 
d="M130 360q6 3 8 10.5t-6 11.5q-6 3 -15.5 0.5t-15.5 -5.5q-15 -8 -28 -20t-23 -25q-9 -12 -17.5 -31t-11 -38t4 -34.5t29.5 -19.5h-1q27 -4 54.5 1t53.5 15.5t50.5 25t45.5 30.5q26 17 49 38t42 45q9 11 16 21.5l15 22.5q5 7 11 9.5t11 -7.5q5 -8 8 -15t3 -17
q0 -17 -9.5 -30.5t-20.5 -24.5q-20 -25 -45.5 -46t-52.5 -38q-26 -16 -54.5 -30t-59 -24t-62 -14.5t-62.5 0.5q-42 5 -60 36t-10 71q8 38 35 70t59 52q17 10 36 14.5t38 2.5t30 -17t9 -34q-2 -11 -10.5 -22.5t-20.5 -9.5l-16 2q-9 1 -11.5 10t4.5 14z" />
    <glyph glyph-name="d_swash" horiz-adv-x="535" 
d="M153 387q-31 -10 -57 -28t-47 -40q-14 -14 -25.5 -28.5t-20.5 -30.5q-8 -14 -13 -31q-1 -2 -1 -6.5t-1 -4.5q13 -7 31 0.5t30 13.5q22 11 42 24.5t40 27.5l9 6q10 26 22 52t26 52q33 61 71.5 118.5t83.5 111.5q22 26 45.5 50.5t50.5 45.5q9 7 20.5 14t23.5 11.5t24.5 4.5
t23.5 -8q10 -10 13 -21.5t0.5 -23.5t-8 -24.5t-11.5 -23.5q-17 -29 -37 -56t-40 -53q-43 -54 -89.5 -104t-96.5 -97q-24 -22 -48 -43.5t-50 -41.5q-8 -23 -10.5 -47.5t12.5 -38.5q10 -9 23.5 -11t27.5 -1t28 5t25 7q57 19 109.5 55t90.5 84q8 11 15.5 22.5t12.5 25.5
q4 11 4.5 22t3.5 22q0 7 5.5 9.5t10.5 -2.5q3 -2 4 -6t3 -8q8 -21 5 -49q-6 -30 -23.5 -55t-38.5 -46q-47 -47 -108 -76q-29 -15 -59 -26t-62 -16q-14 -2 -29.5 -2.5t-30.5 2.5t-28 10.5t-22 20.5q-10 14 -12 32t0 36q-7 -5 -13.5 -9t-13.5 -9q-14 -8 -38 -18.5t-48 -14.5
t-43 3.5t-22 36.5q-2 23 7.5 45t21.5 40q27 39 66 67q17 14 36.5 24.5t41.5 15.5q8 2 16.5 4.5t16.5 0.5q6 1 9 -2t3.5 -7t-1.5 -8t-7 -5zM315 520q-32 -42 -62 -87.5t-54 -93.5q42 36 81 75q35 34 66.5 69.5t61.5 72.5q21 26 41.5 57.5t29.5 65.5q-13 -5 -21 -11
q-29 -17 -53 -43q-48 -50 -90 -105z" />
    <glyph glyph-name="e_swash" horiz-adv-x="386" 
d="M46 264q-10 -5 -20 -9t-21 -8q0 -13 9 -21t23 -12q32 -7 66 4.5t63 25.5q55 30 104 74q12 10 23 21t19 25q4 7 5 11t2 12q0 7 5.5 13.5t10.5 10.5q12 13 28 25q13 7 18.5 -2.5t3.5 -19.5q-6 -31 -23 -57t-39.5 -48.5t-49 -41.5t-51.5 -34q-26 -15 -53.5 -26.5
t-56.5 -18.5t-61.5 -6.5t-56.5 20.5q-23 20 -23.5 46t11.5 52t31.5 49t36.5 37q8 7 19.5 14.5t24 12t24.5 4t22 -9.5q17 -16 13 -36.5t-16 -37.5q-18 -23 -42 -39.5t-49 -29.5zM36 313q-6 -9 -12.5 -18t-11.5 -20q13 7 25 14t23 16q12 9 22.5 18.5t19.5 20.5q1 2 5 6.5t7 10
t4.5 10.5t-1.5 8q-2 2 -7.5 0t-11.5 -5t-11.5 -6.5t-7.5 -4.5q-13 -11 -23 -23.5t-20 -26.5z" />
    <glyph glyph-name="f_swash" horiz-adv-x="417" 
d="M-41 303q28 19 53 35q22 31 44.5 61.5t45.5 60.5q28 35 57 68.5t61 65.5q14 14 29.5 26t37.5 14q2 0 10 -0.5t15.5 -2t11 -5t-3.5 -9.5q-45 -34 -83 -76t-75 -84q-17 -20 -34 -40.5t-34 -41.5q20 8 40.5 14.5t40.5 12.5q32 10 65 16.5t67 8.5q28 1 55.5 -3.5t47.5 -27.5
q6 -7 7 -16.5t-11 -12.5q-5 -1 -9 0.5t-9 3.5q-7 2 -14 2.5t-15 1.5q-30 5 -60.5 3.5t-60.5 -5.5q-46 -8 -91 -19t-90 -27q-17 -21 -32 -43l-30 -44q-4 -6 -15.5 -23.5t-25 -40.5t-26 -49t-19 -47.5t-4 -36t19.5 -14.5q14 -1 26.5 8.5t22 23t17.5 28t13 24.5q15 28 24.5 59
t4.5 63q0 1 -1.5 7.5t-2 13.5t1.5 11.5t8 1.5q9 -2 16 -11t11 -17q11 -29 5 -61t-17 -60q-12 -27 -29.5 -52.5t-40.5 -45.5q-19 -15 -44 -22t-47 10q-12 9 -16.5 21.5t-3.5 27t5 28.5t9 25q11 32 26.5 61.5t32.5 58.5l42 68q-5 -2 -11 -4.5t-11 -5.5q-7 -4 -10.5 2.5
t3.5 10.5z" />
    <glyph glyph-name="g_swash" horiz-adv-x="232" 
d="M181 389q-31 -5 -59 -19t-54 -33q-13 -8 -24 -18.5t-22 -21.5q-7 -9 -17.5 -24.5t-4.5 -28.5q3 -6 9.5 -7t14 1t14.5 5.5t10 6.5q14 9 25.5 20.5t22.5 23.5q11 11 20 21.5t19 21.5q4 5 7.5 10.5t8.5 9.5t10.5 4.5t9.5 -2.5t6 -8t0 -11q-9 -29 -24 -53.5t-32 -49.5
q-19 -29 -37.5 -56.5t-38.5 -55.5q62 11 126 8t121 -28q14 -6 27 -13.5t26 -15.5q5 -5 11.5 -9.5t9.5 -10.5q5 -6 1.5 -12.5t-10.5 -8.5q-8 -2 -18 -0.5t-18 3.5q-12 2 -26 4.5t-22 12.5q-8 11 -22 15.5t-27 6.5q-31 8 -68 10q-35 2 -70.5 -1t-70.5 -11l-7 -2
q-13 -18 -26.5 -35.5t-27.5 -34.5q-42 -54 -86.5 -105t-96.5 -94q-20 -18 -46 -35t-54 -17q-29 0 -37 22.5t0 46.5q8 29 26 55.5t38 49.5q20 25 44.5 47.5t51.5 42.5q42 30 87.5 53.5t95.5 38.5l84 115l-12 -6q-17 -8 -34.5 -8.5t-32.5 10.5q-10 8 -13 20t-1 24q3 20 13 39
t24 35.5t30.5 30t33.5 23.5q19 11 38 18.5t41 6.5q8 0 16 -2t16 -5q7 -3 9 -10.5t-8 -9.5zM-72 46q-77 -33 -141 -87q-53 -42 -91 -93q-3 -4 -11 -16.5t-14.5 -26.5t-8 -25t8.5 -12q14 1 27 9.5t24 16.5q14 10 26 22t23 25q25 25 47 52t44 55z" />
    <glyph glyph-name="h_swash" horiz-adv-x="558" 
d="M122 426l-37 -46l-39 -51q13 11 26.5 22t28.5 21q14 8 31.5 16.5t34.5 5.5q21 -3 31 -23q7 -16 4.5 -31.5t-7.5 -30.5q-8 -19 -16.5 -36t-16.5 -36q-6 -14 -9 -31t9 -30q-1 0 -1 0.5t1 0.5q8 -7 20 -9t24.5 -1.5t25.5 3.5t22 5q32 7 63.5 19t60.5 27t56 34t48 45
q10 11 17 24.5t10 28.5q3 13 -1 29q-1 8 -5.5 15.5t-6.5 15.5q-1 7 2.5 8.5t8.5 1t10.5 -3t8.5 -3.5q24 -16 30 -47q7 -32 -8 -61.5t-36 -51.5q-46 -48 -109.5 -75.5t-128.5 -40.5q-19 -4 -43 -7t-46.5 0t-40.5 14.5t-25 36.5q-7 26 -0.5 52t14.5 49q5 12 9.5 24.5t8.5 24.5
q2 5 4 14q1 5 2 11l-1 1q1 -1 1 0q-9 4 -22 -2.5t-20 -11.5q-15 -8 -28.5 -19t-25.5 -22q-26 -23 -49.5 -47.5t-45.5 -50.5q-3 -4 -7.5 -10.5t-10 -12.5t-11 -10t-11.5 -3q-9 1 -11 6.5t0 12t6 13t6 10.5q17 32 36.5 62t39.5 60q39 58 81.5 113.5t88.5 108.5q4 5 16 19.5
t27.5 31.5t33.5 33.5t34.5 27t29.5 12t20 -12.5q4 -10 2 -21t-8 -21.5t-13.5 -20t-13.5 -16.5q-17 -21 -37 -41t-41 -40q-22 -20 -44 -38t-45 -35z" />
    <glyph glyph-name="i_swash" horiz-adv-x="327" 
d="M94 409q-2 -11 -7.5 -20t-10.5 -18q-8 -13 -15.5 -25.5t-15.5 -26.5t-15 -28t-13 -29q-2 -5 -4.5 -11.5t-4 -14t-1 -14t5.5 -10.5q2 -1 0.5 0t-0.5 1q10 -6 22.5 -6.5t26 2t26.5 7t23 8.5q31 11 60 27.5t54 38.5q20 16 40.5 40.5t23.5 52.5q3 22 20 8q8 -7 12 -17t5 -19
q2 -15 -2.5 -29.5t-13 -27.5t-19.5 -24t-22 -20q-25 -20 -54 -35t-60 -26q-29 -9 -61 -16t-63 -4q-17 1 -32 7.5t-22 23.5q-7 19 -3.5 39.5t8.5 38.5q6 21 14 40.5t18 38.5q5 9 10 17.5t10 17.5q5 8 10 15.5t14 9.5q3 1 9.5 1.5t12.5 -0.5t10.5 -4t3.5 -9zM108 487
q-5 12 1 26t17 24t23 11t18 -14q5 -11 -1.5 -24.5t-17 -23t-22.5 -11t-18 11.5z" />
    <glyph glyph-name="j_swash" horiz-adv-x="201" 
d="M-26 292q14 26 35 49t44 41q14 11 28 21.5t30 19.5q12 7 26.5 11.5t28.5 -3.5q12 -11 9.5 -24.5t-10.5 -29.5q-14 -29 -31 -56.5t-35 -54.5q-16 -23 -31.5 -45.5t-32.5 -44.5q52 13 101 14q29 0 59.5 -4.5t59.5 -15.5q23 -8 44.5 -22t28.5 -41q0 -2 0.5 -6t0 -7
t-2.5 -5.5t-7 -1.5t-9 4.5t-9 5.5q-8 5 -19 10q-54 25 -107 32q-45 7 -89 3.5t-87 -15.5q-16 -20 -32 -40.5t-33 -40.5q-43 -54 -88 -105t-94 -99q-24 -23 -49 -44t-53 -38q-8 -5 -19.5 -10.5t-23.5 -9.5t-23.5 -3.5t-20.5 7.5q-12 10 -13 24.5t4.5 30t14 29.5t14.5 23
q36 54 82 100q94 95 211 160q21 11 42 21t43 19q17 23 33 46.5t33 46.5q15 22 30 43t29 44q9 15 20 30t21 32q-8 -5 -15.5 -10t-12.5 -8q-15 -11 -28.5 -22t-27.5 -23q-11 -8 -21 -16t-21 -16q-5 -5 -9.5 -8t-9.5 -6q-4 -2 -7 0.5t-1 7.5zM-78 99q-56 -26 -105.5 -60
t-94.5 -76q-23 -21 -44 -43.5t-40 -48.5q-9 -12 -18 -24.5t-17 -26.5q-4 -8 -12 -22.5t-6 -25.5q23 1 44.5 16t38.5 29q22 18 41.5 37.5l39.5 39.5q38 41 74.5 83t71.5 87zM187 505q-7 17 2 36.5t20 31.5q6 6 13.5 9.5t15 3.5t14 -3.5t10.5 -12.5q9 -20 -1.5 -34.5
t-24.5 -26.5q-6 -4 -12.5 -9t-13.5 -7t-13 0t-10 12z" />
    <glyph glyph-name="k_swash" horiz-adv-x="291" 
d="M42 322l-16 -21q37 32 79 62.5t89 44.5q19 5 36.5 0t22.5 -25q7 -23 -6.5 -46t-28.5 -39q-30 -31 -70.5 -52t-83.5 -31q54 -28 112 -45t118 -26q36 -5 72.5 -8t71.5 -3q17 0 34 1t35 3q8 1 16 1.5t16 2.5q6 2 16 5.5t16 1.5q5 -3 5 -8t-3 -10.5t-7 -10.5t-6 -7
q-21 -22 -52 -29q-35 -8 -69 -7t-69 7q-67 10 -132.5 27.5t-126.5 46.5q-50 25 -89 54q-7 6 -6.5 12t8.5 10q13 5 25.5 11t25.5 12q22 11 44 23.5t42 27.5q10 8 19 15.5t18 16.5q1 1 5.5 6.5t9 12t7 11.5t-0.5 7l-2 2q-5 3 -13 1.5t-13 -3.5q-17 -5 -32 -13t-29 -17
q-29 -17 -55.5 -38t-52.5 -44l-46 -45q-11 -12 -20.5 -25t-22.5 -23q-4 -4 -9.5 -3.5t-9.5 5.5t-3 9t3 9l1 1q7 14 15 27.5t16 27.5q56 90 117 175t130 165q17 20 34 38.5t35 35.5q6 6 13.5 14t16.5 14t18.5 9t18.5 -1q16 -7 13.5 -24t-13 -36.5t-24 -36.5t-18.5 -24
q-31 -41 -65.5 -79t-71.5 -75q-18 -18 -36 -35.5t-38 -34.5zM108 414q36 36 71 77q18 21 35.5 43t33.5 45q21 26 35 51q-11 -11 -22.5 -23.5t-22.5 -25.5q-20 -24 -40 -49t-39 -51z" />
    <glyph glyph-name="l_swash" horiz-adv-x="471" 
d="M50 344q-5 -14 -9.5 -29.5t-6 -31.5t0.5 -32t10 -29v-1q15 -16 38 -17.5t44 0.5q33 4 64.5 13t63.5 21q30 13 59.5 27.5t57.5 32.5q11 8 22.5 16t22.5 18l16 15q3 4 7 9t9 7q11 4 15 -5t6 -17q3 -17 -4 -30t-20 -24q-9 -10 -21.5 -16.5t-24.5 -13.5l-57 -28
q-30 -14 -60.5 -24t-62.5 -18q-31 -8 -63 -13t-64 -3q-20 2 -40 8t-34 23q-19 21 -23 50t-1 56q10 66 43.5 126t75.5 110q42 52 94 98q23 20 49.5 39.5t58.5 25.5q19 4 32 -6.5t12 -30.5q-2 -28 -20 -56t-35 -50q-34 -45 -74 -83.5t-85 -72.5q-36 -27 -76 -52zM123 478
q-17 -24 -32 -48.5t-27 -50.5q32 22 61.5 45.5t57.5 50.5q45 45 84 96q14 19 29.5 42.5t20.5 47.5q-26 -14 -49.5 -33.5t-44.5 -38.5q-28 -26 -52.5 -53.5t-47.5 -57.5z" />
    <glyph glyph-name="m_swash" horiz-adv-x="944" 
d="M-32 291q31 44 75 82q10 8 24.5 19.5t31 20t33 11.5t30.5 -4q13 -7 15 -18t-2 -23t-11.5 -24t-12.5 -19q-10 -15 -18 -30.5t-16 -31.5q-6 -12 -13 -28l17 16q28 26 56 50q27 24 55.5 49t61.5 39q24 12 42.5 0.5t19.5 -37.5q2 -17 -5.5 -30.5t-12.5 -30.5q-2 -11 -5.5 -22
t-5.5 -22l23 17q16 10 31 19.5t29 20.5q15 10 29.5 18.5t30.5 17.5q12 8 25.5 14t28.5 5q15 0 24 -7.5t13 -18.5t3 -24t-5 -25q-5 -16 -12 -30.5t-12 -30.5q-3 -8 -5 -19.5t5 -19.5v1q9 -8 22 -7.5t24 2.5q17 2 33.5 6.5t32.5 10.5q31 11 59.5 25.5t55.5 32.5q49 33 91.5 78
t59.5 102q2 5 2.5 10t4.5 7q5 4 10.5 2.5t7.5 -6.5q3 -7 4 -16t2 -16q2 -29 -9 -57.5t-29 -51.5q-36 -51 -91 -85t-112 -55q-53 -19 -107 -26q-21 -2 -44 -0.5t-41 15.5q-13 11 -16.5 26t-1.5 31q2 14 5.5 26.5t8.5 25.5l3 9l4.5 13.5t3.5 14.5t0 11h1q-2 2 0.5 0.5
t1.5 -0.5q-2 3 -9.5 1t-16.5 -5.5t-16.5 -8t-9.5 -5.5q-15 -10 -28.5 -20.5t-27.5 -21.5q-22 -18 -46.5 -39.5t-53.5 -29.5q-14 -4 -23 0t-13.5 12.5t-5 20t2.5 22.5q1 3 6.5 18t11.5 33t11.5 35t6.5 25q-15 -3 -29.5 -15.5t-25.5 -20.5q-17 -13 -32 -26.5t-30 -27.5
l-61 -54q-11 -10 -25.5 -22.5t-30.5 -13.5q-17 0 -21.5 9.5t-3 22.5t7 26.5t9.5 20.5q10 17 19.5 34.5t20.5 34.5q5 9 10 18.5t10 17.5q2 5 4.5 10t4.5 10q-5 -1 -9.5 -2.5l-7.5 -2.5q-8 -3 -15 -6t-14 -8q-14 -7 -27.5 -15t-26.5 -16q-11 -8 -22 -16.5t-22 -17.5
q-5 -5 -8.5 -8t-7.5 -8q-4 -3 -8.5 -1t-0.5 7zM517 326q0 -1 0.5 -1t0.5 -1q-1 1 -1 2z" />
    <glyph glyph-name="n_swash" horiz-adv-x="699" 
d="M-32 292q32 41 67 75q8 8 19 18.5t24 18t26 9.5t25 -6q8 -6 10 -15t1 -18.5t-4 -19.5t-6 -17q-5 -17 -12 -33t-13 -33q-2 -8 -5 -15t-6 -15q0 -1 -1 -4.5t-2 -8.5q13 9 23 21.5t20 23.5q13 14 24.5 28.5t23.5 29.5q9 12 21.5 28.5t27 30.5t31 22.5t35.5 5.5q15 -3 23 -12
t11 -20.5t3 -24.5v-25q-1 -20 -2 -39t1 -39q1 -14 5 -29.5t20 -20.5h-1q25 -5 49 1t46 16q31 14 59.5 32.5t54.5 39.5q22 17 41.5 36.5t37.5 40.5q8 9 15 19t15 19q7 10 16 3q5 -3 5.5 -7.5t0.5 -8.5q6 -27 -6 -47.5t-30 -40.5q-42 -46 -101 -82q-26 -16 -54.5 -29.5
t-58.5 -23.5q-23 -7 -49 -10t-50 5q-26 7 -36.5 27t-13 45t0 50.5t2.5 45.5v22t-9 19q-7 3 -15.5 -2.5t-13.5 -8.5q-23 -17 -42.5 -40t-36.5 -46q-16 -21 -30.5 -43.5t-34.5 -39.5q-11 -11 -27 -17.5t-30 4.5q-9 7 -10.5 17t1.5 21q4 13 7.5 26t8.5 26l22 59q2 10 6 20t6 20
q-5 -1 -9.5 -3.5t-6.5 -4.5q-7 -4 -13.5 -8t-13.5 -9q-12 -8 -23.5 -17t-22.5 -18l-35 -28q-1 -1 -1.5 -2.5t-2.5 -1.5q-3 -1 -7.5 0.5t0.5 7.5z" />
    <glyph glyph-name="o_swash" horiz-adv-x="360" 
d="M132 412q12 -3 12 -14q5 -1 9 -3t9 -4q11 -6 16.5 -15t8.5 -20q15 2 29.5 5.5t29.5 8.5q29 11 56 29t48 43q9 10 17 22t12.5 25t4.5 26.5t-7 26.5q-1 2 -4.5 6.5t-5.5 9t-1.5 8t7.5 4.5q8 2 18.5 -0.5t17.5 -7.5q13 -8 20.5 -21t9 -28t-1 -30.5t-8.5 -28.5
q-14 -27 -36.5 -45.5t-48.5 -32.5q-29 -14 -59.5 -27t-62.5 -19q-8 -2 -16.5 -3.5t-17.5 -2.5l-2 -10q-6 -28 -21 -53.5t-36.5 -45t-48 -31.5t-55.5 -12q-35 0 -46.5 19t-10 45t13 53.5t23.5 44.5q15 22 35 40.5t45 29.5q11 5 23.5 8t23.5 0zM114 346q-12 13 -7 31
q-17 -11 -31 -27.5t-25 -30.5t-21.5 -28.5t-18.5 -31.5q-2 -5 -5.5 -11.5t-5.5 -14t-2 -14t5 -10.5q10 -7 23 -4.5t25.5 10t23.5 17t17 16.5q11 13 20 26t16 27q2 4 5 12t5 16q-7 3 -13 7t-11 10zM146 365q0 1 -0.5 1t-0.5 1z" />
    <glyph glyph-name="p_swash" horiz-adv-x="526" 
d="M-29 292q22 38 60 68q6 5 16 13t21 13t21 4.5t17 -11.5q4 -5 1.5 -13.5t-4.5 -14.5v-1l16 14q9 8 21.5 18.5t27 18.5t29 11.5t27.5 -3.5q16 -8 17 -24.5t-5 -34.5q51 14 102.5 20.5t103.5 -4.5q13 -3 28 -8t27 -13t20 -20t9 -28q0 -2 -0.5 -7t-2 -9t-4 -5.5t-6.5 3.5
q-4 3 -7.5 8t-7.5 8q-5 5 -10.5 8t-10.5 6q-28 14 -59 18t-62 4q-68 -1 -136 -18l-5 -10q-14 -27 -32 -52t-41 -45q-22 -19 -50.5 -32.5t-57.5 -6.5q-17 3 -29 15l-3 -5q-38 -59 -76 -116.5t-82 -111.5q-9 -12 -18.5 -23.5t-20.5 -22.5q-8 -8 -19 -18.5t-23 -9.5
q-14 1 -16 10t2.5 21t11.5 23.5t10 16.5q36 59 78 114.5t86 109.5l65 77l6 9l41 63q3 6 7 12t7 12l-8 -8q-9 -7 -17.5 -13.5t-17.5 -12.5q-8 -6 -15.5 -11t-15.5 -9q-1 -1 -4.5 -2.5t-7 -2t-5.5 1t1 6.5zM113 234q20 15 35 31.5t29 36.5q-54 -15 -101 -39q-8 -5 -17.5 -10
t-17.5 -11l-24 -39q26 -6 51 5t45 26zM67 285l-6 -10q26 17 53.5 29.5t56.5 23.5q7 2 13.5 5t14.5 5l4 10q0 1 2 7t4 12.5t2.5 12t-0.5 5.5q-5 -1 -10.5 -1t-10.5 -2q-11 -5 -19.5 -10.5t-17.5 -11.5q-17 -13 -33.5 -27t-32.5 -29zM86 359q-1 0 -2 -1q1 0 2 1z" />
    <glyph glyph-name="q_swash" horiz-adv-x="227" 
d="M-221 -13q42 34 92.5 56t101.5 38l102 150q-8 -8 -16.5 -14.5t-16.5 -13.5q-8 -6 -16.5 -12t-18 -10.5t-19.5 -6t-20 2.5t-14.5 12.5t-5.5 18t0.5 20t4.5 19.5q14 43 42 78t65 60q20 11 42 19.5t45 8.5q17 0 35 -6q8 -4 6 -12.5t-11 -6.5q-20 3 -40 -3t-38.5 -16.5
t-34.5 -25t-29 -28.5q-14 -15 -25.5 -31t-20.5 -35q-2 -3 -4.5 -9.5t-5 -13.5t-3.5 -13t2 -8l2 -2q0 -3 7 0t15 7.5t15 9t9 5.5q14 10 26.5 21.5t24.5 22.5q14 14 27 26.5t26 26.5q3 3 7.5 8.5t9.5 10.5t10 8.5t10 3.5q10 -1 10 -8t-4 -16t-9.5 -17.5t-7.5 -11.5
q-18 -32 -36 -63l-36 -62q-11 -19 -22 -37t-22 -37q56 17 112.5 29.5t113.5 22.5q69 11 137.5 18.5t138.5 9.5q30 1 61 0.5t60 -11.5q14 -4 27 -11t23 -17q1 -2 4.5 -5.5t6.5 -7.5t3.5 -8t-3.5 -7q-5 -2 -9 -0.5t-9 3.5q-5 3 -11 4t-12 3q-15 3 -30 4.5t-29 2.5q-31 3 -61 3
t-61 -2q-69 -3 -137 -11t-137 -19q-54 -10 -107.5 -21t-107.5 -25q-19 -32 -37 -64t-36 -65q-17 -30 -31.5 -62t-23.5 -66q-11 -30 -9 -64q0 -8 1 -15.5t3 -15.5q2 -5 3.5 -13t-6.5 -11q-9 -2 -18.5 8.5t-14.5 15.5q-18 28 -20 60t9.5 64t24.5 61q19 39 40.5 76t44.5 72
q-49 -15 -95 -34q-11 -6 -23 -11.5t-23 -13.5q-4 -2 -7.5 -5t-7.5 -4q-8 -1 -11.5 5.5t3.5 11.5v1v0z" />
    <glyph glyph-name="r_swash" horiz-adv-x="458" 
d="M-32 292q14 18 30 36.5t30 38.5q5 8 10 14.5t10 14.5q-8 25 2 49q6 14 17.5 21t24.5 -2q18 -12 12 -32t-19 -38q5 -2 18 0q7 1 16 3t18 3t17 -1t15 -8q10 -4 10 -11q1 -7 -6 -10.5t-11 -7.5q-12 -11 -23 -22.5t-22 -23.5t-21 -24.5t-19 -26.5q-3 -3 -7 -10t-8 -14.5
t-5 -15t2 -12.5q4 -4 11 -4.5t14.5 1t14 3.5t11.5 3q17 5 33.5 12t32.5 15q62 30 115 70q26 20 50.5 42.5t46.5 48.5q9 11 18 23.5t17 26.5q4 7 7.5 13.5t6.5 13.5q4 6 10.5 4.5t7.5 -7.5q9 -32 -4 -56t-33 -47q-22 -26 -47.5 -47.5t-53.5 -41.5q-28 -19 -57.5 -35.5
t-60.5 -30.5q-29 -13 -60.5 -24.5t-63.5 -12.5q-16 -1 -29 5t-17 23q-5 20 2 39.5t17 35.5q11 22 28.5 42t37.5 36h-3q-12 -2 -23.5 -0.5t-20.5 7.5q-3 -2 -5 -4.5t-4 -4.5q-25 -27 -52 -52l-27 -23q-2 -1 -3.5 -2.5t-3.5 -1.5q-3 -1 -5 2t1 7zM72 437q-2 -2 -4 -8z" />
    <glyph glyph-name="s_swash" horiz-adv-x="502" 
d="M-31 292q16 23 35 43.5t39 39.5q9 9 20.5 21t25 21t28 12.5t27.5 -5.5q9 -6 11.5 -16t1.5 -21.5t-4 -23t-5 -20.5t-4.5 -17.5t-5.5 -17.5q26 2 51.5 3t51.5 1q60 0 120.5 -4t119.5 -24q4 -1 9 -3t9 -5t5.5 -6.5t-2.5 -8.5t-13 -7t-17 -7q-11 -5 -20.5 -1t-20.5 7
q-13 4 -25.5 7.5t-25.5 6.5q-59 14 -119 20t-120 2q-4 -1 -11 -1q-8 -17 -18.5 -32t-22.5 -29q-9 -9 -20.5 -19t-25 -17.5t-27.5 -11.5t-28 -2t-23 12.5t-8 25.5q2 14 10 26t19 21q23 20 52 28.5t58 13.5q8 17 13 36t4 38l-7 -5l-27 -18l-53 -36l-44 -31q-2 -1 -3.5 -2.5
l-2.5 -2.5q-5 -2 -7.5 1.5t0.5 7.5zM9 212q23 8 42 26.5t32 41.5q-14 -3 -27.5 -7.5t-26.5 -12.5q-12 -7 -22 -16t-16 -21t1 -13t17 2z" />
    <glyph glyph-name="t_swash" horiz-adv-x="387" 
d="M-64 458q22 17 50 21t54 6h40t40 1q22 22 45.5 41.5t49.5 37.5q13 11 27 19.5t28 17.5q13 8 28.5 15t30.5 4q11 -2 17.5 -11t4.5 -21q-4 -14 -16 -22.5t-23 -19.5l-60 -56q53 2 104.5 4t105.5 4l126 9q14 2 27 3.5t27 3.5q9 2 12.5 -3.5t-3.5 -13.5q-9 -10 -20.5 -15
t-24 -8t-25.5 -4t-25 -2q-35 -3 -68.5 -4.5t-68.5 -3.5q-51 -2 -103 -2.5t-104 -1.5q-26 -22 -52.5 -42t-54.5 -40l-66 -46q-12 -20 -22 -41t-15 -43q-10 -34 -5 -71q2 -5 3.5 -9.5t2.5 -9.5q9 -12 20.5 -18t24.5 -7t27 1.5t27 7.5q31 11 59.5 29.5t53.5 41.5q23 21 43 47
t28 57q8 25 -2 48q-4 11 3 15t16 -1q25 -14 29 -41t-4 -51q-10 -29 -31 -54.5t-44 -45.5q-26 -20 -54 -36.5t-60 -27.5q-28 -10 -62.5 -14.5t-62.5 12.5q-8 5 -15 12t-12 15q-2 2 -2 5q-12 27 -13 56.5t5.5 59t19 57.5t28.5 52q27 40 63 79q-40 0 -79 -3q-15 -2 -29.5 -3.5
t-28.5 -3.5q-3 -1 -8 -2.5t-9 1.5q-5 3 -3.5 8t5.5 7zM193 502q-4 -4 -7.5 -7t-7.5 -6h20.5t20.5 1q14 11 28 24t27 27q7 7 14 14.5t13 15.5l2 4q-13 -4 -25 -11t-20 -13q-17 -11 -33 -23.5t-32 -25.5zM72 377l2 2q26 19 52 38.5t52 39.5q-9 0 -18 -0.5t-18 -0.5
q-17 -17 -33.5 -35t-31.5 -38zM308 598q-2 -5 -1 -7v5q0 1 1 2z" />
    <glyph glyph-name="u_swash" horiz-adv-x="642" 
d="M-34 292q18 23 40 44.5t48 37.5q10 6 22 12.5t24 4.5q6 0 9.5 -2.5t8.5 -5.5q8 -4 9 -15t1 -17q0 -16 -6.5 -27t-14.5 -23q-9 -13 -18.5 -25t-19.5 -25q-1 -2 -4.5 -7t-7.5 -11t-7 -11.5t-3 -8.5q12 0 25 8.5t22 15.5q35 25 64 53q16 14 31 28.5t29 28.5l25 27
q6 7 11.5 14.5t12.5 13.5q5 5 12 4.5t9 -7.5q2 -6 -1 -11t-5 -10q-11 -17 -20.5 -34.5t-18.5 -35.5t-16.5 -36t-12.5 -37q-1 -6 -3 -14t-3.5 -16.5t-1 -16.5t4.5 -13h-1q13 -5 27.5 -5t29.5 3.5t29 8.5t26 10q60 23 117 62q57 36 106 82q12 11 23 21.5t21 24.5q6 6 10.5 12
t9.5 13q3 5 8.5 15.5t11.5 10.5q5 0 7.5 -4.5t3.5 -11t0.5 -12.5t-0.5 -9q-3 -29 -24 -53q-20 -24 -43 -45.5t-48 -40.5q-54 -40 -115 -71.5t-127 -45.5q-20 -4 -43.5 -5.5t-42.5 8.5q-12 6 -17.5 16.5t-6.5 23t1 25.5t5 24q10 37 29 75q-9 -8 -17.5 -17t-16.5 -17
q-15 -14 -30 -27.5t-31 -26.5q-14 -11 -32 -23t-37 -12q-17 0 -23 14t-3 28q4 18 13.5 35t18.5 32q10 15 18 30l8 11l7 10.5t7 14.5q-17 -2 -36 -14t-32 -21q-21 -15 -37 -29q-3 -2 -6.5 -7t-7.5 -5q-4 -1 -5.5 2t0.5 7z" />
    <glyph glyph-name="v_swash" horiz-adv-x="281" 
d="M276 567q57 -24 116 -38t121 -17q30 -2 62 -0.5t60 12.5q11 3 20 10q5 2 7.5 5.5t7.5 2.5q10 0 13 -8.5t3 -16.5q0 -17 -7.5 -28t-20 -18.5t-27 -11.5t-27.5 -5q-32 -4 -65 1.5t-65 15.5q-32 8 -63 19t-63 23l-37 15q3 -8 3 -14q0 -31 -13.5 -62t-29.5 -56
q-35 -57 -87.5 -101.5t-109.5 -77.5q-12 -7 -25 -13t-25 -12q-10 -6 -21 -9.5t-22 -1.5q-13 1 -16.5 10.5t-2.5 22t5 25t6 19.5q9 28 19 54t24 52q11 21 33 30q5 3 14 3.5t7 -9.5q-4 -22 -14 -41.5t-19 -38.5q-12 -25 -25.5 -49.5t-18.5 -50.5q9 -1 18.5 3.5t17.5 8.5
q15 8 29 18t28 21q26 20 49 43t43 49q20 25 37 52.5t28 57.5q5 14 9 28.5t6 28.5q1 7 1.5 13.5t0.5 14.5q-1 5 -2 11.5t3 9.5q4 2 9 0q3 1 6 0z" />
    <glyph glyph-name="w_swash" horiz-adv-x="376" 
d="M85 385q-5 -23 -19 -41.5t-25 -38.5q-14 -24 -23 -47q0 -2 -2 -8.5t-4 -14t-2.5 -13.5t1.5 -7q9 -2 20 5.5t18 12.5q22 17 44 40q8 8 14.5 16t13.5 16q5 34 21 59q6 12 18.5 19t23.5 -1q14 -9 9.5 -24.5t-11.5 -26.5t-14.5 -21.5t-15.5 -21.5v-5q-1 -6 -1.5 -15
t0.5 -17.5t4.5 -15.5t11.5 -8q19 2 33 12t25 25q20 26 31 56.5t17 62.5q6 35 5.5 69.5t-4.5 69.5q-2 10 -2 20t11 16q6 3 12 2.5t13 -1.5l39 -5q69 -7 139.5 -11.5t139.5 2.5q8 1 16.5 2t16.5 3q5 2 11 4t11 0q8 -3 8.5 -8.5t-2.5 -11.5t-8 -11l-8 -8q-12 -9 -27 -14
t-30.5 -6.5t-31.5 -1t-30 0.5q-34 1 -67.5 5t-67.5 9q-11 2 -22 3.5t-22 3.5t-25.5 5t-28.5 3q10 -45 9.5 -91.5t-11.5 -89.5q-6 -22 -16 -44.5t-24.5 -42.5t-33 -35.5t-41.5 -22.5t-43 -4q-21 5 -29.5 21t-10.5 35q-12 -13 -25 -25t-27 -23t-32.5 -19.5t-36.5 -3.5
q-21 7 -26.5 26t-2 42t12.5 45t15 34q10 19 22 37t26 33q7 6 15 12.5t18 1.5q7 -5 8 -11t-1 -13zM161 364l-1 -1z" />
    <glyph glyph-name="x_swash" horiz-adv-x="651" 
d="M-161 -18q2 26 18.5 47.5t33.5 40.5q21 24 43.5 46.5l45.5 45.5q43 42 86.5 81t88.5 78q-13 21 -31 37q-11 9 -23 8t-24 -8t-23 -16t-20 -16l-40 -32q-3 -2 -6.5 -5.5t-7.5 -4.5q-4 -2 -7 0.5t-1 7.5q12 19 31.5 42t43 39.5t49.5 21.5t51 -11q11 -8 21 -16.5t19 -18.5
q53 45 105.5 87t109.5 81q27 20 55.5 37t57.5 33q26 14 54 26.5t58 5.5q7 -2 15.5 -5t8.5 -12q-1 -10 -15.5 -15t-22.5 -8q-29 -13 -56 -26.5t-54 -29.5q-58 -36 -113.5 -76t-109.5 -83l-64 -51l15 -23q18 -27 35 -56t41 -51q10 -9 22 -15.5t26 -4.5q16 2 31 11t28 19
q27 20 50 44t43 51q5 8 13 20t14 25.5t8.5 26.5t-3.5 24q-5 10 -1 14.5t15 1.5q14 -3 21.5 -13t11.5 -23q8 -29 -1.5 -56t-28 -51t-42.5 -43.5t-45 -33.5q-24 -16 -50.5 -31t-54.5 -20q-27 -6 -55 4.5t-48 29.5q-22 20 -38 44.5t-31 49.5l-14 25q-29 -25 -58 -49.5
t-58 -50.5q-46 -41 -91.5 -83t-87.5 -87q-8 -8 -15 -16.5t-14 -17.5q-5 -6 -11 -6.5t-4 10.5z" />
    <glyph glyph-name="y_swash" horiz-adv-x="485" 
d="M58 359q-2 -14 -10 -25.5t-13 -23.5q-2 -6 -4 -12.5t0 -12.5q1 -6 8 -4t10 4q30 14 54.5 38.5l47.5 47.5l22.5 22.5t24.5 20.5q3 3 6 5.5t8 3.5q7 0 12 -5t4 -12q-2 -17 -12.5 -31.5t-19.5 -28.5q-18 -25 -35.5 -50t-34.5 -51q17 6 34 10.5t34 9.5q66 16 134 21
q17 2 33.5 2.5t33.5 -0.5l34 -2t31 -12q8 -7 13.5 -15t10.5 -18q5 -8 -1 -10t-11 -1q-11 2 -20.5 2.5t-19.5 1.5q-72 4 -144 0q-50 -4 -98 -12.5t-95 -23.5l-28 -40l-28 -40q-34 -49 -69 -96t-73 -93q-21 -26 -43.5 -51.5t-48.5 -48.5q-10 -9 -21.5 -18t-24 -16.5t-26 -11
t-26.5 -0.5q-17 4 -25.5 15.5t-12 26.5t-2.5 31t4 29q7 31 23 59t36 53q42 54 96.5 94.5t114.5 73.5q30 16 60 30t62 27l40 55l6 9q-17 -15 -38 -28.5t-42 -9.5q-14 3 -21.5 12.5t-10.5 21.5t-1.5 25t4.5 24t10 24.5t21 17.5q7 1 18 -1t9 -13zM19 163l8 11l-5 -2
q-63 -26 -117.5 -64.5t-99.5 -89.5q-22 -24 -41 -51t-34 -57q-3 -6 -11 -23t-12.5 -34.5t-2 -31t19.5 -11.5q14 2 27 11.5t22 19.5q12 11 23 24t22 27q23 26 44.5 54t41.5 57z" />
    <glyph glyph-name="z_swash" horiz-adv-x="563" 
d="M-30 291q31 47 75 80q11 8 24.5 16.5t28.5 14.5t30 8.5t29 -1.5q13 -5 17.5 -14t3 -19.5t-7.5 -21t-13 -17.5q-11 -13 -22.5 -23.5t-24.5 -21.5l-12 -9h3q13 2 26.5 -1t18.5 -17q5 -12 3 -25.5t-6 -24.5q-1 -2 -1 -3t-1 -2q81 37 170 54q64 10 128 9q29 -1 57.5 -5.5
t49.5 -27.5q5 -5 8 -10t7 -11q5 -10 -0.5 -16.5t-16.5 -4.5q-25 5 -49.5 8.5t-50.5 4.5q-87 5 -170.5 -14.5t-160.5 -57.5q-27 -60 -61 -116.5t-72 -110.5q-20 -28 -40.5 -54.5t-46.5 -48.5q-9 -8 -20 -15t-23 -11.5t-24.5 -4.5t-24.5 7q-13 8 -16.5 20.5t-2 27t6.5 28.5
t9 25q13 29 30 55t37 50q46 57 101.5 105t120.5 85v1q6 14 13.5 30.5t8.5 33.5q-5 0 -14 -1.5t-11 -2.5q-8 -2 -16 -3t-16 -1q-13 1 -21 11.5t-2 23.5q8 15 25 27.5t31 23.5q14 12 28.5 24t24.5 28q-11 2 -25 -3t-22 -9q-28 -12 -52 -29q-24 -16 -44 -35l-16 -15
q-3 -3 -7.5 -1t-1.5 7zM-35 -32q22 32 41.5 65t38.5 67q-39 -26 -77 -58q-26 -21 -48 -43.5t-42 -48.5q-11 -13 -20 -26t-17 -27t-17 -30t-8 -33q1 -14 10.5 -12t21 10.5t21.5 18.5l13 13q23 24 43.5 50.5t39.5 53.5z" />
    <glyph glyph-name="a_end" horiz-adv-x="329" 
d="M196 384q-4 3 -12 2.5t-13 -1.5q-18 -1 -35 -9q-18 -8 -35 -19t-31 -25q-15 -14 -28.5 -29t-25.5 -31q-8 -12 -18 -29t-8 -33q9 -2 23.5 5t22.5 11q15 8 28.5 16t27.5 16q22 14 44 32q8 21 20 40t30 26q10 3 18.5 0t13.5 -9.5t6 -15.5t-4 -18q-12 -17 -27.5 -31.5
t-32.5 -27.5q-2 -4 -2 -7q-1 -5 -3 -14t-2.5 -19t0.5 -18.5t6 -11.5v-1q11 -3 22.5 0t22.5 9.5t20.5 15t16.5 16.5q21 22 33 50q7 15 8 26q1 5 0.5 12.5t1.5 12.5q5 7 13 0t11 -10q9 -11 12 -27t-1 -30q-7 -29 -27 -52.5t-45 -39.5q-22 -14 -49 -21.5t-53 3.5q-23 9 -27 32
t0 46q-27 -18 -57 -33q-9 -4 -20.5 -9t-23 -9t-23.5 -4.5t-23 4.5t-16 14t-5.5 20t2 22.5t5.5 20.5q15 46 47 83.5t75 60.5q23 11 47 17.5t49 2.5q5 -1 9.5 -2t9.5 -3q1 -1 4.5 -2.5t3.5 -0.5q6 -2 8 -6.5t0.5 -9t-5 -7.5t-9.5 -1zM-12 211q1 0 1 -0.5t1 -0.5l-1 1h-1z" />
    <glyph glyph-name="b_end" horiz-adv-x="250" 
d="M15 278q-10 -26 -11 -48q-2 -17 7.5 -19.5t23.5 4.5q17 8 31 18.5t27 22.5q21 20 42.5 45t28.5 54q3 11 0 21q-2 4 -6 5.5t-6 6.5q-2 6 1.5 8t8.5 2t10.5 -1.5t7.5 -2.5q15 -9 19 -22.5t2 -29t-9 -30.5t-14 -25q-18 -26 -42 -46.5t-51 -37.5q-10 -6 -24 -13.5t-28.5 -11
t-28.5 -1.5t-23 16q-9 12 -10 28t2.5 32.5t9 32t10.5 27.5q12 32 28 61t35 58q37 56 81.5 109t98.5 93q11 9 23 16.5t25 15.5q7 4 15.5 4.5t15.5 -3.5q12 -9 11.5 -21.5t-7.5 -25.5t-16.5 -25.5t-14.5 -20.5q-35 -53 -76.5 -100.5t-86.5 -92.5q-20 -20 -39.5 -39t-39.5 -38z
M38 329q29 26 56 54t53 57q20 23 39.5 45.5t36.5 47.5q21 27 36 52q4 6 7.5 11.5t5.5 12.5q-13 -10 -25 -19.5t-23 -20.5q-25 -23 -47.5 -49t-43.5 -52q-22 -27 -42 -55.5t-37 -57.5z" />
    <glyph glyph-name="c_end" horiz-adv-x="241" 
d="M132 359q10 7 7 16q-1 8 -8 7.5t-13 -0.5q-13 -2 -24.5 -10.5t-19.5 -16.5q-19 -18 -32 -40.5t-18 -48.5q-2 -13 -1.5 -27t8.5 -25q10 -11 25 -12.5t28 1.5q30 9 56 30t44 46q6 9 10 19.5t9 18.5q2 5 7.5 6.5t9.5 -2.5q3 -2 3.5 -6t1.5 -7q3 -14 -0.5 -28t-11 -26.5
t-18 -23t-20.5 -18.5q-18 -14 -46 -26t-56.5 -15.5t-53.5 6t-37 39.5q-11 28 -5.5 57.5t22 56t40.5 47.5t49 32q13 6 30.5 6.5t32 -5t22.5 -17.5t3 -32q-4 -22 -27 -28q-6 -2 -12 0t-9 6t-2.5 9.5t6.5 10.5z" />
    <glyph glyph-name="d_end" horiz-adv-x="402" 
d="M140 386q-23 -7 -43.5 -21t-37.5 -31q-19 -20 -36 -46.5t-19 -55.5q-2 -14 7.5 -16.5t22 1.5t25 10.5t17.5 9.5q36 21 68 50q5 23 11.5 45t14.5 43q47 131 124 244q18 26 38 51.5t44 46.5q9 7 19.5 15t22.5 12.5t24 5t23 -6.5q14 -8 17.5 -22t1.5 -30t-8.5 -31t-11.5 -26
q-14 -32 -32 -61t-37 -58q-38 -57 -82 -110.5t-92 -103.5l-47 -45q-4 -25 -2 -50t21 -39q20 -12 44 -4.5t41 18.5q23 15 40 37.5t22 50.5q2 5 2 11v12q1 4 0 9t2 9q4 4 8 3t8 -4.5t7 -7.5t5 -7q15 -26 5.5 -56t-27.5 -52q-14 -17 -35.5 -32t-46 -23t-49 -7t-45.5 15
q-22 15 -29.5 38.5t-7.5 47.5q-14 -11 -29.5 -21t-31.5 -18q-18 -8 -39 -13.5t-41 0.5q-21 6 -30.5 24t-7.5 39q3 41 28 77t57 60q16 11 33.5 20t36.5 13q6 2 15.5 4t15.5 -2q7 -5 5.5 -12.5t-9.5 -9.5zM243 449q-14 -28 -27 -57t-23 -59q38 38 72.5 79t66.5 85
q17 24 34.5 49t31.5 52q6 13 11 25t9 26q2 8 3 15.5t2 15.5v1h-1q-10 -4 -18.5 -9.5t-16.5 -12.5q-17 -13 -30 -29.5t-25 -33.5q-26 -35 -48 -72t-41 -75z" />
    <glyph glyph-name="e_end" horiz-adv-x="231" 
d="M31 255q-5 -2 -10.5 -4t-10.5 -4q1 -5 2 -9.5t5 -8.5q7 -11 18 -15t23 -4.5t24 2.5t22 8q28 11 51 32.5t33 50.5q2 5 2.5 9.5t2.5 7.5q3 6 9 5.5t9 -6.5q5 -7 6 -15.5t0 -16.5q-1 -15 -8 -28t-17.5 -24t-23.5 -19.5t-25 -15.5q-26 -14 -57 -20.5t-60 4.5q-26 11 -39.5 36
t-9.5 53q3 29 20.5 54.5t39.5 45.5q9 7 22 17t27.5 16.5t29.5 8.5t27 -6q18 -12 18 -27.5t-9 -31.5t-23 -30.5t-24 -22.5q-17 -13 -35.5 -23.5t-38.5 -18.5zM43 321q-9 -11 -17.5 -23.5t-13.5 -26.5q38 19 66 44q12 10 22.5 20.5t18.5 24.5q2 3 4 10t1 8h-1q-1 -1 -4.5 -0.5
t-5.5 -0.5q-16 -5 -26 -13q-13 -8 -23.5 -19.5t-20.5 -23.5z" />
    <glyph glyph-name="f_end" horiz-adv-x="206" 
d="M-49 302q14 11 28 21.5t30 18.5q20 30 41.5 59.5t43.5 58.5q55 70 118 133q15 15 31 27t37 14q1 0 9.5 -0.5t16 -2.5t11 -5.5t-3.5 -9.5q-45 -33 -83.5 -75t-73.5 -84q-18 -20 -35 -40.5t-34 -41.5l16 5q21 5 44.5 8t44.5 -1q13 -4 27.5 -15t13.5 -26q-1 -9 -8.5 -11.5
t-18 -1.5t-20.5 3.5t-15 3.5q-23 2 -45.5 -0.5t-45.5 -7.5l-34 -9q-15 -20 -30 -41t-29 -42q-4 -6 -15 -23.5t-24.5 -41t-26 -49t-19 -47t-4 -36t19.5 -15.5q14 0 26.5 9t22 22.5t17.5 28.5t13 25q15 28 24.5 58.5t5.5 62.5q0 2 -2 8.5t-2.5 13.5t1 11.5t7.5 1.5
q10 -2 17.5 -11t9.5 -17q12 -29 6 -61.5t-17 -59.5q-13 -27 -30 -52.5t-41 -45.5q-9 -8 -20.5 -13.5t-23.5 -8t-24 -0.5t-22 10q-12 9 -16.5 21.5t-3.5 26.5t5 28t8 26q12 32 27.5 61.5t32.5 58.5l42 68l-23 -10q-7 -4 -10 2t3 10z" />
    <glyph glyph-name="g_end" horiz-adv-x="240" 
d="M175 389q-32 -5 -60.5 -20t-53.5 -34l-22 -20t-19 -23q-3 -4 -8 -11t-8 -15.5t-2.5 -15.5t8.5 -11q13 -6 27.5 0.5t28.5 19t26 26.5t18 22q16 19 29 38q5 6 9 12t13 5q12 -2 13 -11t-1 -18q-9 -32 -26.5 -61.5t-34.5 -58.5l-33 -55q32 5 62 3q7 -1 15.5 -1t13.5 -4t5 -10
t-5 -10q-7 -7 -14 -13t-15 -11q-5 -2 -12.5 -5.5t-13.5 -1.5q-8 4 -13 5.5t-14 1.5q-11 -2 -22 -3.5t-22 -3.5q-20 -32 -41 -63t-44 -61q-39 -53 -81.5 -105.5t-95.5 -91.5q-10 -8 -22 -15.5t-25.5 -12.5t-27 -5.5t-26.5 6.5q-14 8 -18.5 21t-3 27.5t6.5 29t11 25.5
q28 56 72 104t93 86q39 30 83 55.5t92 39.5l50 76q0 1 2 3l-12 -6q-15 -7 -33 -10t-33 7q-12 8 -17 22t-3 28q2 19 11 37.5t22 35t29 30t33 23.5q17 11 36 18.5t40 6.5q9 0 16.5 -2t15.5 -5q7 -4 8.5 -11t-7.5 -9zM-135 -66l54 72t53 74q-32 -14 -62 -33t-57 -41
q-51 -42 -95 -94q-9 -11 -20 -24t-20.5 -27t-16 -29.5t-7.5 -30.5q-1 -8 2 -11.5t8 -4t10.5 1t10.5 3.5q16 7 29 18t25 22q23 24 44.5 50.5t41.5 53.5z" />
    <glyph glyph-name="h_end" horiz-adv-x="324" 
d="M128 428l-41 -49l-32 -40q10 8 19 14.5t20 13.5q8 6 18.5 12.5t22 11t23 5.5t21.5 -4q12 -6 17.5 -18.5t3.5 -26.5q-4 -23 -17 -44.5t-26 -41.5q-3 -6 -9.5 -16t-12 -21.5t-7.5 -22t4 -17.5q0 -1 -1 -1q6 -6 13.5 -6.5t15.5 2t15 7t12 8.5q20 17 30 40.5t5 48.5
q-2 12 3.5 13.5t13.5 -0.5q11 -3 19 -10.5t10 -19.5q6 -25 -7.5 -50t-31.5 -41q-12 -11 -30.5 -20.5t-38 -11.5t-36.5 4.5t-26 26.5q-5 12 -4.5 24.5t4.5 25t9.5 25t10.5 23.5l24 47l11 25q2 2 3 9t1 6v1q-7 3 -17.5 -1.5t-17.5 -8.5q-15 -9 -29.5 -19.5t-28.5 -21.5
q-26 -22 -50 -46t-47 -50l-22 -24q-4 -4 -8 -9.5t-9 -7.5q-6 -2 -11.5 0.5t-7.5 7.5q-3 7 0.5 12.5t5.5 10.5q19 30 38 59t39 57q40 57 83 111.5t89 106.5q23 26 46 51t48 48l15.5 15.5t20.5 17t22.5 11.5t20.5 -2q9 -7 10.5 -16t-1.5 -19t-8.5 -19t-10.5 -16
q-18 -24 -39 -46t-44 -43q-23 -20 -47 -40t-49 -38zM330 636q-2 0 -3 -1q1 0 1.5 0.5t1.5 0.5z" />
    <glyph glyph-name="i_end" horiz-adv-x="165" 
d="M110 403q-6 -12 -15 -22t-18 -21q-10 -13 -19.5 -26t-17.5 -27q-10 -15 -18 -30t-14 -31q-2 -5 -4.5 -12.5t-4 -15.5t-1 -15.5t5.5 -11.5q7 -6 16.5 -5t19 5.5t18.5 10t15 9.5q21 16 36 34q5 5 13 5.5t6 -10.5q-8 -44 -43 -70q-20 -14 -47.5 -20.5t-49.5 7.5
q-19 12 -23 32.5t-0.5 43.5t12.5 45.5t16 37.5q24 51 62 92q15 17 39 11q6 -1 13 -4.5t3 -11.5zM111 486q-5 12 1 26.5t16.5 24t22.5 10.5t19 -14q4 -11 -2 -24.5t-17 -22.5t-22.5 -11t-17.5 11z" />
    <glyph glyph-name="j_end" horiz-adv-x="207" 
d="M-25 291q12 25 31 47t40 41q9 8 22 19.5t27 21t29 14t28 -1.5q9 -4 11 -13t0 -19t-6 -20t-6 -16q-11 -33 -27.5 -63t-32.5 -60q-17 -29 -33.5 -58t-34.5 -57q4 0 12 2q67 8 127 -14q23 -8 38 -23t17 -41q1 -14 -8.5 -10t-16.5 8q-23 13 -50 21q-29 10 -58.5 13t-59.5 1
q-8 -1 -15.5 -2t-15.5 -3l-24 -36t-25 -36q-39 -56 -81.5 -110.5t-93.5 -101.5q-11 -9 -23 -19.5t-25.5 -19t-28.5 -13.5t-30 -5q-17 0 -25 8.5t-10 21t0.5 26.5t7.5 25q24 59 69 108t93 88q36 29 77.5 54t86.5 42q21 35 41 69.5t40 69.5q13 23 25.5 46t23.5 46
q5 11 10 20.5t11 20.5l4 8l-12 -8t-11 -8q-13 -10 -24 -20.5t-22 -19.5l-45 -37q-5 -4 -9 -6.5t-9 -6.5q-4 -2 -8 0t-1 7zM-189 -105q32 40 61.5 81t57.5 83q-38 -15 -71.5 -37t-63.5 -48q-47 -41 -86 -94q-17 -23 -33 -53q-6 -12 -11.5 -26.5t-3.5 -28.5q8 -2 19 3t18 10
q12 8 22 16t21 17q19 18 36 37.5t34 39.5zM162 503q-10 17 -2.5 37.5t18.5 33.5q11 11 26.5 10.5t23.5 -14.5q10 -20 0 -34.5t-22 -27.5q-10 -9 -22 -15t-22 10z" />
    <glyph glyph-name="k_end" horiz-adv-x="298" 
d="M42 323l-14 -24q17 17 35 32.5t38 29.5q20 15 43.5 29t49.5 19q16 3 30 -1.5t22 -18.5q11 -22 0.5 -46t-24.5 -41q-28 -33 -69.5 -55t-85.5 -32q24 -14 48.5 -27t50.5 -24q14 -7 29 -13t31 -12q8 -2 15 -4.5t15 -4.5q6 -2 17 -4t14 -8t-1 -10t-10.5 -7t-13 -4.5
t-9.5 -2.5q-15 -2 -30.5 0t-29.5 7q-20 8 -38 19t-35 22l-41 29q-12 10 -24 19.5t-24 20.5q-6 6 -6 10.5t3.5 7.5t9.5 5.5t11 4.5q29 14 58.5 30t55.5 37q4 3 14.5 12.5t20 20.5t15 22t-1.5 17v-1q-8 5 -22 0.5t-22 -7.5q-16 -8 -31 -17t-29 -20q-26 -19 -50 -41t-47 -45
q-11 -12 -21 -24t-21 -24q-3 -4 -6.5 -10.5t-8.5 -12t-10.5 -8.5t-11.5 1t-6.5 10t1.5 12.5t6 13t6 10.5q8 17 16 32.5t17 32.5q20 36 41 71.5t44 70.5q35 56 72 109t79 103q6 7 17.5 21.5t25.5 26.5t28.5 16.5t25.5 -8.5q6 -6 6 -14.5t-3 -17.5t-7.5 -17t-7.5 -14
q-11 -20 -22.5 -39t-25.5 -37q-27 -38 -56.5 -73.5t-60.5 -69.5q-16 -17 -32 -33l-33 -33zM96 409q18 20 35 41l34 42q16 22 32 44.5t30 45.5l28 47l4 8l-3 -3q-10 -11 -19 -22t-18 -23q-20 -25 -37 -49.5t-34 -50.5zM273 674q-2 -2 0 -3v3z" />
    <glyph glyph-name="l_end" horiz-adv-x="176" 
d="M71 349q-5 -2 -10.5 -5.5t-10.5 -5.5q-6 -14 -11 -28t-9 -28q-4 -13 -7 -28.5t-4 -31t2.5 -30t12.5 -25.5t20.5 -14.5t24 -3t25 5.5t22.5 12q8 6 10.5 2t3.5 -12q2 -14 -4 -26.5t-19 -18.5q-29 -14 -57.5 -4.5t-46.5 32.5q-21 27 -27 58t-2.5 63t14 63.5t24.5 58.5
q30 60 72.5 113t92.5 98q25 23 51 43.5t54 38.5q14 8 27.5 15t27.5 12q6 2 12 3l12 2q4 0 13 -0.5t12 -4.5q12 -8 13 -19.5t-3 -24t-11 -24t-13 -19.5q-18 -27 -39 -50.5t-44 -46.5q-37 -36 -77 -68.5t-83 -59.5q-17 -11 -34 -21.5t-34 -20.5zM169 509q-29 -30 -54.5 -64
t-46.5 -71q38 24 74 50t69 56q25 21 47.5 44.5t44.5 48.5q11 12 20 24.5t19 26.5q5 8 11.5 17.5t10.5 20.5q-9 -5 -20 -12t-14 -9q-15 -9 -29 -19t-28 -21q-55 -42 -104 -92z" />
    <glyph glyph-name="m_end" horiz-adv-x="714" 
d="M503 315q-1 0 -2 1q-11 3 -26.5 -2.5t-23.5 -9.5q-28 -14 -58 -33q-26 -17 -53.5 -35.5t-56.5 -29.5q-20 -7 -37 1t-17 31q1 13 7 24.5t14 22.5q5 9 13 20t13 23q-15 -4 -29 -15t-25 -19q-15 -11 -30 -23.5t-30 -24.5q-29 -27 -57 -47q-9 -8 -21.5 -15t-25.5 -1
q-12 5 -14.5 16t0.5 23t9 23.5t10 18.5q9 17 18.5 33t19.5 33l18 34l4.5 9t4.5 10q-3 -1 -6 -2.5t-5 -1.5l-34 -17q-15 -8 -29.5 -17.5t-28.5 -19.5l-43 -35q-4 -3 -7 -7q-4 -3 -7 0t0 8q17 24 37.5 45t43.5 40q9 7 23 18.5t29.5 20t31 10.5t27.5 -8q10 -8 10.5 -19
t-4 -22.5t-11.5 -22.5t-12 -18q-10 -16 -19 -32t-17 -33l-15 -30q5 4 9.5 8t9.5 8l55 46q39 32 82 61q13 8 26 12t27 -2q12 -5 18.5 -14.5t6.5 -21.5q0 -15 -8.5 -26t-14.5 -24l-9 -18q5 2 10.5 4.5t10.5 5.5l67 34q14 8 28.5 14.5t28.5 14.5q14 7 28.5 13.5t31.5 7.5
q26 1 39 -17t11 -43q-2 -14 -6 -28l-8 -28q-2 -4 -4.5 -11t-5 -14.5t-2.5 -14.5t3 -11q-2 1 3.5 1.5t7.5 1.5l23 10q11 5 22.5 10.5t24.5 10.5q23 11 48 20.5t52 7.5q11 0 21.5 -2.5t19.5 -8.5q4 -2 12.5 -10t5.5 -14q-4 -5 -14 -1.5t-15 4.5q-12 1 -23.5 -1.5t-24.5 -4.5
q-24 -6 -48 -14t-48 -18q-8 -3 -18.5 -8.5t-22 -10t-22.5 -6.5t-21 3q-16 8 -19 25.5t-1 34.5q1 13 3.5 25t5.5 25q1 6 2 12.5t1 12.5q1 3 0 8t0 6h2zM263 256q0 -3 3 0h-3z" />
    <glyph glyph-name="n_end" horiz-adv-x="389" 
d="M-29 291q14 22 30 42t36 38q8 7 19.5 15.5t24 13.5t25 5.5t24.5 -7.5q11 -9 12 -22.5t-3 -26.5q-5 -15 -12 -28.5t-15 -26.5q-4 -8 -7 -15t-7 -14q-2 -5 -4.5 -10t-4.5 -10q2 2 3 2l23 21l49 52q20 23 44 44.5t53 31.5q8 3 17.5 3.5t18.5 -2t15 -8.5t8 -16
q2 -14 -3.5 -26t-11.5 -23q-9 -15 -17.5 -30t-17.5 -29q-6 -12 -14.5 -28t-13.5 -32.5t-5 -32.5t10 -29q10 -12 24 -9t27 13.5t24 24t16 21.5q4 5 7 11t6 11q2 4 3.5 9t4.5 7q10 7 15.5 -2.5t7.5 -16.5q8 -28 -6 -55t-37 -43q-20 -14 -48 -20.5t-52 5.5q-15 8 -25.5 23
t-13.5 32q-7 29 2 58.5t21 55.5q12 25 27 51q4 7 8.5 14.5t8.5 15.5q-15 -7 -28 -19q-14 -13 -27.5 -26.5l-27.5 -27.5q-13 -13 -25.5 -26.5t-26.5 -24.5q-11 -10 -24 -18t-29 -8q-20 0 -26.5 16.5t0.5 33.5q6 17 13 32.5t15 32.5l4 8t6.5 13.5t6.5 15.5t4 14q-8 2 -19.5 -6
t-16.5 -12q-11 -8 -21 -15t-21 -15q-8 -7 -16.5 -13.5t-18.5 -12.5l-4.5 -4.5t-5.5 -3.5q-2 0 -6 1.5t-2 6.5z" />
    <glyph glyph-name="o_end" horiz-adv-x="251" 
d="M115 412h9.5t10.5 -2q15 1 30 -9.5t20 -26.5q9 -29 -4 -58.5t-30 -51.5q-22 -29 -51.5 -53t-65.5 -33q-16 -3 -32 -1.5t-28 14.5q-12 14 -11.5 33t5.5 36q9 37 31 69.5t52 55.5q14 11 30.5 18t33.5 9zM121 340q-22 13 -20 38l-12 -10q-13 -10 -23.5 -22.5t-20.5 -25.5
q-11 -13 -19 -26.5t-16 -27.5q-2 -4 -6 -11t-7 -15.5t-3.5 -16t4.5 -12.5q5 -7 16.5 -3t16.5 7q15 8 28.5 18.5t25.5 21.5q10 9 22.5 20.5t23 25t17.5 28t7 29.5q0 5 -4 11.5t-9 10t-10 3t-8 -8.5q-2 -7 0.5 -10.5t7 -6.5t8.5 -5.5t6 -6.5q2 -7 -0.5 -9.5t-7.5 -2t-10 2.5
t-7 4z" />
    <glyph glyph-name="p_end" horiz-adv-x="302" 
d="M-25 291q9 20 23.5 38.5t31.5 32.5q6 6 16 13t20.5 11.5t20.5 4t17 -11.5q4 -7 1.5 -15t-6.5 -16q9 8 18.5 15.5t19.5 15.5q7 6 20.5 15t28 14.5t27.5 4.5t21 -16q7 -12 6 -27t-6 -30t-12.5 -29.5t-13.5 -24.5q-16 -25 -38 -47t-49 -37.5t-56.5 -22t-60.5 -0.5h-3l-8 -13
q-38 -59 -76 -116t-82 -111q-10 -12 -20.5 -23.5t-21.5 -22.5q-8 -8 -18 -15t-22 -1q-10 5 -8.5 16.5t7.5 24.5t14.5 24.5t11.5 16.5q38 60 81 116t89 110l12 14q-3 2 -6.5 6t-5.5 8.5t-1.5 8t6.5 5.5q5 1 10 -1t9 -4l6 -2l28 34l1 1q11 16 20.5 32t19.5 33l16 26l-12 -9
l-16 -14t-17 -14q-8 -6 -15 -11.5t-15 -10.5q-2 -2 -9.5 -3t-3.5 7zM60 277q-8 -15 -17 -30.5t-18 -29.5q14 0 29 3q31 5 58.5 21t50.5 39q23 24 37 53q1 2 3 10.5t4.5 18t3.5 16.5t0 7h-2q-16 2 -31.5 -8t-27.5 -19q-17 -14 -34 -28.5t-32 -29.5zM-142 33q0 -1 -0.5 -1.5
t-0.5 -1.5l16 23z" />
    <glyph glyph-name="q_end" horiz-adv-x="239" 
d="M-554 -55q11 26 34.5 44t49.5 27q32 12 64.5 19.5t65.5 14.5q138 30 279 36q10 0 14 1l92 117l10 16q-5 -4 -11 -8.5t-11 -7.5q-8 -5 -17 -11.5t-18.5 -11.5t-19.5 -7t-20 2q-12 4 -16.5 13t-4.5 19t3.5 20.5t6.5 18.5q17 44 48 78.5t69 58.5q20 12 42.5 20t46.5 8
q17 1 36 -5q8 -4 6.5 -12.5t-11.5 -6.5q-19 2 -38 -3t-37 -14t-34 -21t-29 -24q-30 -27 -52 -61q-11 -14 -18 -30l-8 -17q-1 -4 -0.5 -8t0.5 -7v-1q6 -2 18.5 4.5t17.5 11.5q15 8 28 18.5t26 21.5q18 14 34 29.5t33 30.5l30 27q4 3 8.5 6t9.5 0q9 -5 5.5 -13t-7.5 -14
l-81 -121l-79 -114q51 2 101 -0.5t100 -9.5q29 -4 58 -10t55 -20q3 -2 8 -5t8 -6q4 -5 0.5 -10.5t-9.5 -5.5q-3 0 -6.5 2t-6.5 3q-5 3 -12 5t-13 4q-52 14 -107 16t-109 0l-48 -2t-47 -3q-14 -20 -27.5 -40.5t-27.5 -41.5q-20 -29 -38 -59t-34 -62q-15 -29 -26.5 -62
t-8.5 -68q0 -5 2.5 -13.5t0.5 -14.5q-2 -5 -7.5 -6t-10.5 2q-11 7 -17.5 19.5t-10.5 23.5q-11 32 -3 64t21 61q23 53 55.5 100t66.5 92q-23 -2 -47 -5t-47 -6q-57 -8 -113 -18.5t-111 -25.5q-26 -7 -52 -15t-51 -20q-21 -9 -39 -20q-9 -7 -12 -1t0 14z" />
    <glyph glyph-name="r_end" horiz-adv-x="237" 
d="M-34 291q16 18 31.5 36.5t29.5 38.5q11 15 20 29q-8 21 0 43q4 12 14.5 23.5t24.5 4.5q11 -5 14.5 -13.5t2 -18.5t-7 -20.5t-11.5 -20.5q4 -1 8 -0.5t9 1.5q7 1 16 3t18 2.5t17.5 -1t15.5 -7.5q10 -8 7 -13.5t-11 -12.5q-13 -12 -25.5 -24t-23.5 -25q-11 -12 -21 -24.5
t-18 -26.5q-3 -4 -8 -11t-8.5 -14.5t-5 -15.5t2.5 -13q1 0 2 -0.5t2 -0.5h2q5 -2 11 -0.5t11 3.5q11 5 20.5 13t18.5 17q18 18 30 34q3 6 6.5 12t5.5 12q3 5 4 10.5t6 7.5q6 3 11.5 -0.5t9.5 -7.5q8 -8 8 -17.5t-5 -19.5q-11 -21 -29 -38t-38 -30q-17 -11 -40 -20t-44 -1
q-21 9 -22.5 30t4.5 40q11 31 32 59.5t49 49.5q-11 -2 -23.5 -1t-22.5 7l-8 -10q-13 -14 -26 -26.5t-27 -23.5q-7 -7 -13.5 -12.5t-14.5 -10.5q0 -4 -7 -4q-3 -1 -4.5 2t0.5 6zM70 436q-1 -2 -2 -3.5t-1 -3.5zM76 441q-2 0 -2 -1q1 0 2 1z" />
    <glyph glyph-name="s_end" horiz-adv-x="234" 
d="M-33 292q29 37 66 73q23 23 49 43q8 6 18 12t21 6q12 0 18 -8t8 -18.5t1 -22t-2 -19.5q-6 -37 -23 -74q20 -2 38 -9t32 -23q16 -19 19.5 -46t-10.5 -48q-8 -11 -24 -20t-30 -3q-10 4 -4.5 13.5t8.5 14.5q6 11 9 24t1 27q-3 20 -17.5 31.5t-32.5 16.5l-15 -22
q-17 -22 -43 -41t-55 -21q-17 0 -27 7.5t-14 19t-1 25t12 24.5q21 23 53 29t61 4l5 10q5 11 9.5 23.5t6.5 25.5q3 13 3 27v6q-10 -5 -18.5 -11t-16.5 -11q-12 -8 -24.5 -16.5t-24.5 -18.5q-10 -8 -20 -15t-19 -15l-10 -9q-4 -2 -7.5 1t0.5 8zM29 225q24 15 41 40
q-19 -1 -36.5 -5.5t-31.5 -15.5l-6 -6t-7 -8.5t-3.5 -9t3.5 -7.5q8 -5 21 1.5t19 10.5z" />
    <glyph glyph-name="t_end" horiz-adv-x="168" 
d="M-48 458q22 17 50.5 21t54.5 5q17 1 32.5 1.5t32.5 0.5q13 12 26 23.5t27 22.5q52 42 111 75q14 8 34 14.5t36 -3.5q15 -10 14 -22t-10 -23.5t-21.5 -21.5t-19.5 -16q-11 -11 -22.5 -22t-23.5 -22q51 2 102 3.5t103 4.5q63 3 126 9q14 2 27 3.5t27 3.5q9 1 12.5 -4
t-3.5 -13q-9 -10 -20.5 -15t-24 -8t-25.5 -4t-25 -2q-35 -4 -68.5 -5.5t-67.5 -2.5q-51 -2 -101 -2.5t-101 -1.5l-15 -12q-38 -32 -76.5 -60t-77.5 -56l-34 -23q-1 0 -2 -1q-13 -23 -22 -48.5t-15 -51.5q-7 -33 -4 -70q1 -5 2.5 -11t0.5 -12q1 -8 -7.5 -9.5t-11.5 6.5
q-14 49 -9.5 96t21.5 90.5t44.5 83t60.5 74.5q-33 0 -64 -3q-14 -1 -28.5 -2.5t-28.5 -4.5q-4 -1 -9 -2t-9 2q-5 2 -3.5 7t5.5 8zM185 488q2 0 4.5 0.5t4.5 0.5q11 0 22.5 0.5t22.5 0.5l35 33q8 9 17 17.5t17 19.5q3 3 7 11q-6 -3 -9 -3q-11 -4 -20.5 -9t-19.5 -11
q-19 -11 -37 -24.5t-35 -27.5zM67 363q-2 -3 -4 -5.5t-4 -5.5q34 23 67 48.5t66 51.5l5 4q-10 0 -20 -0.5t-20 -0.5q-2 0 -5 -0.5t-5 -0.5q-43 -41 -80 -91zM321 597q-1 -2 -0.5 -2t0.5 -1v3zM333 575q0 -1 3 -1q-1 0 -1.5 0.5t-1.5 0.5z" />
    <glyph glyph-name="u_end" horiz-adv-x="367" 
d="M-34 291q17 23 37.5 43.5t44.5 37.5q6 4 14.5 9.5t17.5 8t17.5 1.5t15.5 -8q8 -8 9.5 -18t-1.5 -21.5t-8.5 -22t-10.5 -17.5q-8 -11 -17 -22.5t-17 -23.5q-2 -2 -6.5 -8.5t-9 -13.5t-8 -14t-2.5 -10q13 0 29.5 12l27.5 20l34 28t33 29q33 31 63 63q3 3 10.5 12.5t16.5 18
t16.5 11t10.5 -8.5q2 -8 -5 -17t-11 -15q-5 -6 -9 -12.5t-9 -13.5q-11 -17 -22 -35.5t-20 -38.5q-2 -5 -6.5 -14.5t-8 -20t-3.5 -20t7 -14.5q10 -6 22 -3t23.5 10t21.5 16t16 15q11 11 20 23.5t16 26.5q3 6 5.5 13.5t0.5 15.5q-1 5 0 13t11 4q8 -2 15 -7t10 -10q8 -13 6 -25
t-8 -24q-12 -28 -33 -49.5t-47 -36.5q-21 -12 -46.5 -19t-48.5 7q-12 7 -17 17.5t-6 22t2 23t7 22.5q4 15 12 30l-24 -23l-32 -28t-33 -26q-6 -4 -14.5 -9t-17.5 -8.5t-18.5 -3.5t-16.5 6q-12 10 -11.5 25t7.5 31.5t16 31.5t15 24l18 31q3 6 5.5 13t6.5 12q-5 -2 -10.5 -4.5
t-8.5 -4.5q-10 -5 -20 -11.5t-18 -13.5q-22 -14 -37 -29q-3 -2 -6.5 -6.5t-8.5 -4.5q-3 -1 -5 2t1 6z" />
    <glyph glyph-name="v_end" horiz-adv-x="298" 
d="M73 387q-4 -22 -14 -41.5t-19 -39.5q-13 -24 -24 -48t-19 -50q17 1 35 11.5t31 18.5q29 17 55.5 38.5t49.5 45.5q23 23 43 49t35 55q13 24 23 53.5t5 58.5q-1 22 18 13q10 -5 18.5 -10.5t14.5 -14.5q8 -13 8 -28.5t-4 -31t-11 -30.5t-13 -27q-32 -58 -83 -101.5
t-108 -75.5q-15 -9 -30 -16t-32 -15q-11 -5 -22.5 -11t-23.5 -9q-7 -2 -14 -2.5t-14 1.5q-14 4 -15 17t1 24q5 33 16.5 64t25.5 61q8 14 15 26t21 19q3 1 8.5 3.5t11 3t9 -1.5t2.5 -9z" />
    <glyph glyph-name="w_end" horiz-adv-x="361" 
d="M85 385q-3 -23 -18.5 -42.5t-26.5 -39.5q-8 -11 -14 -23.5t-11 -25.5q-1 -3 -2.5 -8.5t-3 -12t-1.5 -12t2 -8.5q3 -3 8.5 -1t11.5 5.5t11.5 7.5t7.5 5q14 10 25 21t22 23l8 8q1 21 13 44q4 7 10.5 19.5t15.5 23t19.5 15t21.5 -2.5q8 -6 9 -14t-2 -16t-8 -16t-9 -14
l-18 -27q-1 -5 -1 -13q0 -4 -0.5 -12t0 -16.5t3.5 -15t9 -6.5q10 0 19.5 6.5t18 15t15 18.5t11.5 18q17 28 29 58t20 62q7 27 10.5 55t-1.5 56q-1 5 -6 16.5t1 16.5q5 2 13 0t13 -4q14 -8 20.5 -20t8.5 -26t1 -29t-3 -28q-9 -65 -39 -125q-14 -28 -32.5 -55.5t-44.5 -47.5
q-11 -9 -23.5 -14.5t-26 -7t-26 2.5t-22.5 16q-8 10 -13 22l-18 -17q-9 -8 -20.5 -17.5t-24 -16.5t-26 -9.5t-26.5 2.5q-14 6 -19.5 18t-6 26t2.5 29t6 26q18 57 55 104q6 7 13.5 15t16.5 12q14 5 18.5 -4.5t3.5 -19.5z" />
    <glyph glyph-name="x_end" horiz-adv-x="390" 
d="M-135 -19q0 28 16.5 50t32.5 42q21 26 43.5 50.5t45.5 48.5l70.5 70.5t71.5 70.5q-8 16 -20 34t-29 20q-8 -1 -15.5 -5t-13.5 -9q-11 -8 -20.5 -16.5t-20.5 -16.5l-37 -29q-1 -1 -4.5 -3t-7 -3.5t-5.5 -0.5t0 7q14 24 33 46t42 37q15 11 32 18.5t36 2.5q19 -7 34 -21
t28 -31l26 23q51 46 104.5 87.5t113.5 73.5q14 7 27.5 12t28.5 3q7 -1 17.5 -4.5t13.5 -9.5t1.5 -9.5t-6 -6.5t-10 -5t-8.5 -4q-14 -8 -29 -15t-29 -15q-60 -35 -115 -78t-108 -90q18 -27 33.5 -56t36.5 -53q10 -11 22.5 -19.5t26.5 -12t27.5 -1t25.5 13.5q9 9 15.5 21.5
t9 26.5t0.5 27.5t-9 24.5q-6 11 -0.5 15t15.5 2q13 -3 22.5 -12.5t15.5 -20.5q13 -30 2 -59t-35 -48q-23 -18 -51 -24.5t-57 -0.5q-29 5 -51.5 23.5t-40.5 41.5q-14 18 -24.5 37.5t-20.5 39.5l-64 -60q-37 -35 -73 -71t-71 -73q-16 -17 -31.5 -33t-29.5 -33l-21 -27
q-5 -7 -8.5 -2.5t-3.5 9.5z" />
    <glyph glyph-name="y_end" horiz-adv-x="258" 
d="M62 358q-2 -5 -9 -16t-14 -23t-10.5 -23t2.5 -15q7 -2 14 2t13 7q14 8 27 19t27 22l47 44l24 22q5 5 11.5 9.5t11.5 10.5q4 4 9.5 4.5t10 -1.5t6.5 -7t0 -11q-2 -8 -6 -16t-9 -15l-32 -43q-28 -40 -55.5 -79t-56.5 -78l-12 -16q13 1 27.5 2t29 -0.5t27 -6.5t21.5 -15
q4 -4 9.5 -13t0.5 -16q-5 -5 -13 -3.5t-13 2.5q-18 3 -38 3q-47 0 -90 -9q-42 -60 -86 -118t-94 -112q-20 -23 -44 -45t-54 -36q-26 -11 -49.5 0t-24.5 42q0 30 16 60.5t33 53.5q19 26 42 50.5t48 44.5q42 34 90.5 60.5t101.5 41.5q40 57 84 114l22 29q-17 -15 -38.5 -28
t-42.5 -8q-14 3 -21 12t-9.5 20.5t-1 24t4.5 23.5q4 12 12.5 27t22.5 18q8 1 19 -1.5t9 -13.5zM-44 78q-48 -19 -90 -47q-27 -17 -51.5 -38.5t-45.5 -44.5q-20 -23 -39 -50.5t-27 -57.5q-3 -11 -1 -20t15 -10q16 -2 30.5 9t24.5 22q24 23 44.5 49.5t40.5 52.5l71 97z" />
    <glyph glyph-name="z_end" horiz-adv-x="252" 
d="M-31 291q13 21 29.5 39t35.5 34q23 19 53 35t61 12q10 -2 18.5 -7t10.5 -15q5 -14 -2.5 -27t-16.5 -24q-11 -13 -23 -24t-26 -22l-12 -10q3 1 6 1q12 1 24 -2.5t17 -15.5q5 -11 4 -24.5t-5.5 -26.5t-10.5 -25.5t-11 -22.5l-10 -20q12 4 24.5 5.5t23.5 -2.5q7 -2 15.5 -6
t9.5 -12q1 -12 -9.5 -14.5t-18.5 -4.5q-20 -5 -39.5 -13t-38.5 -18q-23 -41 -48.5 -79.5t-51.5 -76.5q-19 -27 -39 -53t-43 -49q-8 -8 -19 -18t-23 -17.5t-25 -10t-25 5.5q-10 6 -13 15t-2.5 19.5t4 21t6.5 18.5q13 29 33 55.5t41 49.5q37 44 80.5 83.5t93.5 68.5l12 22
q17 28 33 62q4 10 10 23.5t6 24.5q-8 1 -17 -2t-15 -4q-8 -2 -17.5 -2t-17.5 2q-10 4 -13.5 13.5t1.5 19.5q8 16 24.5 28t30.5 23l16 14t16 15q3 2 11 9.5t11 13.5q-5 0 -12.5 -2l-15 -4t-13.5 -4t-7 -2q-15 -7 -29 -14.5t-27 -17.5q-11 -8 -21 -16.5t-20 -17.5l-16 -14
q-3 -3 -6.5 -0.5t-1.5 7.5zM-93 -94q21 27 41 55t39 57q2 2 4 6l-25 -20q-24 -20 -46.5 -42t-42.5 -47q-11 -11 -20 -23.5t-17 -26.5q-9 -12 -15 -27q-1 -2 -2 -5t-1 -10q10 0 21.5 11.5t17.5 18.5q13 12 24 25.5t22 27.5zM-178 -177q0 -4 2 -4q1 1 1 2zM145 374q-1 0 -3 2
q3 -3 3 -2zM141 378q1 -1 0 -1v1z" />
    <glyph glyph-name="A_alt" horiz-adv-x="731" 
d="M80 -54q7 28 26 53q3 5 6.5 10t8.5 9q5 5 11.5 7.5t12.5 5.5q12 7 22 21t18 24q33 39 66.5 78t65.5 79l8 10q-56 -1 -111 -7t-109 -16q-17 -3 -33.5 -6.5t-33.5 -7.5q-7 -2 -15 -4t-13 3t-4.5 11t6.5 10q11 8 22 14t24 10q15 7 27 8q8 2 16.5 0t17.5 0q59 8 116.5 13.5
t115.5 3.5l101 123q48 59 96 116.5t99 115.5q10 11 21 26t25 23q10 5 19.5 5.5t20.5 -0.5h6.5t7.5 -1q6 -1 6.5 -7t-5.5 -6q-9 -11 -16 -24.5t-14 -26.5q-9 -15 -16 -30.5t-15 -31.5q-14 -32 -26 -64t-23 -65q-17 -53 -29.5 -107t-18.5 -110q20 -13 37 -33
q20 -23 29.5 -52.5t3.5 -59.5q-4 -20 -17 -39t-36 -19q-19 0 -32 13t-21 28q-13 22 -14.5 45.5t-0.5 47.5l2 32t3 32q-36 18 -77 25.5t-77 9.5q-3 0 -6.5 0.5t-6.5 0.5l-151 -179l-91 -107l-26 -31q-4 -3 -7.5 -6t-8.5 -2q-13 0 -14.5 10t1.5 19zM452 329q-13 -14 -25 -28.5
t-24 -28.5q36 -5 73.5 -13t71.5 -23q5 29 11.5 58t14.5 58q14 51 32.5 100.5t42.5 97.5l15 31l-3 -4l-74 -88zM618 140q-12 20 -31 38q0 -7 -0.5 -13.5t-0.5 -13.5q-1 -16 -0.5 -31.5t2.5 -31.5q0 -4 1 -12t3 -16t5.5 -14t9.5 -6q13 0 18 15t7 25q2 16 -2 31t-12 29z" />
    <glyph glyph-name="B_alt" horiz-adv-x="553" 
d="M157 540q-2 16 5 25.5t19 17.5q14 11 29 20t31 17q31 16 63 28t66 21l20 5l20 16q17 13 26 -7v-1q17 2 34.5 3t34.5 1q15 0 30.5 -2t30 -6t27.5 -11.5t23 -19.5q15 -18 15 -38.5t-8 -41t-21 -39t-25 -32.5q-45 -52 -98.5 -93.5t-110.5 -76.5q-32 -20 -63 -37t-63 -33
q53 6 102 -1q29 -6 55 -20.5t40 -42.5q19 -37 9 -80q-8 -40 -31.5 -73.5t-52.5 -59.5q-40 -35 -89 -58.5t-101 -33.5q-30 -6 -60 -9h-15.5t-20 1.5t-14 6t1.5 12.5q7 10 16 13.5t19 4t20.5 -1t21.5 -0.5q20 2 40 8.5t39 14.5q30 12 58.5 29.5t53 41t42.5 51.5t26 60v1
q3 21 -0.5 40.5t-21.5 33.5q-25 20 -57.5 24.5t-62.5 5.5q-11 0 -23 -0.5t-25 -1.5q-12 -1 -24.5 -3t-24.5 -1q-5 -1 -10 2.5t-5 9.5q-1 7 3.5 10.5t9.5 6.5q60 30 118 65t112 76q27 20 53 42t50 45t46.5 48.5t36.5 55.5q3 8 5 15t0 16q1 -1 1 1q-3 10 -13.5 16t-23.5 8.5
t-25.5 3t-21.5 0.5q-28 0 -55 -3.5t-54 -9.5q-14 -16 -27 -32.5t-26 -33.5q-53 -72 -97 -147t-86 -152q-20 -35 -38.5 -70.5t-35.5 -70.5q-8 -15 -15.5 -30.5t-15.5 -30.5q-7 -14 -19 -14.5t-21 13.5q-7 2 -3 15.5t11.5 29t15 29.5t9.5 17q14 28 28.5 55t29.5 54
q34 61 69 120.5t75 116.5q20 29 40.5 58t43.5 56q-22 -7 -43.5 -15t-42.5 -19q-14 -8 -27.5 -15.5t-27.5 -15.5q-4 -3 -12.5 -10.5t-13.5 -5.5q-3 1 -3.5 5t-0.5 7z" />
    <glyph glyph-name="C_alt" horiz-adv-x="552" 
d="M669 646q-5 -19 -21 -29.5t-30 -21.5l-12 -11l-9 -26q-6 -15 -16.5 -34.5t-27.5 -24.5q-15 -2 -25.5 10t-9.5 25q1 20 13.5 37t25.5 30q15 15 32 29v1q1 11 -2 25.5t-17 17.5q-17 3 -34 -1.5t-34 -11.5q-63 -25 -115.5 -65.5t-99.5 -88.5t-89 -100.5t-77 -110.5
q-17 -29 -31.5 -58t-24.5 -61q-4 -11 -7.5 -25t-5 -28.5t1 -28t11.5 -23.5t22 -13.5t26.5 -3.5t27.5 3t25 6q32 9 62 22.5t59 30.5q53 30 99.5 67.5t96.5 70.5q5 3 12 3.5t2 -9.5q-7 -10 -14 -19.5t-15 -18.5q-20 -23 -43 -43t-47 -38q-51 -39 -106.5 -71.5t-118.5 -45.5
q-29 -7 -60.5 -4.5t-54.5 22.5q-16 14 -24 33t-9 40q-1 33 9 65.5t22 62.5q13 32 29.5 61.5t34.5 58.5q71 113 169 212q24 23 49.5 45t53.5 41q26 18 55.5 34t61.5 24q20 5 40 5t40 -6q21 -6 32 -21.5t13 -36.5q2 2 3 2t3 2q4 3 13 6.5t17.5 4t14.5 -3t4 -14.5z" />
    <glyph glyph-name="D_alt" horiz-adv-x="859" 
d="M186 471q11 26 35 41t47 29q27 16 55.5 29.5t57.5 27.5q60 27 123 47t129 31q32 5 65.5 7.5t66.5 -2.5q30 -2 60 -12.5t50 -34.5q12 -15 16.5 -33t4.5 -37t-3.5 -38t-9.5 -35q-11 -31 -28 -59t-38.5 -54t-45 -49.5t-47.5 -44.5q-54 -47 -109.5 -88t-115.5 -79
q-107 -69 -219 -130.5t-232 -104.5q-7 -2 -16.5 -6.5t-17.5 -2.5q-12 3 -9.5 12.5t7.5 15.5q15 23 38.5 38t48.5 26q30 13 61 22t60 23q29 13 56.5 28.5t55.5 29.5q58 33 117 67.5t115 73.5t108 82.5t97 93.5q15 16 30 35t27.5 40t20.5 43.5t10 45.5t-5 43.5t-31 31.5
q-29 13 -63.5 13.5t-66.5 -3.5q-68 -7 -133 -28t-128 -47q-29 -12 -57 -26t-57 -28q-26 -14 -52 -29.5t-54 -26.5q-14 -5 -21.5 1t-2.5 21zM411 500q9 8 21.5 21t26.5 22.5t28.5 13t27.5 -6.5q5 -5 1.5 -15t-10 -21t-14 -21l-10.5 -14l-73 -115q-35 -58 -68.5 -117.5
t-65.5 -120.5q-11 -23 -23 -45t-23 -45q-2 -5 -4 -9t-7 -6q-12 -6 -18.5 2.5t-3.5 17.5q6 23 16.5 45.5t20.5 43.5q14 30 28 59.5t30 58.5q31 62 66 119.5t73 114.5q-5 -3 -10 -3q-8 0 -11.5 7.5t2.5 13.5z" />
    <glyph glyph-name="E_alt" horiz-adv-x="582" 
d="M562 641q-7 -14 -16 -19t-24 3l-12 6t-14 4q-21 0 -38 -4q-71 -10 -139 -44q-31 -15 -59 -34.5t-51 -43.5q-9 -8 -19 -19t-18 -23t-13.5 -25t-3.5 -26v1q1 -13 10.5 -20.5t22 -11t26.5 -4.5t24 -1q14 -1 27.5 0t27.5 -1q14 1 20.5 -12.5t-2.5 -23.5q-4 -5 -9 -7l-10 -4
l-29 -13q-34 -16 -61 -36t-52 -41.5t-46 -48.5q-7 -9 -16.5 -22t-16 -27.5t-9 -29.5t4.5 -28q8 -13 22 -18t30 -5.5t32 2t28 5.5q65 14 126.5 44.5t117.5 67.5q19 13 37 26t37 27q7 5 13.5 9.5t12.5 10.5q3 1 6 4q4 2 7 -0.5t1 -6.5q-17 -28 -41 -50.5t-50 -42.5
q-27 -21 -55 -39.5t-57 -34.5q-30 -17 -61 -31t-63 -24q-32 -11 -65.5 -16t-65.5 3q-30 8 -51.5 31t-22.5 55t13.5 60.5t34.5 52.5q34 40 80.5 73t97.5 53q-20 -1 -39.5 1.5t-36 9.5t-28.5 20.5t-16 34.5q-5 20 2 40t17 37q14 25 34.5 46.5t43.5 39.5q47 38 102 63.5
t114 39.5q25 6 50.5 10t51.5 4q11 0 20.5 -3t15.5 -11q7 -8 4.5 -16.5t-4.5 -16.5z" />
    <glyph glyph-name="F_alt" horiz-adv-x="654" 
d="M256 585l-6 -3l23 4l73 13q26 6 49 9l23 4q4 5 7.5 10.5t8.5 10.5q11 14 23 29t28 25q5 2 11 5.5t12 4.5q8 0 12 -7t-1 -14l-39 -52q5 0 7 1q54 10 107.5 19.5t107.5 18.5q52 9 104 19t105 16q15 2 31 3t32 1t33.5 -0.5t31.5 -5.5q14 -6 25.5 -15.5t20.5 -20.5
q6 -8 13.5 -16.5t-4.5 -18.5q-5 -5 -12 -5.5t-13 -1.5l-32 -3q-8 -2 -15 -3t-15 -2q-34 -6 -67.5 -14.5t-65.5 -18.5q-17 -5 -33 -10.5t-33 -10.5l-32 -12q-6 0 -10 5t3 8q65 29 127 51q26 9 52.5 17.5t52.5 14.5q5 2 9.5 2.5t9.5 1.5q-18 2 -36.5 1.5t-32.5 -0.5
q-35 -2 -70.5 -5t-70.5 -8q-42 -5 -82 -11.5t-81 -11.5q-51 -8 -100.5 -16.5t-100.5 -16.5q-51 -72 -96 -147q-6 -9 -11.5 -18t-10.5 -18l33 7q33 8 66 15.5t66 13.5q17 4 33.5 6t33.5 4q15 2 28.5 -1t27.5 -8q6 -2 11.5 -7.5t3.5 -13.5q-1 -11 -11 -15.5t-19 -8.5
q-25 -9 -48.5 -22.5t-43.5 -31.5q-2 -2 -5.5 -5t-7.5 -4q-6 -1 -10 4.5t-1 11.5q3 8 10.5 16.5t13.5 14.5q8 8 17 14l-30 -6l-136 -27l-67 -15q-37 -61 -72 -122t-67 -124q-23 -45 -44.5 -90.5t-39.5 -93.5l-9 -23q-3 -10 -6.5 -21.5t-16.5 -12.5q-12 -1 -18.5 7t-10 20
t-4 24.5t-0.5 19.5q2 29 7 57t13 55q4 13 7 25t8 23t15.5 11t12.5 -12q2 -5 0 -10.5t-4 -10.5q-2 -7 -3.5 -13t-2.5 -13q-2 -7 -3.5 -13.5t-2.5 -13.5q13 32 30 67q30 62 63.5 120t69.5 118l11 19q-12 0 -24.5 -0.5t-24.5 0.5q-9 0 -12 3q-5 5 -4.5 11.5t5.5 10.5
q1 0 3.5 3.5t4.5 4.5q11 11 22 15q14 8 25 9t26 -3q8 -2 13 -2q20 32 40.5 64t41.5 64q10 14 19.5 28.5t20.5 28.5l-17 -2q-14 -2 -27.5 -4t-27.5 -4l-39 -6q-14 -2 -30.5 -5t-30.5 0q-11 3 -16 11q0 -1 -0.5 0t-0.5 2v3q-2 8 0 14q4 12 13.5 19t20.5 13q14 5 28 9.5t28 6.5
q5 1 8.5 1.5t7.5 -3.5t2.5 -9.5t-6.5 -7.5z" />
    <glyph glyph-name="G_alt" horiz-adv-x="628" 
d="M828 648q-22 -11 -45.5 -18.5t-47.5 -14.5l-49 -18q-16 -17 -34 -31q-10 -8 -23.5 -18t-27.5 -8q-15 2 -20 14.5t0 25.5q7 14 19.5 24.5t26.5 18.5q9 5 19 9.5t20 9.5q5 5 10 13q2 3 6.5 10t5.5 12q-5 4 -13.5 4h-14.5q-18 1 -36 -1t-35 -6q-32 -8 -61 -21t-58 -29
q-59 -33 -109.5 -76.5t-96.5 -92.5t-86 -103t-72 -114q-16 -29 -28.5 -60.5t-20.5 -63.5q-3 -14 -5.5 -30t-1.5 -31.5t5 -30.5t14 -27q9 -13 23 -16.5t28.5 -1t29 8.5t25.5 12q58 33 99 87q19 23 34 53.5t9 61.5q-28 3 -58 12.5t-47 31.5q-8 10 -8.5 22.5t10.5 20.5
q12 10 27.5 8.5t28.5 -6.5q17 -5 34.5 -15t31.5 -21q3 -3 6.5 -6t5.5 -7q31 4 60.5 12.5t57.5 21.5q24 11 46 24.5t48 18.5q8 2 18 0.5t11 -12.5q0 -11 -7.5 -22t-15.5 -18q-20 -20 -48.5 -33t-55.5 -21q-23 -7 -46.5 -10t-46.5 -4q6 -24 3 -50q-5 -31 -20 -58.5t-37 -51.5
t-48 -43.5t-52 -32.5q-22 -11 -47 -19t-50 -9t-47.5 7.5t-38.5 31.5q-20 27 -24.5 59t0 65t15.5 65.5t23 59.5q26 62 61.5 118t76.5 108t87 98t99 84q51 38 111 64.5t125 32.5q12 1 26 2t28 0.5t27.5 -3.5t24.5 -10q16 -10 19 -24t-2 -29l33 6q14 2 27.5 3t27.5 0
q4 -1 7.5 -1.5t7.5 -2.5q4 -5 2.5 -10.5t-6.5 -8.5zM273 245q4 -2 8 -2.5t9 -1.5q-2 1 -6 5q-3 3 -10 7.5t-14.5 8t-14.5 5t-12 -2.5q2 1 6 -3t7 -5q15 -8 27 -11z" />
    <glyph glyph-name="H_alt" horiz-adv-x="872" 
d="M949 752q-11 -23 -24 -44t-27 -43q-17 -28 -34.5 -55.5t-34.5 -56.5q-17 -28 -32.5 -55t-30.5 -56h111q7 0 19 1t17 -5q6 -8 -0.5 -14.5t-17 -11.5t-21.5 -8.5t-14 -3.5q-28 -8 -56.5 -7t-57.5 1h-5q-11 -21 -20.5 -42t-17.5 -43q-12 -29 -22.5 -59t-16.5 -60
q-4 -16 -5.5 -31.5t-2.5 -30.5q0 -7 0.5 -13t1.5 -13q1 -6 2.5 -12.5t2.5 -12.5q2 -6 -0.5 -10t-7 -4.5t-9 1.5t-6.5 7q-6 11 -8.5 23.5t-4.5 25.5q-4 31 0 63t12 63q10 38 23 75t29 74l-75 4q-27 1 -53.5 1.5t-53.5 2.5l-85 -173q-31 -62 -62.5 -124.5t-72.5 -119.5
q-11 -15 -24 -28.5t-32 -14.5q-13 0 -25 6t-22.5 15.5t-19.5 20.5t-16 20q-40 54 -70 116t-53 126q-11 31 -18.5 64.5t-0.5 66.5q5 20 17 29.5t32 14.5q32 9 66.5 12t68.5 5q67 4 136 6h135l11 25q28 60 56.5 119.5t57.5 119.5l56 112q7 12 14 24.5t16 23.5t21 18t28 9h9
t11 -1.5t7 -4.5t-2 -9q-29 -41 -51 -87t-45 -91q-27 -58 -54.5 -115t-55.5 -115q-4 -7 -7 -14l-6 -14q46 0 91.5 -1t92.5 -1q14 31 30 61t33 60q20 38 42 73.5t45 70.5q11 16 22 30t28 23q5 2 9.5 5t9.5 3q8 4 14.5 -2.5t2.5 -14.5zM355 214q23 48 45 95.5t45 96.5
q-69 3 -137 3q-80 1 -159 -3q-25 -2 -52.5 -5t-49.5 -17q1 0 0 -0.5t1 0.5q-8 -7 -7.5 -20t1.5 -22q5 -32 15 -58q9 -29 20.5 -56.5t25.5 -55.5q14 -27 29 -53.5t32 -52.5q8 -13 16.5 -24.5t19.5 -22.5q4 -5 8 -9.5t9 -8.5q4 -4 7.5 -5.5t6.5 -3.5v-1q0 1 1 1q8 7 14.5 17
t11.5 20q19 28 34 61q17 30 32.5 61.5t30.5 62.5z" />
    <glyph glyph-name="I_alt" horiz-adv-x="558" 
d="M418 711q20 22 50 29.5t58 11.5l31 5l14 18q3 3 11.5 9.5t18 10t17 3t8.5 -10.5q1 -13 -3 -25l30 3q32 3 62.5 6t62.5 8q6 1 12.5 2.5t12.5 1.5q5 1 9.5 -3t5.5 -9q1 -6 -2 -9t-8 -7q-9 -7 -18.5 -11.5t-20.5 -9.5t-26.5 -12t-28.5 -6q-8 1 -13.5 4.5t-13.5 3.5t-15 -0.5
t-15 -0.5l-56 -3q-5 -7 -9 -12.5t-8 -11.5q-17 -28 -33.5 -55.5t-33.5 -56.5q-35 -61 -69 -122t-67 -123q-16 -29 -31.5 -58.5t-30.5 -58.5l-19 -38q42 8 83.5 8t82.5 -10q11 -4 22 -11.5t10 -20.5q0 -13 -11.5 -18t-22.5 -4q-6 1 -12 3t-13 4t-14 3t-15 1q-16 2 -32.5 2
t-32.5 -1l-36 -4l-36 -4q-2 -5 -5 -9.5t-6 -9.5q-13 -23 -27 -41q-8 -11 -15 -6.5t-9 14.5q-3 9 -3 19t2 20q-62 -15 -122 -41q-26 -12 -48 -27q-2 -1 -7.5 -4.5t-11.5 -6.5t-11 -2.5t-5 6.5q-1 12 9.5 20t18.5 15q12 9 25 17t27 16q55 28 117 48q10 3 19.5 6t20.5 5
q6 7 9.5 16.5t7.5 17.5l21 40l47 94l46 92t46 91q24 45 48 89.5t52 86.5l9 15l-56 -9q-13 -2 -25 -5.5t-23 -9.5q-5 -2 -10 0.5t-5 8.5q0 5 3.5 7.5t5.5 5.5z" />
    <glyph glyph-name="J_alt" horiz-adv-x="511" 
d="M480 485q-12 -2 -23.5 -5t-22.5 -6q-60 -202 -160 -385q-32 -59 -70 -112q-18 -26 -39.5 -49.5t-48.5 -40.5q-20 -12 -42.5 -12.5t-39.5 17.5q-11 12 -17 26.5t-9 30t-3 31.5v31q3 59 20.5 116t46.5 108.5t68.5 96.5t86.5 80q-9 39 -9 78q-1 66 18.5 131t51.5 122
q17 28 36 55t45 47q17 13 39 21t43 -2q15 -7 23 -20t11.5 -28.5t4 -32t0.5 -30.5q-1 -35 -6 -69.5t-13 -68.5q-6 -26 -12 -51t-13 -51q14 3 28 5.5t28 4.5q11 1 23.5 2.5t22.5 -2.5q3 -1 7.5 -4t9 -6.5t7 -7.5t1.5 -8q0 -3 -5.5 -4t-12 -1t-12.5 0.5t-8 0.5
q-14 -2 -27.5 -3.5t-27.5 -4.5zM301 318q-9 -5 -18 0t-17 14.5t-14 20.5t-10 19q-96 -76 -148 -188q-27 -58 -39 -126l-4.5 -31.5t-2.5 -35t3.5 -34t12.5 -29.5q7 -11 19.5 -6.5t27.5 18t30.5 33t29 39t23 35t12.5 20.5q54 90 95 187.5t73 198.5q-29 -12 -55.5 -27.5
t-51.5 -33.5q8 -21 19 -36q2 -3 7.5 -8.5t9 -11t4.5 -10.5t-6 -8zM264 567q-8 -33 -11 -67t3 -67l8 5q60 38 125 59q13 41 23.5 82t18.5 83q5 26 8.5 51.5t3.5 51.5q0 4 0.5 13.5t-1 19.5t-5 17.5t-10.5 7.5q-14 0 -28 -11.5t-24 -22.5q-15 -15 -27 -32.5t-23 -36.5
q-20 -36 -36 -74t-25 -79z" />
    <glyph glyph-name="K_alt" horiz-adv-x="756" 
d="M1003 766q-36 -29 -76.5 -53t-79.5 -47q-26 -16 -51 -30.5t-51 -28.5q-63 -34 -125.5 -67t-127.5 -63q-67 -32 -133.5 -61.5t-135.5 -57.5l-22 -39q21 -3 42 -7t42 -9q48 -11 93.5 -24t92.5 -30q66 -21 129 -48l61 -27l31.5 -13.5t28.5 -18.5q8 -8 10 -17.5t3 -20.5
q1 -9 -3.5 -10.5t-11 1t-13 6.5t-10.5 6q-32 16 -64.5 29.5t-64.5 27.5q-26 10 -51 19.5t-51 18.5q-70 24 -141 44t-143 36q-18 -32 -35 -65t-34 -65q-14 -28 -28.5 -55.5t-29.5 -55.5q-4 -6 -6.5 -12t-6.5 -11q-5 -9 -14.5 -12t-14.5 10q-2 6 1 11q0 -2 -2.5 3.5t-1.5 4.5
q-5 15 -5 27q0 13 3.5 24.5t6.5 24.5q9 27 25 55q5 9 10.5 16t10.5 15q4 5 9.5 5.5t10.5 -1.5q6 14 12 27t13 27l18 37l-56 9q-11 2 -13.5 13.5t6.5 18.5q12 8 26.5 12.5t26.5 9.5q14 5 27 11t27 12l27 49q27 50 56.5 97t59.5 95q23 34 47 66.5t49 64.5q8 10 16.5 17.5
t21.5 10.5q8 2 19 3t19 -3q6 -3 4 -10t-7 -14.5t-11 -14.5t-8 -10l-41 -57q-36 -52 -69.5 -105.5t-66.5 -107.5l-24 -40q51 23 100.5 46.5t100.5 47.5q105 51 207 106.5t202 115.5q19 11 36.5 22t35.5 22q11 6 21.5 6.5t21.5 -1.5q1 -1 6 -2.5t9 -4t6 -5.5t-2 -6z" />
    <glyph glyph-name="L_alt" horiz-adv-x="575" 
d="M500 756q11 -20 12 -41.5t-10 -42.5q-12 -23 -26 -45.5t-30 -44.5q-32 -43 -67 -82.5t-69 -81.5q-35 -45 -69.5 -89.5t-68.5 -91.5q-17 -23 -32.5 -46t-30.5 -46q-8 -12 -14.5 -24t-13.5 -24q-5 -8 -9 -17.5t-6 -19.5q11 1 23 5.5t22 8.5q17 5 33.5 11t33.5 12
q33 11 66.5 22.5t67.5 20.5q64 17 127.5 26t129.5 9q13 0 25.5 -0.5t25.5 -1.5q6 0 13.5 -1t9.5 -9q1 -12 -9.5 -14t-17.5 -3q-14 -2 -27 -4t-27 -4q-65 -11 -128 -26t-126 -35q-33 -10 -66 -21.5t-66 -22.5q-28 -9 -59 -21t-61 -11q-15 1 -27.5 8t-18.5 20q-6 12 -5.5 25.5
t4.5 27t10 26t12 23.5q32 61 72 117t81 111q42 56 83.5 110.5t83.5 109.5q24 34 48 67.5t45 68.5q8 13 15 26.5t13 27.5q3 8 7.5 8t8.5 -3.5t7 -9t5 -8.5z" />
    <glyph glyph-name="M_alt" horiz-adv-x="823" 
d="M20 826q2 -10 5.5 -22t17.5 -11q16 1 31.5 7t29.5 12l80 34q23 9 53 20.5t61 16.5t58.5 -1.5t46.5 -31.5q17 -23 14 -50t-11 -52q-11 -32 -26 -62t-32 -59q-19 -36 -39 -71.5t-40 -71.5q-20 -35 -39 -70l-38 -70q-12 -23 -23 -44.5t-22 -44.5l20 29q81 116 170 220
q43 51 89 100.5t101 86.5q8 6 18.5 11.5t21.5 8.5t21.5 1.5t18.5 -10.5q10 -10 9.5 -22.5t-5.5 -24.5t-13 -23.5t-14 -19.5l-52 -78t-51 -80q-17 -29 -34 -59t-31 -62q-5 -12 -10.5 -24t-10.5 -25q15 21 29.5 41.5t30.5 41.5q81 108 182 204q49 47 101 90t112 75
q12 6 25.5 12.5t27.5 10.5t28 4.5t27 -5.5q20 -8 24 -24.5t-4 -35.5q-16 -35 -42.5 -66t-50.5 -61q-22 -27 -43 -53t-43 -52q-44 -55 -86.5 -110t-80.5 -115q-36 -57 -70 -116.5t-50 -125.5q-3 -14 -6 -31t-3 -34t3.5 -33t11.5 -29q9 -14 23.5 -19t29.5 -3t30 8.5t26 15.5
q25 19 36.5 44.5t6.5 57.5q-1 5 -4 13.5t0 14.5q3 5 7.5 4t8.5 -3q23 -14 29 -41q6 -32 -5 -61t-32.5 -50.5t-51 -34t-60.5 -9.5q-33 3 -53 21t-29.5 43.5t-11 55.5t1.5 57q8 67 33.5 130t60.5 120q35 60 76.5 116.5t84.5 110.5q25 31 50 61t51 61l48 56t45 58l9 13
q-4 -1 -9 -1h-4q-8 -2 -15 -4t-14 -5q-16 -7 -31.5 -15t-31.5 -17q-29 -17 -57 -36.5t-54 -42.5q-54 -44 -101.5 -93t-92.5 -103q-22 -26 -43 -53.5t-41 -56.5q-10 -14 -19 -27.5t-18 -27.5q-3 -4 -6.5 -11t-8 -13.5t-10 -11t-11.5 -2.5q-11 2 -11.5 14t0.5 21q1 17 5 33.5
t9 32.5q12 33 25 65.5t29 63.5q17 35 36 68.5t39 65.5l44 65q5 8 11 15.5t11 15.5q2 3 5.5 7.5t5.5 9.5q-8 -2 -17 -9t-14 -10q-14 -10 -27.5 -21t-26.5 -22q-26 -23 -50.5 -47t-47.5 -49q-48 -50 -91.5 -102.5t-85.5 -107.5q-29 -38 -55.5 -77t-52.5 -80l-9 -13l-6 -11
q-1 -1 -1 -3q-2 -5 -2.5 -10.5t-4.5 -8.5q-5 -4 -11.5 -2.5t-9.5 7.5q-2 8 -2.5 18.5t-1.5 17.5q-2 17 5.5 33.5t13.5 31.5q35 88 80 170t93 164q23 40 47 80.5t46 82.5q11 20 20.5 40.5t17.5 42.5q4 8 7 20t-2 23l1 1q-6 13 -19.5 16.5t-29.5 2t-31.5 -5.5t-24.5 -7
q-30 -8 -59 -20.5t-59 -24.5q-26 -10 -56.5 -21t-59.5 -7q-15 2 -26 11.5t-13 24.5q-2 16 3 30q2 5 6.5 4.5t5.5 -5.5z" />
    <glyph glyph-name="N_alt" horiz-adv-x="685" 
d="M33 814q-1 -12 2.5 -20.5t18.5 -7.5q17 1 33.5 5t32.5 9q32 9 63.5 16t64.5 7t61.5 -13t41.5 -45q12 -32 10.5 -68t-6.5 -68q-13 -68 -40.5 -131.5t-59.5 -124.5l-20 -36l21 28q42 55 87.5 107t93.5 103q24 24 48.5 47.5t50.5 45.5q25 21 51.5 39t56.5 29q9 3 20.5 5
t22 0.5t19 -7t11.5 -17.5q8 -28 0 -55t-19 -53q-36 -88 -79.5 -171t-83.5 -168q-20 -43 -39 -86t-34 -88q-8 -22 -14.5 -44.5t-11.5 -45.5q-1 -7 -2 -15.5t-0.5 -17.5t3.5 -17t10 -12q12 -7 24 -5t22.5 9.5t19 18t12.5 20.5q1 3 2.5 9.5t4 12.5t6.5 8.5t9 -3.5q10 -9 15 -20
t2 -25q-5 -27 -27 -44t-49 -21t-52 6t-36 36q-13 28 -14 57.5t5 58.5t17 57.5t22 54.5q27 66 59.5 128t66.5 125l36 66t35 66q8 16 16.5 32.5t16.5 33.5q6 14 14 32t6 35q-4 1 -10.5 -0.5t-13.5 -5t-13 -7t-9 -4.5q-16 -9 -30.5 -19t-29.5 -21q-26 -21 -51.5 -43t-50.5 -46
q-50 -48 -96.5 -99t-91.5 -105q-22 -27 -44 -55t-44 -57q-8 -11 -16.5 -24.5t-18 -27t-21 -24t-26.5 -14.5q-2 -1 -5 -2t-6 -1q-6 -2 -7.5 4.5t4.5 8.5q2 6 2 12.5t2 12.5q2 9 5.5 17.5t7.5 16.5q6 13 12.5 25.5t13.5 24.5q46 88 90.5 176.5t72.5 183.5q9 31 15.5 66
t-4.5 66q-6 17 -19.5 23.5t-29.5 7t-32.5 -3t-29.5 -6.5q-11 -3 -32 -8.5t-45.5 -10t-49 -6t-43 3.5t-27 19t-1.5 41q2 5 3.5 9t6.5 6q6 2 10.5 -1.5t4.5 -10.5z" />
    <glyph glyph-name="O_alt" horiz-adv-x="503" 
d="M238 595q11 8 21.5 15t21.5 14q9 12 18.5 23.5t19.5 22.5q23 24 47.5 45.5t52.5 37.5q12 7 26.5 13t29.5 8t29 -0.5t26 -12.5q11 -10 16.5 -24.5t7 -30.5t0.5 -32.5t-2 -29.5q-5 -35 -13.5 -68t-20.5 -65q-46 -128 -123 -237q-36 -51 -79.5 -95.5t-99.5 -73.5
q-27 -14 -59 -21.5t-61.5 -4t-52.5 21.5t-32 54q-8 31 -5.5 63.5t12 64.5t24 62.5t29.5 56.5q32 57 74 106t93 87zM346 335q-24 -7 -48.5 -4t-44.5 21q-23 21 -31.5 52t-6.5 60q1 33 14 66q-45 -44 -79 -95.5t-59 -108.5q-5 -11 -12.5 -30.5t-13 -41t-8.5 -44t0.5 -41
t15.5 -30.5t35 -13q33 -1 62.5 11t56 31.5t49 44t40.5 48.5q40 53 71 112t57 120q25 61 43 125q5 16 8.5 32t5.5 32q0 2 1 9.5t1.5 15.5t-0.5 14.5t-4 7.5q-7 6 -16.5 6.5t-19.5 -1.5t-19.5 -6.5t-16.5 -7.5q-38 -21 -68 -52l-6 -7q9 4 18.5 7t19.5 7q3 1 9 2t11 0.5t7.5 -4
t-0.5 -10.5q-4 -7 -16 -11t-18 -8q-13 -7 -25.5 -13.5t-24.5 -14.5l-25 -17q-8 -15 -15 -30.5t-13 -31.5q-7 -18 -14 -38.5t-11 -42t-2 -42t14 -38.5q8 -12 21.5 -18.5t28.5 -7.5q6 -1 13 1t13 1q8 2 9 -6.5t-7 -10.5z" />
    <glyph glyph-name="P_alt" horiz-adv-x="650" 
d="M13 -43q-8 14 -8 28t4.5 27.5t11.5 26.5t13 26q14 28 28.5 55.5t29.5 54.5l-13 -2l-24 -4t-24 0q-7 2 -13 8.5t4 11.5q8 5 18.5 6.5t18.5 3.5q14 3 27 6t27 7q29 48 61 94.5t67 93.5q42 54 86.5 104t95.5 96q50 46 105.5 86.5t118.5 64.5q29 12 60.5 20.5t61.5 -0.5
q27 -8 39.5 -28t9.5 -47q-3 -32 -18 -60.5t-32 -54.5q-19 -26 -39 -50t-42 -47q-94 -95 -210 -163.5t-243 -109.5l-70 -19q-20 -34 -39.5 -68t-36.5 -69q-11 -21 -21.5 -42t-19.5 -42q-3 -6 -6 -14.5t-9 -13.5q-8 -7 -12.5 1t-6.5 13zM197 245q-3 -4 -7 -12
q125 42 238.5 109t208.5 161q24 23 45.5 47.5t40.5 51.5q9 13 17 26.5t15 27.5q5 12 11.5 28t2.5 30q-2 8 -14 10.5t-20 1.5q-17 0 -33.5 -5t-31.5 -11q-32 -11 -61 -28t-56 -37q-111 -77 -197.5 -182t-158.5 -218z" />
    <glyph glyph-name="Q_alt" horiz-adv-x="595" 
d="M10 415q69 -10 131 -46q7 11 14.5 22t15.5 22q45 63 103 114q1 11 4 23t7 23q11 30 28.5 56.5t40.5 49.5q47 47 109 75q13 6 28 11.5t30 8.5t30 2.5t29 -7.5q13 -6 21.5 -18.5t12.5 -27.5t5.5 -30.5t1.5 -27.5q0 -35 -7 -69.5t-18 -66.5q-22 -65 -52.5 -126t-71.5 -117
q-23 -32 -49 -61.5t-56 -55.5l52 -54q45 -46 95 -91t111 -70q13 -5 25.5 -9.5t26.5 -7.5q11 -2 15 -8.5t-7 -14.5q-20 -17 -43.5 -17.5t-45.5 10.5q-40 20 -75.5 47t-67.5 57.5t-61.5 64t-58.5 67.5q-10 -7 -20.5 -13t-21.5 -11q-27 -13 -60 -19t-63.5 -1t-53.5 24t-29 56
q-5 32 2.5 63t18.5 60q10 24 24 48q-31 22 -65 38q-11 5 -22 9t-22 6q-2 1 -6.5 1.5t-6.5 2.5t-3 5.5t5 2.5zM291 474q-3 3 -7 9q-24 -26 -46 -54t-41 -58l-17 -27q43 -29 81.5 -66t74.5 -75q11 9 20.5 19t19.5 21q43 50 75.5 106t58.5 115q14 32 25.5 63.5t20.5 63.5
q5 17 8.5 33t6.5 33q2 17 3 33.5t-4 32.5q-5 14 -18 18t-28.5 2.5t-30.5 -6.5t-24 -9q-29 -14 -52 -34t-41 -45q-12 -17 -22 -35.5t-18 -38.5l20 12q12 7 23.5 13.5t23.5 11.5q3 1 9.5 4.5t13 5.5t11.5 0.5t5 -8.5q0 -8 -10.5 -13.5t-15.5 -8.5l-24 -16t-23 -17
q-14 -11 -26.5 -21.5t-24.5 -21.5q-2 -7 -4 -13.5t-4 -13.5q-1 -4 -2.5 -9t-3.5 -8.5t-5.5 -3.5t-7.5 6zM283 164q5 3 10.5 6t10.5 7l-11 14q-29 33 -60 67t-66 63q-9 -17 -17 -35t-13 -36q-4 -13 -6.5 -28.5t-1 -30t8 -26.5t21.5 -19q29 -13 63.5 -5t60.5 23z" />
    <glyph glyph-name="R_alt" horiz-adv-x="542" 
d="M13 106q-12 18 -7 31.5t14 30.5q15 29 30.5 57t32.5 56l6 11l-8 6t-8 7q-9 7 -18.5 13.5t-17.5 14.5q-9 7 -6.5 17.5t12.5 13.5q11 2 24 2t24 1q14 2 26.5 3.5t26.5 3.5q48 69 103 133q44 52 91 100.5t100 92.5q26 21 53.5 41t56.5 37q27 16 57.5 29t62.5 14
q17 0 33.5 -5.5t27.5 -19.5q9 -12 11 -26.5t0 -30t-7 -30.5t-10 -27q-26 -58 -71 -105t-97 -84q-81 -59 -174.5 -94t-192.5 -53l-16 -24t-16 -25q98 -63 196 -123.5t199 -120.5l59 -35q6 -3 11.5 -6.5t9 -7t2.5 -8t-9 -8.5q-11 -5 -21.5 -8t-22.5 -1q-7 2 -13.5 5.5
t-13.5 8.5l-90 52q-64 37 -125.5 76.5t-122.5 81.5l-83 57q-17 -26 -32 -52.5t-30 -52.5q-8 -13 -14.5 -26.5t-15.5 -25.5q-8 -11 -14 -9t-13 12zM299 492q-21 -26 -41 -51.5t-40 -52.5q54 12 105.5 30t100.5 43q50 26 96 59.5t85 74.5q19 20 35 42t30 45q5 7 12.5 19.5
t13 25.5t6.5 25.5t-6 21.5q1 0 1 1q-10 8 -23 8.5t-26 -3t-25.5 -9t-21.5 -10.5q-30 -15 -58 -35t-54 -42q-54 -43 -100.5 -91t-89.5 -101zM101 333q3 -2 5.5 -3.5t4.5 -3.5l6 9q-10 -2 -16 -2z" />
    <glyph glyph-name="S_alt" horiz-adv-x="461" 
d="M620 735q-8 -3 -15.5 -5.5t-15.5 -4.5l-20 -2q-14 -11 -28 -16t-21 9q-5 9 -2.5 15.5t8.5 11t14 7t15 4.5q3 3 6 6.5t4 8.5q-10 2 -22.5 -2.5t-20.5 -6.5q-14 -5 -27 -10.5t-27 -11.5q-26 -13 -51.5 -28t-50.5 -31q-23 -17 -46.5 -35t-43.5 -39q-9 -11 -18 -21t-17 -22
q-5 -8 -11 -21.5t-1 -23.5v1q23 -15 48.5 -25.5t48.5 -27.5q23 -16 37.5 -39t16.5 -52q2 -24 -5 -47t-18 -44q-14 -29 -33 -55.5t-41 -51.5q-23 -23 -47.5 -43.5t-51.5 -36.5q-27 -15 -59 -26.5t-64 -11.5q-20 0 -36.5 8.5t-19.5 30.5q-4 27 9.5 56t30.5 49q12 14 29.5 25
t37.5 6q4 -1 10.5 -2.5t8.5 -3.5q7 -5 6.5 -13t-7.5 -12q-14 -8 -28.5 -18.5t-26.5 -23.5t-20.5 -28.5t-9.5 -32.5q11 -4 23 -2t24 7.5t23 12t19 12.5q25 16 49 34t46 38q18 16 37 35.5t34.5 41t26.5 45.5t13 50q-2 27 -19 44.5t-39 28.5q-12 6 -27 11.5t-29 12t-25.5 16
t-15.5 23.5q-4 15 -1.5 30t8.5 29t14 27.5t17 24.5q21 26 46.5 47.5t53.5 39.5q29 20 58 36t61 30q28 12 61 24t64 8q20 -2 29 -15.5t3 -30.5q2 0 4.5 -0.5t5.5 -0.5q8 -2 15 -9t-4 -14z" />
    <glyph glyph-name="T_alt" horiz-adv-x="384" 
d="M470 761q0 -9 -1 -13l61 10l137 20l66 10t65 8q15 1 30 1.5t30 0.5q8 0 22 1.5t22 -3.5q11 -7 5.5 -16t-17.5 -17t-25 -14.5t-16 -7.5q-11 -5 -22 -9t-22 -7q-13 -2 -24.5 4t-25.5 4q-29 -2 -58 -5.5t-58 -5.5q-50 -5 -99 -12t-99 -14l-20 -26q-20 -26 -38 -53.5
t-37 -55.5q-39 -60 -76.5 -120t-75.5 -120q-17 -29 -34 -57t-34 -57q-16 -26 -31.5 -53.5t-32.5 -53.5q-8 -11 -15.5 -21t-15.5 -21q-7 -9 -15 -8t-10 13q-1 10 -0.5 22.5t3 24.5t8 22t14.5 16q18 12 28.5 32.5t20.5 38.5q14 23 26.5 46t26.5 46q27 47 53.5 93.5t54.5 94.5
q26 45 54 88t58 86l9 11q-48 -7 -94.5 -14t-94.5 -15q-26 -4 -51.5 -9t-51.5 -7q-8 -1 -16 -1h-16q-11 0 -10.5 8t5.5 14q18 18 43.5 29.5t50.5 10.5q31 -2 62 4t61 11q38 5 76 11l76 12l9 10q3 3 12 10t19.5 11.5t18.5 4t9 -12.5z" />
    <glyph glyph-name="U_alt" horiz-adv-x="590" 
d="M211 670q-2 15 3.5 29.5t14.5 28t20 25.5t20 22q23 22 48.5 40.5t52.5 33.5q12 6 25.5 13t28 12.5t29 7t28.5 -2.5q28 -7 30 -35q1 -14 -4 -27l-10 -26q-7 -16 -15 -31t-16 -31q-33 -60 -75 -114q-43 -57 -89 -110t-92 -107q-27 -32 -53.5 -64t-51.5 -66
q-12 -16 -23.5 -33t-22.5 -35q-3 -5 -7 -12.5t-7.5 -15.5t-5 -16t0.5 -14q5 -4 10.5 -3.5t10.5 1.5q17 4 32.5 12t30.5 18q29 18 55 39.5t51 44.5q54 48 102.5 98t96.5 102q53 57 102 115.5t101 116.5q10 11 20 23t21 23t23.5 20.5t26.5 15.5l1 1h1q8 3 16 4.5t11 -8.5
q4 -8 -1 -14.5t-9 -11.5q-7 -8 -12.5 -15.5t-10.5 -15.5q-21 -29 -42 -58.5t-41 -60.5q-42 -61 -81 -122.5t-77 -126.5q-27 -47 -53.5 -94.5t-46.5 -98.5q-8 -20 -15.5 -43t-10 -46.5t3.5 -45t26 -37.5q23 -19 54 -22t57 9q27 13 44 41q4 7 8 5t7 -7.5t4 -12t1 -9.5
q0 -16 -8.5 -28t-21 -20.5t-28 -12.5t-29.5 -4q-30 0 -58.5 12.5t-50.5 32.5q-26 23 -36 51.5t-13 60.5q-4 49 14.5 96t42.5 89q39 66 85 127.5t91 124.5q6 8 12.5 16.5t12.5 17.5q-23 -28 -47 -54t-50 -52q-48 -51 -98 -100.5t-103 -95.5q-26 -23 -53 -44.5t-56 -41.5
q-12 -9 -26 -18t-29 -16.5t-30.5 -12t-30.5 -3.5q-15 2 -27 10.5t-15 24.5q-4 25 8.5 51t24.5 46q31 55 68 105t75 101l156 203q20 26 38.5 50.5t36.5 50.5q9 13 17.5 25t16.5 25q5 7 8 13.5t7 14.5q1 3 1.5 7t2.5 7q-17 3 -36.5 -7.5l-32.5 -17.5q-22 -13 -41.5 -27.5
t-38.5 -31.5q-18 -16 -34.5 -34.5t-30.5 -38.5q-4 -6 -9 -16.5t-13 -12.5q-9 -3 -12.5 3.5t-5.5 14.5z" />
    <glyph glyph-name="V_alt" horiz-adv-x="542" 
d="M425 747q-60 -63 -111 -132q-30 -42 -57.5 -86.5t-53.5 -89.5q-28 -48 -52.5 -96t-47.5 -99q-11 -25 -21 -51.5t-19 -52.5l-8 -26t-6 -27q0 -2 -1.5 -9t-2.5 -15.5t-1 -16t3 -8.5h-1q18 -5 37 6.5t33 22.5q27 20 51 44.5t47 48.5q48 52 92 106.5t86 112.5
q41 57 80.5 112.5t81.5 112.5q39 53 79 104t87 97q20 20 41.5 37t50.5 20q7 1 17 0t12 -10t-10.5 -17t-19.5 -13q-43 -36 -79 -78.5t-70 -87.5q-83 -110 -162.5 -223t-170.5 -217q-43 -51 -90.5 -99t-102.5 -86q-20 -14 -45 -26.5t-51 -6.5q-14 3 -21 11.5t-10.5 20
t-3.5 23.5t1 23q5 33 15 65t22 63q12 32 25.5 63t28.5 62q29 61 60.5 120.5t66.5 116.5q13 20 26 40.5t27 40.5q6 10 12 18.5t13 18.5q8 9 15 18.5t12 20.5q8 18 26 32t38 18q5 1 11 2t11 0q10 -2 13.5 -11t-3.5 -17z" />
    <glyph glyph-name="W_alt" horiz-adv-x="693" 
d="M216 660q23 21 48.5 40t51.5 37q15 11 31 22t33 18q23 8 47 0q5 -1 8 -2t7 -3q5 -2 7 -7.5t-5 -7.5q-13 -4 -25 -14.5t-22 -18.5q-14 -11 -26.5 -22t-25.5 -23q-50 -45 -93.5 -96.5t-78.5 -108.5q-38 -57 -68 -119.5t-47 -128.5q-4 -13 -6.5 -25t-3.5 -26
q0 -5 -0.5 -10.5t0.5 -10.5q0 -3 1 -7t2 -7q6 -2 15 3t14 8q17 10 31.5 22t28.5 25q53 50 101 109l45 55q8 19 16 37l16 36q14 31 30.5 61.5t39.5 56.5q6 7 14 13.5t16.5 9.5t17 1t15.5 -11q8 -10 6 -22t-6 -22q-5 -16 -13.5 -30.5t-17.5 -28.5q-54 -90 -117 -167
q-10 -25 -19 -49t-17 -50q-5 -17 -8.5 -33t-5.5 -33q-3 -15 -3 -33q1 -4 3 -9t2 -8h-1q6 -3 13 -1t13 4q16 6 30.5 16t28.5 21q26 20 49.5 43.5t46.5 48.5q46 53 87 108.5t79 114.5q52 81 99 163.5t89 169.5q15 30 30.5 59.5t29.5 58.5q14 30 24 58q1 5 2.5 13.5t4 16.5
t7 13.5t12.5 5.5q11 0 14.5 -8t6.5 -16q10 -29 4 -55q-6 -32 -20.5 -60.5t-28.5 -56.5q-32 -63 -64 -125t-69 -122q-35 -60 -74.5 -118t-84.5 -114q-42 -54 -87.5 -105t-96.5 -96q-24 -20 -50.5 -39t-56.5 -30q-14 -6 -34 -6.5t-31 14.5q-9 11 -12.5 25.5t-2.5 30.5t4 31.5
t6 28.5q2 11 4.5 20.5t5.5 20.5q-32 -35 -66 -63q-23 -17 -52 -34t-58 -19q-22 -1 -33.5 10t-15.5 28.5t-2 40t7 44.5t10.5 41t8.5 30q29 86 74.5 164t105.5 147q14 16 28.5 31.5t30.5 30.5q-5 -2 -9 -5t-9 -6q-6 -2 -16 -9t-17 -5q-9 2 -9 8.5t6 11.5z" />
    <glyph glyph-name="X_alt" horiz-adv-x="919" 
d="M1183 774q-107 -57 -207.5 -124t-198.5 -137q-51 -36 -101.5 -72.5t-100.5 -74.5q-2 -28 -2 -55t5 -53q4 -29 14.5 -58.5t38.5 -44.5q15 -8 31 -8.5t32 4t31.5 12.5t27.5 16q13 8 25.5 16.5t23.5 16.5q9 7 17.5 16t19.5 14q11 6 17.5 -3t2.5 -19q-6 -20 -22 -36
q-19 -21 -45.5 -36.5t-53.5 -25.5q-31 -10 -62.5 -12t-60.5 15q-26 15 -41.5 39.5t-24 53t-11.5 59.5t-4 58q-53 -40 -104 -80t-102 -82q-26 -23 -52.5 -44.5t-52.5 -43.5q-12 -11 -24 -21t-24 -21l-25 -21q-5 -5 -10 -9.5t-7 -11.5q-2 -6 -2.5 -12.5t-2.5 -11.5
q-3 -5 -8.5 -8.5t-9.5 -7.5q-13 -8 -26.5 -15t-27.5 -13q-9 -3 -17.5 -5.5t-17.5 -4.5q-9 -1 -14.5 5t2.5 14q88 88 181.5 168.5t190.5 159.5q38 32 76 63t77 62q2 58 11.5 116t27.5 114q10 29 22.5 60t30.5 57q8 10 18.5 19t23.5 12q9 3 19 -1t8 -17q-4 -28 -18 -51.5
t-25 -48.5q-14 -29 -25 -60.5t-20 -63.5q-7 -23 -13 -47.5t-11 -49.5q55 43 110.5 84t112.5 81q54 38 107.5 73.5t110.5 70.5q25 15 50.5 29t54.5 19q11 2 21.5 3t21.5 -1h5.5t5.5 -2q5 -3 5 -8.5t-5 -8.5z" />
    <glyph glyph-name="Y_alt" horiz-adv-x="482" 
d="M109 868q1 -7 10 -6t14 2q13 2 25.5 4t26.5 5q26 5 52 9.5t53 8.5q25 3 56 6t55 -9q15 -8 18 -19.5t-0.5 -25t-11 -26.5t-13.5 -23q-35 -54 -75 -105l-80 -102q-19 -26 -38 -52.5t-36 -53.5q-9 -14 -17.5 -27.5t-15.5 -29.5q-4 -11 -8.5 -23.5t0.5 -23.5q3 -3 3 -2
q-1 2 1 1.5t4 -0.5q5 1 9 2.5t8 3.5q11 5 21 10.5t21 12.5q20 14 39 29l38 30q39 33 76 67.5t74 69.5q38 36 75.5 72t75.5 71q16 15 33 30.5t37 25.5q11 5 18 3.5t15 -7.5l2 -6q1 -2 2 -4.5t1 -4.5q0 -7 -4 -15q-5 -12 -13 -22.5t-16 -20.5q-20 -28 -41 -54.5t-43 -53.5
q-44 -54 -85.5 -109.5t-81.5 -114.5q-37 -54 -70.5 -110.5t-62.5 -116.5q-13 -29 -24.5 -58t-20.5 -59q-3 -13 -6.5 -26t-5.5 -27q-2 -11 -2.5 -23t-5.5 -22q-4 -10 -12 -8.5t-16.5 8t-16 15t-9.5 13.5q-7 14 -4.5 27.5t5.5 27.5q5 17 9.5 33t9.5 31q22 63 53.5 120.5
t68.5 112.5q39 58 81.5 113t87.5 109q37 45 75.5 88.5t75.5 89.5l-40 -36q-53 -48 -102 -96q-51 -48 -101.5 -95.5t-104.5 -92.5q-13 -11 -38 -30t-52 -31t-50.5 -9t-32.5 35q-9 28 -1 58t23 54q17 28 37 53.5t41 50.5q32 39 66.5 76t66.5 75q17 19 32 38t29 40q5 8 12 19.5
t5 20.5q0 4 -4.5 5.5t-10.5 1.5t-11.5 -0.5t-7.5 -0.5q-25 -2 -49 -10t-47 -16q-22 -8 -44 -14t-45 -9q-20 -2 -43.5 0.5t-37.5 19.5q-7 8 -8 17q0 2 1 6t0 5q-1 6 2 9t7.5 4t8.5 -1t5 -8z" />
    <glyph glyph-name="Z_alt" horiz-adv-x="866" 
d="M250 749q-9 -10 -20 -17t-22 -13t-22 -13t-20 -16q6 1 12 1.5t12 2.5q7 2 13 2.5t12 1.5q11 2 21.5 4t21.5 4q34 7 67.5 13t67.5 12q39 7 78 13.5t78 12.5q34 5 68 8.5t68 5.5q12 1 27 1.5t29 -1.5t25 -8.5t17 -20.5q6 -15 -3 -28t-19 -25q-22 -25 -48.5 -46t-52.5 -41
q-58 -44 -115 -86t-114 -87q-56 -42 -110 -86t-106 -90q-42 -38 -82.5 -78t-72.5 -86q125 39 252.5 68t258.5 45q35 5 70.5 7.5t71.5 3.5q6 0 25 0.5t39 -1t34 -7t11 -17.5q-2 -7 -9 -10.5t-12 -8.5q-13 -9 -26.5 -11t-29.5 -2q-35 1 -69.5 -1t-69.5 -6
q-128 -12 -252.5 -34.5t-249.5 -52.5l-64 -15l-6 -2t-6 -1q-11 -3 -20 7q-5 7 -3 13t1 13q-5 33 11.5 58.5t36.5 48.5q23 26 47 49.5t50 46.5q71 62 145.5 117t150.5 109q29 20 58 40.5t57 40.5q25 17 49 34.5t48 34.5l47 37q2 2 12 9.5t16 14.5q-8 1 -17 0.5t-16 -0.5
l-54 -3q-29 -2 -57 -5.5t-57 -7.5q-35 -4 -68.5 -9t-68.5 -10q-26 -3 -52 -7t-52 -7q-57 -9 -114 -15q-5 0 -13.5 -1.5t-17.5 -1.5t-16.5 3t-9.5 11q-3 12 0 22t10.5 18.5t18 15.5t20.5 12q26 13 51 20q5 2 13.5 5.5t13.5 1.5q4 -2 4 -5t-2 -5zM738 722q0 1 0.5 1.5t0.5 1.5
q-1 -1 -1 -3z" />
    <glyph glyph-name="v_left" horiz-adv-x="216" 
d="M38 406q10 -7 12.5 -21.5t0.5 -25.5q-2 -16 -9.5 -31t-15.5 -29t-17 -27t-17 -27q-2 -5 -5.5 -12.5t-4 -14t2.5 -10t13 -0.5q30 10 53.5 35.5t43.5 48.5l37 51q6 10 12.5 22.5t6.5 25.5q1 13 7 9.5t10 -11.5q7 -14 4.5 -31t-8.5 -31q-11 -29 -34 -54t-47 -45
q-9 -8 -21.5 -17.5t-26 -17t-28 -11.5t-27.5 -1q-12 3 -17 11t-6 17.5t1 20t5 19.5q9 26 21 50t23 48q6 11 10.5 21.5t6.5 22.5q1 3 1.5 7.5t1.5 7.5t3.5 4t7.5 -4z" />
    <glyph glyph-name="o_left" horiz-adv-x="226" 
d="M142 389q-11 1 -22 -6t-19 -12q-14 -10 -25.5 -20.5t-22.5 -23.5q-22 -23 -36 -53q-6 -10 -13 -27t0 -29q6 -10 20 -8t21 5q16 7 30 17.5t26 23.5q22 20 42 46t27 55q1 5 1.5 11t-0.5 11q-1 4 -3.5 7.5t-3.5 6.5q-4 5 0.5 7t7.5 0q11 -6 16 -18q7 -14 6.5 -30t-5.5 -32
t-13 -30.5t-16 -26.5q-19 -26 -43 -46t-54 -30q-16 -5 -31.5 -5.5t-28.5 5t-21.5 17t-9.5 29.5q-2 42 18 80t52 63q15 12 33 24t37 14q9 1 15.5 -1t14.5 -4q8 -1 8 -9.5t-8 -10.5z" />
    <glyph glyph-name="w_left" horiz-adv-x="323" 
d="M161 364q10 -20 5 -42.5t-16 -41.5q-2 -5 -9.5 -16t-13.5 -23t-8.5 -23.5t5.5 -15.5q1 0 0 0.5t0 0.5q6 -3 13.5 1t12.5 7q13 8 24 20t19 24q19 23 36 49.5t27 55.5l5 18q1 5 -1 10.5t0 9.5q2 6 6 3.5t7.5 -7.5t7 -11t3.5 -7q8 -30 -5 -58.5t-30 -52.5q-34 -48 -85 -79
q-10 -5 -21.5 -7.5t-21.5 -1t-18 8.5t-10 21q-3 16 1 33t11 34q-10 -14 -20 -26t-21 -23q-8 -8 -18 -17.5t-22 -17t-24.5 -10t-24.5 3.5t-15.5 18.5t-2 27t6.5 28t9 22.5q22 55 61 94q21 20 43 25q2 0 7.5 0.5t10 -0.5t6.5 -3.5t-2 -6.5q-17 -18 -32 -37.5t-29 -39.5
q-8 -14 -15 -27t-14 -27q-5 -8 -11.5 -23t-3.5 -24q-1 2 4 2q12 4 23 12q23 14 44 36q41 38 69 82q1 1 2.5 4.5t3.5 6.5l4 11q2 12 7.5 9.5t9.5 -10.5z" />
    <glyph glyph-name="b_left" horiz-adv-x="201" 
d="M95 382q-12 -9 -23 -18t-22 -17l-18 -34q-8 -14 -14.5 -29t-12.5 -29q-1 -3 -3 -10t-4 -14.5t-2 -14.5t4 -9q9 -5 21 1.5t19 11.5q14 9 25.5 20t22.5 25q19 22 34.5 49.5t17.5 56.5q0 2 -1 7.5t-1 11t1.5 8.5t6.5 0q10 -6 15.5 -16.5t7.5 -21.5q5 -31 -11.5 -61.5
t-36.5 -53.5q-20 -22 -45 -41.5t-53 -26.5q-22 -5 -38 4q-15 8 -17 24.5t0 30.5q5 33 18.5 64.5t27.5 61.5q15 32 33 62.5t37 59.5t39 57.5t43 54.5q9 10 19 22t22 22.5t25 18.5t27 11q12 1 23.5 -5t13.5 -18q4 -14 -3 -29.5t-14 -28.5q-16 -29 -35.5 -55t-40.5 -51
q-26 -28 -53 -53t-55 -48zM101 436q-14 -20 -28 -46q40 34 76 73q36 37 67 81q8 12 15.5 24t13.5 25q2 7 6.5 16t5.5 17q-10 -2 -18.5 -9.5t-15.5 -14.5q-13 -12 -24.5 -25.5t-22.5 -27.5q-20 -27 -39 -55.5t-36 -57.5z" />
    <glyph glyph-name="O_left" horiz-adv-x="488" 
d="M123 474q38 48 83 87.5t99 68.5q6 34 23 65t45 55q24 20 54.5 24t58.5 -13q26 -17 36.5 -46.5t12.5 -58.5q3 -33 -0.5 -67t-12.5 -67.5t-21.5 -66t-26.5 -62.5q-28 -60 -63.5 -114.5t-82.5 -102.5q-23 -22 -48.5 -42.5t-54 -35.5t-59.5 -23.5t-64 -7.5q-29 2 -52.5 15.5
t-36.5 41.5q-14 29 -12.5 62t8.5 62q14 63 44.5 120t69.5 106zM370 325q7 12 14 24.5t13 25.5q-15 12 -27 27.5t-21 31.5q-34 57 -44 120q-3 16 -3 32q-40 -29 -74 -63.5t-63 -74.5q-40 -53 -71.5 -114.5t-39.5 -127.5q-2 -12 -2 -25.5t3.5 -26t10.5 -22.5t21 -14
q28 -8 60.5 1.5t55.5 23.5q54 31 94.5 79.5t72.5 102.5zM398 422q3 -5 6 -9.5t7 -9.5q38 84 59 170q7 30 11.5 64t-5.5 64q-5 15 -14.5 25t-22 13t-26 -0.5t-25.5 -14.5q-14 -14 -20.5 -32.5t-10.5 -37.5l16 6q7 2 18.5 6.5t18.5 -0.5q6 -5 5.5 -8.5t-4 -6.5t-8 -5.5
t-7.5 -3.5l-45 -24q-7 -50 7 -103q6 -25 16 -48.5t24 -44.5z" />
    <glyph glyph-name="P_left" horiz-adv-x="545" 
d="M25 -59q-9 9 -14.5 23t-6.5 28.5t4 27.5t16 21q12 8 17 20t10 26q6 17 12 32.5t11 31.5q25 64 49.5 126.5t53.5 124.5q29 60 62.5 118.5t75.5 109.5q18 21 37.5 42t41 39.5t45.5 33t51 22.5q31 8 60 0t44 -39q14 -29 12 -63t-9 -65q-14 -63 -42.5 -122.5t-67.5 -110.5
q-19 -25 -41.5 -48.5t-49.5 -40.5q-19 -11 -42.5 -15t-40.5 14q-11 12 -12 25.5t3.5 27.5t13 26.5t16.5 21.5q20 23 48.5 39.5t59.5 14.5q7 -1 15.5 -3.5t16.5 -7.5l18 29q33 61 54 124q4 15 8.5 31.5t7 34t1.5 34.5t-8 32q-7 16 -19.5 19.5t-27.5 0t-29 -11.5t-24 -15
q-25 -17 -47.5 -38.5t-42.5 -44.5q-38 -47 -69.5 -97.5t-58.5 -104.5q-35 -69 -64.5 -140t-56.5 -144q-13 -33 -25 -66t-22 -66q-5 -14 -9.5 -28.5t-10.5 -28.5q-5 -12 -11 -9.5t-13 9.5zM416 349q12 12 22.5 24.5t20.5 26.5q-5 2 -18 2q-16 -1 -31.5 -10.5t-26.5 -20.5
q-13 -11 -25 -29q-2 -2 -5 -7t-6 -10.5t-4 -10.5t1 -8l1 -1q1 -1 9 1.5t12 3.5q14 7 26.5 17.5t23.5 21.5z" />
    <glyph glyph-name="B_left" horiz-adv-x="561" 
d="M10 158q-6 21 -1 44q2 15 9 25.5t17 21.5t16.5 23.5t14.5 23.5q17 29 34 52q75 114 173 209q47 46 98 87t108 75q29 17 59.5 31t62.5 22q24 5 51 5t45 -21q10 -12 12.5 -26t0.5 -28t-7.5 -27.5t-11.5 -25.5q-17 -28 -39 -52t-47 -44q-42 -33 -87 -60l4 -5
q19 -28 17.5 -61.5t-12.5 -62.5q-20 -61 -58 -114t-83 -98q-47 -45 -103.5 -81t-121.5 -50q-11 -3 -25 -5t-27.5 -2t-26 4.5t-20.5 15.5q-9 12 -9.5 26.5t4 29.5t12.5 28.5t15 24.5q34 53 80.5 97t98.5 79q24 16 50.5 30.5t55 25t58 15.5t59.5 2h6q7 19 8 41.5t-13 38.5
l-3 3q-26 -14 -55 -25.5t-58 -15.5q-10 -2 -24.5 -1t-27 5.5t-19 14t0.5 25.5q6 14 18.5 23.5t27.5 16t31 10t30 4.5q19 2 39.5 -2t38.5 -13q28 18 57 39q26 20 51 42t45 48q5 7 13 18.5t13.5 23.5t6.5 24t-7 21q-11 9 -26 7.5t-28 -4.5q-16 -4 -30.5 -9.5t-28.5 -12.5
q-29 -14 -55.5 -30.5t-52.5 -35.5q-51 -38 -97.5 -80.5t-89.5 -89.5q-42 -47 -79.5 -97.5t-70.5 -104.5q-15 -23 -28.5 -46.5t-28.5 -46.5l-20 -34q-7 -10 -12.5 -3.5t-7.5 12.5zM450 305q10 15 19 31.5t16 33.5h-1q-28 1 -54.5 -6t-52.5 -18q-60 -26 -113 -66t-98 -88
q-21 -23 -41.5 -50t-30.5 -57q-4 -12 -3.5 -21t15.5 -9q13 -1 25.5 1.5t24.5 6.5q47 13 87.5 38.5t75.5 55.5q38 33 71.5 69.5t59.5 78.5zM444 495q-20 6 -42 4q-21 -1 -45 -11l-7 -3.5t-10 -5.5t-9 -7t-4 -7q0 1 1 2q26 -5 51.5 2.5t48.5 18.5z" />
    <glyph glyph-name="r_right" horiz-adv-x="187" 
d="M-58 401q14 -11 28.5 -19.5t33.5 -11.5q12 -2 22 1q5 0 13.5 3t15.5 8q-8 7 -11.5 16.5t-0.5 20.5q2 14 13 26t24 17q10 3 16.5 0t9.5 -9.5t3 -15t-3 -15.5q-3 -6 -5.5 -11.5t-6.5 -11.5q12 -1 24.5 2.5t20.5 11.5q5 5 11 4t9.5 -4.5t4.5 -9.5t-3 -12q-7 -10 -13.5 -19
t-14.5 -17q-22 -23 -45 -45q-11 -13 -22.5 -25.5t-22.5 -26.5q-2 -3 -7.5 -10t-10 -15.5t-6.5 -16.5t1 -12q8 -1 19.5 6.5t16.5 11.5q11 8 21.5 16.5t20.5 17.5q22 17 47.5 40t48.5 40q8 6 13.5 7t0.5 -7q-3 -5 -11.5 -16t-12.5 -16l-16 -20t-17 -19q-20 -20 -41 -37
t-44 -31q-8 -5 -18.5 -10t-20.5 -7.5t-19 1t-14 16.5q-9 24 2.5 50t25.5 45q15 21 33 39t37 36l-10 2q-6 0 -10 3q-14 -14 -31 -23.5t-35 -10.5q-15 -1 -29 4.5t-25 15.5q-12 10 -15 26q0 1 -0.5 4.5t-0.5 7.5t1.5 6t4.5 -1z" />
    <glyph glyph-name="e_right" horiz-adv-x="229" 
d="M-57 400q17 -18 37 -32t43 -21q19 21 42 36q16 11 36 21t40 6q14 -2 23 -13t7 -25q-1 -10 -6.5 -18t-13.5 -14t-17.5 -10.5t-17.5 -7.5q-20 -6 -40 -8.5t-40 -0.5q-16 -17 -27 -38t-6 -42q4 -18 17.5 -20.5t30 3t32 15t24.5 15.5q26 17 52 34.5t52 37.5l23 17q2 2 6 5
t7 4q5 3 6.5 -0.5t1.5 -6.5q-1 -4 -4.5 -9t-5.5 -9q-17 -25 -40 -45t-49 -37q-25 -18 -53.5 -34.5t-59.5 -20.5q-17 -2 -30.5 2.5t-23 14.5t-14 24t-2.5 31q2 18 9.5 35t18.5 32q-12 5 -23.5 11t-21.5 16q-7 7 -12.5 15.5t-7.5 18.5q0 1 -0.5 5.5t0 8.5t2 6t5.5 -2zM144 382
q-6 6 -17 2t-22.5 -12t-22 -17t-16.5 -14q10 0 20 1t21 4q4 1 12 5t15 8.5t11 10.5t-1 12z" />
    <glyph glyph-name="s_right" horiz-adv-x="186" 
d="M-58 401q17 -14 37.5 -23t42.5 -5q11 2 21 8t18 15q2 12 6 22q1 4 4 9.5t7 9.5t8.5 4.5t9.5 -5.5q4 -4 3.5 -9.5t-3 -11t-6 -11t-5.5 -9.5q-13 -20 -28 -32q1 8 1.5 16.5t2.5 16.5q12 15 13 34l22 -9l-0.5 -9t-1 -20.5t-0.5 -22v-12.5v-38.5t-2 -38.5q7 2 14 4.5t14 5.5
q14 6 26.5 13.5t25.5 15.5q1 1 7.5 7t13.5 11t13 7t6 -4t-5.5 -13.5t-9.5 -11.5q-9 -12 -20 -21t-25 -17q-28 -18 -65 -28q-3 -10 -8 -23q-20 -44 -66 -63q-13 -5 -28.5 -5t-28.5 5t-20.5 16.5t-4.5 29.5q2 14 10.5 23.5t20 15t24.5 9t25 5.5q9 2 18 3.5t18 3.5q4 14 5 29
t3 30l2 35q-14 -11 -30.5 -17t-35.5 -3q-14 2 -26.5 8.5t-20.5 18.5q-3 5 -5.5 10.5t-2.5 12.5q0 2 0.5 7t5.5 1zM-25 191q10 -1 19.5 3.5t17.5 11t14.5 15.5t10.5 17q-1 -1 -4 -1l-28 -6t-28 -9q-5 -3 -9.5 -8t-6 -10t1.5 -9t12 -4z" />
    <glyph glyph-name="m_right" horiz-adv-x="497" 
d="M-57 401q17 -12 34.5 -20.5t38.5 -9.5q12 -1 22.5 2t21.5 8q12 3 16 -8q4 -9 2 -19.5t-7 -21t-11.5 -20.5t-10.5 -17l-13 -20l48 47q25 23 51 47.5t56 38.5q22 10 37 -2t11 -35q-5 -25 -17.5 -45.5t-24.5 -42.5l20 15q14 10 26 20t26 19q9 7 20 14.5t23 13.5t24.5 8.5
t24.5 -1.5q20 -8 22.5 -29t0.5 -39q-1 -8 -2 -15t-3 -15q-3 -15 -5 -29t-3 -30q21 11 39 30.5t35 36.5l36 34l15 14q4 3 8.5 8t9.5 7q3 2 6 -1t1 -7q-5 -5 -8.5 -10.5t-7.5 -10.5q-15 -19 -30.5 -38t-32.5 -36q-14 -14 -30 -32t-36 -24q-12 -3 -19.5 2t-11 14.5t-4.5 20.5
t0 19l2 24t3 24q2 9 4 24t-3 23q-5 1 -16 -4.5t-16 -9.5q-27 -16 -53 -37q-14 -9 -26.5 -19t-26.5 -19q-8 -5 -19 -11.5t-22 -3.5q-12 2 -15 10t-1.5 17.5t6 19.5t7.5 16q7 14 15 26.5t15 26.5q3 6 5.5 12.5t4.5 13.5v3q-8 -5 -26.5 -20t-38 -31.5t-35.5 -30.5t-19 -17
q-14 -14 -28.5 -27t-29.5 -26q-4 -4 -9 -9.5t-11 -10t-13 -7t-13 -0.5q-17 5 -11.5 24t21 43.5t34 49.5t27.5 41q-8 -2 -15 -5t-9 -3q-12 -2 -24.5 -2.5t-24.5 2.5q-11 4 -22 10t-17 17q-1 1 -2.5 6.5t-2 10.5t0.5 8t6 0z" />
    <glyph glyph-name="n_right" horiz-adv-x="315" 
d="M-58 401q23 -14 48.5 -18t51.5 2q8 2 15.5 3t12.5 -6q7 -9 3.5 -19.5t-7.5 -18.5q-11 -21 -23.5 -39.5t-24.5 -38.5l68 60q14 13 28.5 25t30.5 23q13 10 27.5 20t30.5 13q8 2 15 0t12 -7q10 -11 8 -25t-7 -25q-6 -17 -13.5 -32t-14.5 -31q-6 -13 -14 -27t-10 -28
q7 2 13 6t11 8q11 6 20.5 13t18.5 14q20 14 38.5 30t37.5 31q2 2 6.5 6t6.5 5q4 2 7 -1t0 -7q-14 -20 -30 -39q-16 -18 -32 -36.5t-35 -34.5q-14 -13 -32.5 -25.5t-39.5 -10.5q-12 2 -20.5 9t-10.5 20q-4 20 6.5 41t18.5 39q8 17 17.5 33.5t16.5 35.5l-18 -11
q-11 -6 -20.5 -13t-18.5 -15q-19 -14 -36.5 -28.5t-34.5 -30.5q-16 -15 -32 -30.5t-34 -29.5q-8 -6 -18 -9t-18 6q-8 7 -5 19t9.5 24.5t15 24t12.5 18.5q5 8 10.5 16.5t10.5 17.5q2 2 4 5.5t4 6.5q4 4 7 10q-14 -2 -29.5 0t-26.5 5q-10 4 -18 8t-16 12q-3 5 -4.5 9t-3.5 9
q-1 3 -0.5 7.5t5.5 0.5zM-7 220q1 0 1 1z" />
    <glyph glyph-name="b_intro" horiz-adv-x="233" 
d="M230 665q8 -11 10 -23.5t0.5 -25.5t-6 -26t-9.5 -24q-13 -23 -28 -45.5t-32 -44.5q-25 -32 -51 -62t-52 -59q-16 -19 -30.5 -38.5t-26.5 -39.5q-7 -11 -12.5 -23t-5.5 -25q-1 -15 10 -17t22 3q23 13 40.5 36.5t31.5 44.5q7 10 13 19.5t12 19.5q-4 10 -5.5 20t2.5 18
q2 7 5.5 12.5t5.5 13.5q3 5 6 8.5t10 4.5t12 -2.5t8 -9.5t5 -13t2 -13q0 -11 -2.5 -21t-6.5 -21q8 -11 22 -14t28 1q12 3 24 11q5 3 11 9.5t10 6.5q6 0 4 -5.5t-7 -12.5t-11.5 -13t-7.5 -7q-19 -15 -43.5 -17.5t-44.5 9.5q-14 -26 -33 -48.5t-41 -42.5q-10 -8 -22.5 -15.5
t-25.5 -11.5t-26.5 -2t-24.5 13q-14 14 -14 34t7 38q12 31 30.5 59t38.5 54q21 28 42.5 55.5t42.5 56.5q20 27 40 55.5t34 60.5q6 14 11 28.5t4 30.5q-1 5 3.5 9t10.5 2t10 -11z" />
    <glyph glyph-name="e_intro" horiz-adv-x="226" 
d="M-88 179q5 14 16 21.5t24 13.5q7 3 13.5 5.5t12.5 5.5l-2 4q-9 31 5 62t34 54q9 11 20.5 22t24 20t26.5 15.5t29 7.5q15 2 26.5 -3t18 -14.5t7.5 -22.5t-5 -26q-11 -30 -35 -53.5t-49 -43.5q-13 -10 -25 -18.5t-25 -16.5q9 -3 19.5 -1t21 6.5t20.5 10t16 9.5
q28 16 54 35.5t49 41.5l31 30q2 2 5.5 1.5t4.5 -4.5q0 -4 -3.5 -8.5t-5.5 -6.5q-15 -25 -35.5 -46t-43.5 -40q-15 -12 -36 -25.5t-44.5 -22.5t-45.5 -10t-38 13q-7 -4 -13.5 -7.5t-13.5 -6.5q-12 -6 -23.5 -11t-23.5 -10q-12 -4 -13 3.5t2 15.5zM51 336q-8 -8 -17 -19.5
t-15.5 -24t-10.5 -26t-1 -25.5l13 8q30 20 60.5 45.5t47.5 57.5q5 11 4 18.5t-16 4.5q-18 -2 -34.5 -14t-30.5 -25z" />
    <glyph glyph-name="h_intro" horiz-adv-x="311" 
d="M352 612q-15 -20 -36.5 -35.5t-40.5 -32.5q-42 -39 -81 -81q-28 -29 -54 -60.5t-50 -63.5q-11 -14 -21.5 -28.5t-21.5 -28.5q27 30 56 58t64 52q13 9 31 14t30 -12q5 -8 4 -15.5t-3 -15.5q-6 -20 -15.5 -37.5t-17.5 -34.5q-5 -11 -9 -20t-8 -20q-4 -8 -4 -19v-5
q8 3 15.5 8.5t13.5 10.5q11 8 21.5 15.5t21.5 15.5l55 46l5.5 5.5t10 9t10.5 7t7 -0.5q3 -4 -5 -15.5t-20 -25t-23 -25t-14 -14.5q-8 -8 -25.5 -26.5t-37.5 -33t-39 -18.5t-31 16q-11 20 -2 44.5t18 43.5q5 12 11.5 24t12.5 24l12 23q0 3 4 13q-14 -2 -26.5 -9.5t-24.5 -17
t-22 -19.5l-19 -19q-17 -17 -32 -34.5t-30 -35.5q-19 -22 -38 -48t-45 -40q0 -1 -1 -1h-1q-5 -6 -10.5 -2t-2.5 9q2 7 6.5 13.5t7.5 12.5q8 15 17 30.5t19 31.5q11 18 22.5 36.5t24.5 37.5q35 54 73.5 105t83.5 96q42 42 87 78q11 8 20.5 16t22.5 11q2 0 8 0.5t11 -1t7 -4
t-2 -8.5z" />
    <glyph glyph-name="i_intro" horiz-adv-x="206" 
d="M-83 223q38 17 70 47t60 59q13 12 24.5 24.5t22.5 23.5l16.5 16.5t17.5 13.5t20.5 1.5t21.5 -5.5q7 -4 6 -10q-2 -4 -4 -3.5t-5 -1.5l-32 -36q-16 -18 -30 -35.5t-27 -36.5q-7 -11 -13 -21t-11 -21q-1 -1 -2.5 -5.5t-3 -10t-2.5 -9.5l-1 -4q9 -2 20 6.5t19 13.5
q25 19 50 41q11 10 22.5 20t23.5 20l25 20l9.5 9.5t10.5 6.5q6 1 5 -3.5t-5 -10.5t-9 -12t-6 -7q-5 -5 -9 -10t-9 -10q-38 -42 -81 -74q-7 -6 -17 -14t-21 -15t-22.5 -10t-21.5 1q-14 6 -17.5 17.5t-1.5 24t8 25.5t11 22l9 15l-13 -14q-14 -17 -28.5 -33.5t-34.5 -27.5
q-15 -10 -36 -5q-3 1 -6.5 3t-6 4.5t-2 5.5t5.5 5zM194 469q-1 15 9 27.5t22 20.5q3 2 10.5 5t15 4.5t12.5 -1t4 -12.5q0 -11 -10.5 -23t-18.5 -20q-3 -3 -10 -6.5t-14 -5.5t-13 0t-7 11z" />
    <glyph glyph-name="k_intro" horiz-adv-x="312" 
d="M285 630q-12 -16 -25.5 -30.5t-25.5 -29.5q-25 -29 -48.5 -58.5t-46.5 -59.5q-24 -31 -46.5 -61t-44.5 -62l-14 -19l18 18q15 14 30.5 27.5t31.5 26.5q15 11 32.5 21.5t37.5 14.5q13 2 25 -2.5t20 -15.5q8 -14 5 -29.5t-11 -29.5q-17 -29 -45.5 -50.5t-60.5 -32.5
q-1 -10 0.5 -20t6.5 -18q4 -5 10.5 -5.5t14 1t14.5 5t12 5.5q29 15 55.5 35.5t52.5 43.5q6 5 12.5 10.5t12.5 11.5q4 3 11 10.5t12 8.5q7 1 6 -4.5t-3 -8.5q-5 -7 -10.5 -14t-11.5 -14q-40 -49 -94 -89q-11 -8 -25 -17t-29 -14.5t-30 -5.5t-28 9q-11 8 -16.5 20.5t-7.5 26.5
q-1 4 -2 12t-1 16.5t2 15.5t7 9q10 8 22.5 12.5t22.5 11.5q27 18 52 40q2 2 7 7.5t8 11.5t2.5 11t-7.5 7q-14 2 -29.5 -7.5t-26.5 -17.5q-49 -34 -90.5 -77.5t-79.5 -89.5q-3 -3 -5.5 -6.5t-5.5 -5.5q-13 -4 -18 9q-2 8 0.5 18.5t4.5 18.5q9 28 25 53t33 49q35 53 71 103.5
t76 98.5q20 24 39.5 47t40.5 45q16 18 38 18q6 1 15 -2.5t2 -12.5z" />
    <glyph glyph-name="l_intro" horiz-adv-x="232" 
d="M-142 172q7 -2 16.5 -0.5t19 5.5t17.5 8.5t14 7.5q17 9 33 19.5t31 21.5q22 15 45 33q18 63 57 119.5t82 106.5q42 53 92 101q21 20 46.5 42t54.5 29q11 3 22 0t16 -13q7 -13 1.5 -27.5t-11.5 -25.5q-17 -29 -38 -55t-43 -51q-45 -51 -92 -99.5t-98 -94.5l-59 -51
q-3 -7 -5.5 -15t-0.5 -16v-2q0 -1 1 -1q5 -4 12.5 -2t12.5 5q15 6 28 15t26 19q24 18 46.5 38.5t45.5 39.5q1 1 5 4.5t8 6.5t8 4.5t6 -1.5t0 -7.5t-5.5 -9t-7.5 -9t-5 -6.5q-39 -47 -90 -88q-10 -8 -22.5 -16.5t-26 -15t-27.5 -8.5t-27 4q-11 5 -14.5 13.5t-4.5 19.5
q-2 -2 -6 -4q-25 -18 -53.5 -36.5t-58.5 -26.5q-25 -7 -46 1l-10 4q-4 5 -2 9.5t7 4.5zM178 439q-23 -29 -44 -59.5t-39 -62.5l37 33q37 33 71.5 68t68.5 72q17 18 32.5 37t29.5 40q7 10 13 19t11 20q7 13 11 24l-4 -2q-8 -4 -15 -9l-14 -10q-14 -12 -28 -25t-28 -27
q-27 -29 -53 -58t-49 -60z" />
    <glyph glyph-name="n_intro" horiz-adv-x="407" 
d="M137 361q-3 -1 -10 -6t-14.5 -10.5t-13.5 -10t-7 -5.5q-27 -24 -53 -53l-59 -58l-51.5 -51.5t-58.5 -42.5q-14 -8 -30.5 -10.5t-32.5 2.5q-3 1 -7.5 2t-6.5 4q-5 6 -2 11.5t9 6.5q25 3 47 15t42 28.5t38.5 34.5t35.5 34q18 17 36 33.5t35 33.5q17 16 34.5 32t37.5 28
q11 8 26 12t26 -7q14 -13 11.5 -31t-8.5 -34l19 18q15 14 30 26.5t32 23.5q14 10 29 20t34 6q15 -4 21 -13.5t5.5 -21t-5 -24t-10.5 -21.5q-11 -15 -22.5 -29.5t-21.5 -29.5q-2 -3 -7.5 -11t-11 -17.5t-8 -17.5t1.5 -11q4 -2 9.5 -1t11.5 4t11 6.5t8 5.5q10 7 19 14.5
t18 15.5q11 10 22.5 20t23.5 20q11 10 22 18.5t24 16.5l9 6t10 2q6 -5 1.5 -11.5t-6.5 -9.5q-17 -27 -38.5 -51t-45.5 -44q-9 -8 -21 -17.5t-24.5 -17t-26.5 -12.5t-28 -3q-14 1 -22 8.5t-11.5 17.5t-2.5 22t6 23q6 15 15 28.5t17 27.5q4 6 7.5 12t8.5 12l17 28q0 2 2 5.5
t4 6.5q-14 -2 -27 -10.5t-23 -16.5q-16 -11 -30 -23.5t-28 -25.5q-14 -12 -27 -25.5t-26 -27.5l-24 -28q-5 -5 -9 -9.5t-12 -2.5q-12 2 -11 15.5t8 29.5t15.5 31t11.5 20q5 7 8.5 14t7.5 14q2 5 4.5 9.5t4.5 9.5q0 1 1.5 3.5t2.5 5.5t2.5 5.5t1.5 1.5l1 1h-2zM136 362
q-1 0 -0.5 -0.5t1.5 -0.5z" />
    <glyph glyph-name="r_intro" horiz-adv-x="280" 
d="M-149 185q43 15 81.5 41.5t73.5 54.5q23 18 44 36.5t42 38.5l11 11q-4 14 -1 30t10 30q4 9 12 17.5t17 14t19.5 5t19.5 -9.5t7 -20t-8.5 -22.5t-15.5 -22t-14 -17.5l-3 -4q10 1 21.5 9.5t19.5 11.5q15 5 27.5 -1.5t16.5 -23.5q1 -7 -2 -14.5t-9 -15.5t-12.5 -15
t-10.5 -13q-19 -22 -38 -44.5t-29 -48.5q8 2 17 8.5t16 11.5q11 8 21 16t21 16q19 15 36.5 31t36.5 32q5 5 10 8.5t10 8.5q6 5 6.5 -1.5t-1.5 -10.5q-13 -20 -28.5 -37.5t-32.5 -34.5q-8 -8 -27.5 -26.5t-41.5 -33.5t-42.5 -20t-30.5 13q-7 11 -5 23.5t8 25t13.5 23.5
t13.5 19l33 43l10 11q-6 -2 -11 -2q-21 -6 -39 4q-34 -38 -72.5 -74t-80.5 -65q-11 -8 -23 -15.5t-24 -15.5q-7 -4 -18.5 -9t-23.5 -8t-23.5 -2.5t-18.5 6.5q-8 9 -2.5 17t14.5 10z" />
    <glyph glyph-name="s_intro" horiz-adv-x="277" 
d="M-100 217q12 1 27 9t30 18.5t29 22t25 19.5q26 21 51 43.5t49 46.5t42 51q3 4 5.5 10t6 10.5t8.5 7t12 -0.5t9 -9t1.5 -13t-2.5 -13.5t-3 -11.5q-4 -18 -5.5 -35.5t-3.5 -34.5l-4 -39h1q24 5 47 10.5t45 17.5q2 1 6.5 4.5t9.5 7t9.5 5.5t7.5 1q4 -2 2 -6.5t-6 -10t-9 -10
t-6 -5.5q-24 -23 -53 -31.5t-60 -14.5q-4 -15 -9.5 -28.5t-15.5 -25.5q-8 -9 -20 -18.5t-25.5 -15.5t-27.5 -6t-26 9q-14 10 -14.5 22.5t6.5 24.5t18.5 21.5t20.5 15.5q32 15 64 24q2 13 3 25l2 24l3 34l-20 -23q-40 -45 -85 -85q-20 -19 -42.5 -36.5t-48.5 -29.5
q-12 -5 -24.5 -7t-25.5 2q-4 1 -7.5 4.5t-5 7.5t0 7.5t8.5 4.5zM126 241q2 4 3.5 8t3.5 8q-7 -2 -14 -4.5t-14 -4.5q-4 -2 -14 -6.5t-19 -11t-13.5 -14t1.5 -14.5t17.5 -2.5t17.5 9.5q21 13 31 32z" />
    <glyph glyph-name="t_intro" horiz-adv-x="257" 
d="M-77 436q9 8 21 11t25 6q18 5 36.5 8t37.5 6q27 5 55 10t56 9q20 26 40 49q23 26 46.5 50t51.5 44q9 6 22 14t26.5 12.5t26.5 4t23 -11.5t9 -25t-7.5 -28.5t-16 -27.5t-15.5 -22q-7 -9 -13 -18t-14 -18q43 5 85.5 8t86.5 4q15 1 31 1t32 -2q4 0 9 -0.5t7 -3.5
q5 -5 1.5 -9t-8.5 -6q-26 -16 -54 -16.5t-58 -2.5q-83 -5 -165 -12l-25 -27q-47 -52 -96 -100.5t-105 -90.5l-3 -3q-2 -8 -2.5 -15t2.5 -12q9 -3 22 -0.5t27.5 9.5t28.5 16t25 18q22 17 46.5 37t47.5 37q3 2 7.5 5.5t6.5 -1.5q2 -4 -7 -15.5t-24 -25.5t-34 -30t-36.5 -29.5
t-31 -23.5t-17.5 -13q-9 -6 -19 -11t-21.5 -8t-22.5 -2t-21 8q-8 5 -11.5 13t-5.5 16q-17 -11 -34 -20t-35 -16q-27 -11 -54 -11q-6 0 -18.5 1t-16.5 8q-5 9 5 13q43 12 83 32.5t78 46.5q2 8 5 14.5t5 12.5q15 41 36 79t46 73q-31 -4 -62 -7.5t-60 -9.5q-17 -2 -33 -5
t-33 -6q-4 -2 -9.5 -3.5t-9.5 -0.5q-5 2 -5.5 6t4.5 7zM97 319q13 10 25 20t24 21q28 25 54.5 51t51.5 55l-66 -6q-3 -3 -5.5 -6.5t-4.5 -6.5q-20 -26 -37.5 -53.5t-32.5 -56.5zM264 548q-27 -26 -51 -54l69 9q10 13 19 25t17 26l23 37l10 23q-11 -3 -21.5 -11t-15.5 -13
q-13 -10 -25 -20.5t-25 -21.5z" />
    <glyph glyph-name="v_intro" horiz-adv-x="341" 
d="M-118 425q31 -24 69.5 -31.5t76.5 -7.5q18 0 36.5 1t35.5 6q3 3 6.5 5.5t7.5 4.5q19 10 35 9q4 0 11.5 -2t2.5 -8q-18 -23 -36 -47t-32 -50q-2 -3 -9 -18.5t-14 -33t-10 -32t5 -14.5q16 2 31 12.5t27 19.5q15 13 29 26t28 27q29 32 50 63q3 5 7 10.5t7 11.5v12.5t2 12.5
q2 8 7 18.5t13 15.5q11 6 18 -3.5t8 -19.5q1 -14 -3 -27t-11 -26q6 -6 12.5 -11t14.5 -8q8 -4 16 -6.5t18 -1.5q6 0 13 2t12 4q4 2 9.5 4.5t8.5 0.5q4 -3 2 -8t-6.5 -10t-9.5 -10t-7 -6q-31 -19 -63 -8q-12 4 -21 11.5t-16 16.5l-17 -24q-42 -55 -97 -89q-9 -6 -22.5 -14.5
t-28.5 -14.5t-29 -7t-24 10q-13 14 -11 34t6 37q4 22 10 43t17 41q2 5 4.5 9.5t5.5 9.5q-32 -11 -65 -12.5t-66 2.5q-19 4 -37.5 9t-31.5 22q-5 5 -6.5 10.5t-2.5 12.5q-2 7 1 15t13 1z" />
    <glyph glyph-name="w_intro" horiz-adv-x="447" 
d="M-78 435q31 -23 69.5 -31t76.5 -7h22.5t22.5 2l13 9q21 13 41 14q3 0 8 -1t8.5 -2.5t4.5 -5t-3 -7.5q-11 -12 -24.5 -21.5t-26.5 -20.5q-14 -11 -26.5 -24t-23.5 -28q-9 -14 -16.5 -28.5t-12.5 -29.5q-2 -6 -2.5 -14t1.5 -14q2 -5 10 -4.5t11 1.5q34 5 64.5 27t56.5 43
l31 29q10 16 20.5 26t20.5 2q7 -7 1 -20l-1 -1q-2 -5 -7 -11.5t-11 -13.5q-15 -24 -19 -48q-2 -8 -3 -20t6 -18q3 -3 11.5 0t11.5 5q20 10 35.5 26.5t28.5 33.5q14 18 27 41q4 7 9 15t8 16q-5 12 -4.5 22t14.5 14q6 3 13 0.5t11 -7.5q9 -12 4 -31h1q2 -5 6.5 -10.5t9.5 -8.5
q10 -7 23 -4q6 1 14 6q2 1 6.5 4.5t7.5 4.5q6 4 6.5 -2t-1.5 -9q-9 -12 -20 -20q-13 -8 -27.5 -8.5t-27.5 6.5q-5 1 -11 8q-13 -26 -31 -50t-40 -44q-17 -16 -38 -29t-46 -13q-14 1 -21.5 8t-11 18t-3.5 23.5t2 24.5q-15 -14 -27.5 -23.5t-17.5 -12.5q-12 -8 -28 -17
t-33.5 -14.5t-34.5 -5.5t-30 12q-16 14 -17 34.5t6 41.5t18.5 40.5t21.5 32.5q7 10 17 20q-23 -3 -45.5 -2.5t-44.5 2.5q-20 4 -38.5 9t-31.5 22q-5 4 -6 10t-2 11q-2 7 1 15.5t13 1.5z" />
    <glyph glyph-name="y_intro" horiz-adv-x="339" 
d="M-141 189q22 -3 42 10t37 26q23 17 44 36.5t41 39.5q21 20 41 40.5t43 39.5q6 4 12.5 9t14 8t15.5 2t15 -7q6 -6 5 -15t-5.5 -18.5t-11 -18.5t-10.5 -15q-8 -12 -15 -24t-14 -25q-1 -2 -5.5 -10t-9 -17t-7 -16.5t-0.5 -9.5h-1q11 -2 22.5 6t18.5 14q29 24 50 48
q22 26 41 52.5t41 51.5q3 4 7.5 8t9.5 5.5t10 0.5t9 -8q3 -6 1.5 -13t-5.5 -14t-8.5 -13.5t-7.5 -11.5q-17 -31 -34 -61t-34 -61q27 23 54.5 45t56.5 45l25 19q1 1 4 3.5t6 4t5.5 1t2.5 -5.5t-6.5 -12.5t-10.5 -10.5l-20 -24q-25 -25 -50 -47q-58 -54 -116 -104
q-24 -42 -48 -83t-49 -82q-18 -29 -37.5 -57.5t-40.5 -54.5q-9 -11 -19 -23t-21.5 -22.5t-24.5 -18.5t-27 -11q-16 -3 -28.5 2t-21 14.5t-11 23t1.5 28.5q9 29 30 55t41 47q48 52 101 97.5t107 90.5l16 13q12 20 23.5 41t23.5 42l-22 -21q-13 -11 -27.5 -21t-31.5 -12
q-19 -2 -30 8q-14 12 -11.5 31t8.5 33q12 27 31.5 50.5t34.5 49.5q-8 -5 -14.5 -12.5t-11.5 -12.5l-28 -27q-13 -14 -25 -27t-25 -25q-24 -25 -50 -47t-56 -39q-12 -6 -29.5 -9.5t-29.5 4.5q-3 2 -6 5.5t-4.5 7.5t0.5 6.5t8 2.5zM-25 -89q53 78 100 155q-42 -38 -82 -76
t-78 -80q-11 -12 -22 -24.5t-19 -26.5q-4 -6 -5.5 -13t-0.5 -13t6 -9t14 -1q14 2 25.5 12t19.5 21q12 13 22 27z" />
    <glyph glyph-name="A" unicode="A" horiz-adv-x="913" 
d="M830 221q-16 -10 -33.5 -16t-35.5 -9q-9 -23 -17.5 -45.5t-16.5 -45.5q-11 -33 -21 -67t-16 -69q-5 -31 -6.5 -66t13.5 -65q2 -5 6 -10l8 -10t9.5 -7.5t9.5 -7.5q5 -6 1.5 -9t-9.5 -4.5t-13 -1t-9 0.5q-15 3 -26.5 13t-20.5 23.5t-14.5 28t-7.5 28.5q-5 32 0 65t13 65
q8 33 18.5 65t23.5 64q5 13 10 25.5t11 25.5q-18 -1 -36.5 0t-35.5 2q-35 2 -71 5.5t-72 8.5q-8 0 -12 1l-32 -43q-17 -24 -33.5 -48.5t-32.5 -49.5l-26 -40q-2 -5 -5 -9t-8 -5q-6 0 -8.5 3.5t-2.5 9t0.5 11.5t0.5 9q-1 29 -16 49.5t-37.5 34.5t-49.5 22t-51 12
q-30 5 -59.5 7.5t-60.5 2.5q-3 0 -14.5 -0.5t-22 1t-16 6.5t3.5 15q8 10 23.5 17t27.5 12q27 9 55 14t57 8q57 6 114 5.5t114 -3.5l50 -2q49 61 102 118.5t111 110.5q51 45 103 87t108 81q23 17 49 34t56 22q9 2 17.5 -3t3.5 -17q-8 -17 -16 -33l-16 -32
q-51 -96 -101 -190.5t-92 -194.5l29 2q6 1 14 2.5t13 -0.5t3.5 -7t-5.5 -7zM635 236q23 -2 45 -3l44 -2q38 83 83 163l86 154q17 29 34.5 57t31.5 59q-18 -8 -34.5 -21t-30.5 -24q-54 -39 -105 -81q-51 -43 -98 -89.5t-92 -94.5q-46 -52 -92 -110l64 -4zM385 161
q10 14 19.5 27t20.5 27q-31 4 -62 6l-62 4q-56 2 -113.5 -1.5t-111.5 -22.5q13 0 26 -0.5t26 -1.5q30 -3 60 -8t59 -16t55.5 -30.5t40.5 -45.5q3 6 7.5 12t7.5 11q7 11 13.5 20t13.5 19z" />
    <glyph glyph-name="B" unicode="B" horiz-adv-x="600" 
d="M8 76q-5 20 -2 45q3 15 11 26t18 22q9 11 16 24t15 25q8 13 16.5 25.5t17.5 25.5q38 57 80.5 109t92.5 100q48 45 98 86t107 73q29 17 58.5 30.5t61.5 21.5q11 3 24 5.5t26 2t24.5 -5t20.5 -14.5t12 -22.5t2 -25.5t-5.5 -26t-10.5 -23q-14 -28 -34.5 -52.5t-43.5 -46.5
q-20 -18 -41 -35.5t-44 -33.5q12 -20 12.5 -45t-4.5 -47q-7 -32 -20.5 -62t-31.5 -58q-35 -57 -79.5 -105.5t-98.5 -86.5q-45 -31 -98.5 -54.5t-109.5 -20.5q-13 0 -25.5 4.5t-22.5 12.5t-16 19.5t-6 25.5q-2 33 13 62t35 55q41 51 95.5 88t114.5 63q27 11 54.5 19.5
t56.5 15.5q11 2 21.5 3.5t21.5 -0.5q5 -2 5.5 -4t-1.5 -5t-5.5 -5.5t-5.5 -3.5q-11 -4 -22.5 -6.5t-22.5 -5.5q-14 -5 -28.5 -10t-28.5 -11q-29 -11 -56.5 -25.5t-54.5 -31.5q-27 -18 -53 -39.5t-49 -45.5q-21 -22 -38 -52q-7 -13 -13.5 -30t-1.5 -32q4 -16 18.5 -18.5
t27.5 -2.5q39 5 75.5 20.5t69.5 37t62.5 48.5t56.5 56q29 31 54 65.5t45 72.5q6 12 12.5 26.5t10.5 30.5t4.5 31.5t-6.5 28.5q-53 -34 -108 -55q-13 -5 -28.5 -10.5t-31.5 -7.5t-31.5 0t-27.5 12q-11 10 -10 22.5t8 24.5t17.5 22.5t18.5 16.5q20 15 44.5 25.5t50.5 15t52 1
t49 -15.5l16 12q26 20 51 41.5t47 45.5q10 11 20 23.5t18 25.5q7 12 14 27t3 29q-5 11 -17.5 13.5t-27 0t-28 -7.5t-20.5 -8q-32 -14 -62 -31t-58 -37q-54 -38 -102 -82.5t-93 -92.5q-43 -48 -81.5 -100t-73.5 -106q-14 -23 -27.5 -46t-27.5 -46q-3 -5 -8 -15t-11 -16.5
t-12 -7t-10 12.5zM402 381q16 8 31.5 17t30.5 19q-20 8 -41.5 7t-43.5 -6q-30 -8 -55 -24q-4 -2 -11 -7.5t-13 -12t-10 -12t-1 -8.5q10 -7 23.5 -5t24.5 6q17 5 33.5 11.5t31.5 14.5z" />
    <glyph glyph-name="C" unicode="C" horiz-adv-x="505" 
d="M717 569q-7 -5 -15 -7.5t-16 -5.5q-10 -2 -19.5 -5.5t-19.5 -7.5q-1 -3 -2 -5.5t-3 -5.5q-13 -25 -31 -50.5t-46 -36.5q-17 -7 -32.5 3t-14.5 30q2 24 21 42.5t38 30.5q23 14 52 24q2 6 4 12.5t4 13.5q3 9 4.5 23t-6.5 21q-19 17 -44 15.5t-47 -7.5q-33 -8 -62.5 -22.5
t-58.5 -31.5q-59 -35 -111.5 -79.5t-98.5 -95.5q-44 -51 -82 -110t-59 -124q-11 -29 -14.5 -60.5t4.5 -62.5q3 -10 6.5 -19.5t11.5 -17.5q11 -11 25.5 -15t28.5 -5q32 -2 64.5 7.5t60.5 24.5q13 7 24.5 15t21.5 19q4 4 8 8.5t7 9.5q3 4 5 9t6 9q7 8 12.5 2t5.5 -13
q-1 -12 -7.5 -23.5t-13.5 -19.5q-20 -23 -44 -41t-52 -31q-27 -12 -59 -18.5t-62 -3t-55 19.5t-38 49q-12 31 -13 64t5.5 65.5t19 63.5t27.5 59q32 60 74 113t91 101q49 46 105 86t117 69q29 14 61 25t65 15q12 1 27 0t29 -5.5t25 -13.5t16 -23q4 -14 2 -27.5t-5 -27.5
l-3 -13q4 0 10 2q11 2 20.5 3.5t19.5 -0.5q7 -2 9.5 -8.5t-3.5 -11.5z" />
    <glyph glyph-name="D" unicode="D" horiz-adv-x="1015" 
d="M400 559q0 11 4 22.5t14 18.5q13 10 28.5 16t29.5 12q57 25 121 40q66 15 132.5 19.5t133.5 -5.5q24 -3 52 -10t53 -20t43.5 -32.5t24.5 -47.5q6 -35 -9 -69t-35 -62q-41 -54 -93.5 -96.5t-107.5 -80.5q-57 -41 -116.5 -77t-121.5 -71q-116 -65 -236 -122t-247 -99
q-11 -4 -22.5 -6.5t-23.5 -3.5t-17 9.5t2 19.5q15 21 39.5 31.5t47.5 19.5q30 11 60 21.5t60 21.5q8 3 16.5 6t16.5 7q-5 0 -8.5 3.5t-3.5 8.5q-3 12 -0.5 24t6.5 23q7 15 14 30.5t15 29.5q16 31 34.5 60t37.5 57q38 60 76.5 119.5t83.5 116.5q11 14 22.5 28t23.5 28
q11 12 22 24.5t24 23.5q11 8 23.5 13.5t26.5 6.5h8t9 -1.5t5.5 -5t-2.5 -8.5q-38 -50 -78.5 -96.5t-78.5 -95.5q-42 -54 -81.5 -109t-76.5 -114q-17 -28 -34 -55.5t-32 -56.5q-6 -13 -12 -25t-15 -23q-1 -2 -1.5 -2t-1.5 -1q21 9 41.5 19t41.5 20q127 61 247.5 130
t234.5 151q40 29 78.5 61t67.5 72q14 20 23 42t7 48q-5 20 -20 33t-35 21.5t-41.5 12.5t-38.5 6q-50 5 -100.5 1.5t-99.5 -14.5q-79 -16 -161 -47q-17 -7 -33.5 -15t-33.5 -15q-5 -2 -12 -5t-12 -2q-8 -2 -8.5 4.5t-0.5 11.5z" />
    <glyph glyph-name="E" unicode="E" horiz-adv-x="607" 
d="M686 612q3 14 11 25q0 1 2.5 4.5t5.5 6.5q-23 4 -46.5 1t-45.5 -6q-39 -8 -77 -19.5t-75 -25.5q-35 -13 -70.5 -28.5t-67.5 -35.5q-16 -11 -30 -22t-28 -25q-7 -7 -13 -16q-1 -2 -3 -7.5t-2 -3.5q-2 -28 17.5 -35t46.5 -4t54 11t40 11q11 2 22 6t22 0q5 -2 15.5 -6.5
t11.5 -10.5q0 -6 -3.5 -5.5t-7.5 -0.5q-16 -11 -27 -16q-13 -7 -26 -13.5t-27 -12.5q-55 -27 -108.5 -53.5t-101.5 -64.5q-25 -20 -48 -41t-43 -45q-15 -17 -29.5 -39.5t-8.5 -46.5q3 -12 18 -24t36 -17q33 -9 68 -8t69 6q67 11 130 35t118 64q7 5 20 11.5t21 -2.5
q5 -5 3.5 -12t-5.5 -14t-10 -12.5t-10 -8.5q-26 -21 -56 -37t-62 -28q-64 -24 -135 -35.5t-140 1.5q-32 5 -62 21.5t-40 50.5q-7 24 -2 48.5t17.5 47.5t29 43.5t32.5 36.5q39 37 84.5 67.5t96.5 47.5l35 12q-22 -1 -43 5t-35 25q-14 18 -13 37t10 37t24 34t29 27
q51 42 113.5 70t125.5 47q53 17 111.5 28.5t113.5 -2.5q12 -3 19 -11.5t9.5 -19t-1 -21.5t-13.5 -18q-13 -9 -27 -16.5t-27 -18.5q-5 -5 -10.5 -2t-3.5 10q-1 3 0 6.5t2 6.5z" />
    <glyph glyph-name="F" unicode="F" horiz-adv-x="571" 
d="M181 553q4 13 13 21t20 12.5t24 7t24 5.5q32 8 65 15l66 14l17 3q7 11 15 16q6 5 10.5 0.5t7.5 -9.5q56 10 111.5 17t112.5 12q69 6 137.5 9.5t137.5 3.5q62 1 124 0q12 0 23 -2.5t21 -11.5q6 -6 7.5 -14t-8.5 -13q-22 -11 -49 -8.5t-50 2.5q-64 0 -127 -3
q-69 -3 -136.5 -7.5t-136.5 -11.5q-45 -5 -90 -11t-90 -13q-6 -10 -12 -19.5t-13 -18.5l-72 -112l-14 -21l66 12q32 6 65 11.5t66 6.5q14 1 27 0.5t26 -5.5q8 -4 17.5 -11t4.5 -19q-4 -9 -16 -12l-20 -5q-14 -2 -27.5 -2.5t-27.5 -2.5q-33 -2 -65.5 -4.5t-65.5 -5.5
q-21 -3 -41.5 -6.5t-40.5 -7.5q-51 -81 -96 -165q-33 -60 -63 -120.5t-55 -123.5q-5 -13 -10.5 -26t-10.5 -26q-2 -8 -5 -18t-7 -17q-3 -7 -6.5 -8t-7.5 1.5t-7 6.5t-5 7q-5 10 -7 21.5t-3 22.5q0 28 9 55.5t20 53.5q6 13 12.5 26t14.5 24t17 20t16 22l28 52t29 52
q14 26 28.5 50.5t30.5 50.5l15 25q-9 -2 -17.5 -4t-17.5 -3q-3 0 -9.5 -1t-12 -0.5t-8 3t2.5 9.5q14 21 41 31t51 15q20 32 40.5 63.5t42.5 62.5l35 50l-24 -4q-29 -5 -57 -11l-56 -12q-12 -3 -23.5 -6t-22.5 -8q-11 -4 -10.5 3.5t2.5 13.5z" />
    <glyph glyph-name="G" unicode="G" horiz-adv-x="648" 
d="M893 621q-12 -11 -28 -14t-30 -8l-7 -2l-17 -14q-11 -8 -25 -16.5t-28 -12.5q-11 -2 -20.5 4t-4.5 19q5 20 25.5 32t43.5 20q3 5 5.5 8.5t3.5 8.5q-6 4 -22 3.5t-34.5 -3t-35.5 -6t-24 -5.5q-34 -8 -66.5 -20t-64.5 -26q-124 -58 -236 -140q-55 -40 -106.5 -86
t-93.5 -101q-20 -24 -37 -52t-29 -58t-16 -61.5t2 -63.5q4 -19 14.5 -30.5t25 -17.5t31 -8t33.5 0q44 5 85.5 22t77.5 41q34 24 60 58.5t25 78.5q-9 -2 -17.5 -2t-16.5 -1q-14 -1 -29.5 -2t-31.5 -0.5t-31 3.5t-27 11q-20 11 -17.5 31t17.5 32q24 19 58 23t63 -4
q42 -11 63 -47q17 4 33 9t33 10q23 6 47 12t47 11q2 1 5.5 2.5t6.5 0.5q5 -2 4 -5t-4.5 -7t-7.5 -7t-5 -3q-32 -26 -69.5 -40t-78.5 -21q3 -32 -7 -61t-28 -54t-42 -45.5t-49 -35.5q-26 -15 -57.5 -27.5t-65 -18.5t-67 -4t-61.5 17q-24 12 -37.5 33t-18.5 45.5t-4 50.5t6 49
q14 65 48.5 122t78.5 107q43 51 94 94.5t107 79.5q60 38 123 69.5t129 53.5q10 4 30 10t44 12.5t50.5 11.5t51 7.5t44 0t30.5 -11.5q19 -16 16 -39q10 1 21 0q7 -2 15 -7.5t0 -14.5zM298 212q20 -4 41 -5t42 0q-11 7 -27 10q-14 2 -28 -0.5t-28 -4.5z" />
    <glyph glyph-name="H" unicode="H" horiz-adv-x="892" 
d="M1058 740q-1 -12 -4 -23.5t-8 -22.5l-5 -12.5t-6.5 -15t-7.5 -13.5t-10 -9q-6 -2 -11.5 -3.5t-10.5 -6.5q-9 -12 -19 -22l-41 -52q-44 -55 -84 -111t-78 -116q-22 -35 -43 -71t-38 -74q36 -11 71.5 -23t70.5 -27q62 -26 118 -66l26 -20q5 -5 11 -9.5t8 -10.5
q4 -12 -4 -18t-17 -8q-10 -2 -19.5 -4.5t-18.5 -2.5q-11 0 -26.5 3t-20.5 14q-3 7 -4.5 13.5t-3 12t-5 10t-10.5 9.5q-30 18 -60 33q-32 16 -65.5 29t-67.5 24q-11 -27 -18 -54q-4 -13 -7 -28t-3 -30.5t3.5 -29.5t12.5 -26q8 -9 3 -16t-16 -6q-12 0 -22.5 3t-18.5 13
q-9 11 -13 25t-4.5 29t1.5 30t5 28q4 20 9.5 39t13.5 39q-98 27 -202 39q-16 -29 -31.5 -58.5t-29.5 -58.5q-16 -32 -29.5 -63.5t-21.5 -65.5q-4 -11 -13 -19.5t-22 -0.5q-12 8 -23.5 18.5t-22.5 19.5q-27 22 -55 42.5t-56 40.5q-13 9 -38 27.5t-45 40t-26.5 44.5t18.5 43
q11 8 23.5 12.5t24.5 6.5q17 4 35 6l36 4q35 4 70.5 5t70.5 0q23 -1 45.5 -1.5t45.5 -2.5q22 40 45.5 79.5t47.5 78.5q33 53 68 103.5t73 101.5l38 48q8 10 15.5 19t19.5 14q10 3 19 3t19 -2q6 -1 15 -5t1 -12q-48 -50 -87 -107t-77 -114q-35 -53 -68 -105.5t-65 -107.5
q51 -5 100 -13t99 -20l1 2q28 60 63 116.5t73 110.5q75 106 159 207q18 23 36.5 45.5t38.5 45.5q6 8 13.5 17t15.5 14q6 4 10.5 2.5t6.5 -5t3 -9t0 -9.5zM357 207q-22 2 -43.5 2.5t-43.5 1.5h-54t-54 -2q-8 0 -26.5 -1.5t-38 -4t-36 -7.5t-21.5 -13q-6 -10 2 -20.5t14 -16.5
q18 -19 40 -35t43 -31q32 -22 64.5 -43t64.5 -43q12 49 33 96.5t44 92.5z" />
    <glyph glyph-name="I" unicode="I" horiz-adv-x="253" 
d="M143 795q47 -20 97 -26.5t100 -4.5q14 13 28.5 25.5t30.5 24.5q10 7 22.5 16.5t26 17t28 11t28.5 0.5q13 -3 21 -12t11 -20t-0.5 -23t-12.5 -21q-28 -27 -69.5 -38.5t-78.5 -18.5q-7 -2 -13.5 -2.5t-13.5 -1.5q-20 -22 -38 -44q-45 -54 -84 -110.5t-71 -118.5
q-32 -57 -55.5 -119t-32.5 -128q-5 -31 -4.5 -62t7.5 -62q2 -6 3.5 -11.5t2.5 -10.5q2 -3 4.5 -8t2.5 -8q1 -3 -3.5 -3.5t-10 1t-11 3.5t-6.5 2q-28 12 -36.5 36t-10.5 52q-1 33 2.5 66.5t11.5 66.5q17 66 45.5 128t65.5 119q36 57 77.5 108t86.5 99q-23 -1 -44.5 1t-43.5 6
q-18 4 -35.5 10.5t-28.5 23.5q-1 2 -4 9t-4.5 14t0 11.5t9.5 1.5zM401 772q20 3 40.5 8t36.5 11.5t23.5 14.5t1.5 18q-8 8 -21.5 2t-22.5 -11q-29 -18 -54 -39z" />
    <glyph glyph-name="J" unicode="J" horiz-adv-x="534" 
d="M543 434q-26 -2 -51 -7.5t-49 -13.5q-17 -45 -36.5 -88t-40.5 -86q-30 -61 -64.5 -120t-76.5 -113q-20 -25 -42.5 -49t-50.5 -41q-17 -11 -39 -18.5t-42 0.5q-16 5 -25.5 16.5t-14 26.5t-6 31t-0.5 30q3 32 12 63.5t23 60.5q27 60 69.5 110.5t95.5 88.5q14 11 28.5 20.5
t29.5 19.5l-6 17q-8 33 -7 66t8 65q14 64 45 123t75 108q9 10 19.5 21t22 20.5t24.5 15.5t28 6q19 -2 31.5 -13t17.5 -29q8 -30 3.5 -64t-11.5 -64q-7 -35 -17 -68.5t-21 -67.5l-16 -44q8 2 14.5 3.5t14.5 3.5q11 2 25.5 5t25.5 0q8 -3 14 -8.5t11 -11.5t3.5 -9t-6 -4
t-10 -1.5t-8.5 -0.5zM318 309q-4 -2 -9 0.5t-10 6t-9.5 7t-5.5 5.5q-4 4 -5 6q-45 -30 -84 -67.5t-70 -82.5q-40 -58 -58 -125q-10 -31 -10 -68v-10.5t1.5 -15t4 -12.5t8.5 -5q23 2 43 19.5t35 34.5q20 22 38 46.5t35 49.5q35 52 65.5 106.5t57.5 111.5l33 72
q-15 -7 -30 -14.5t-29 -15.5l-12 -7l6 -6q3 -3 7 -8t6.5 -10t1 -10t-9.5 -8zM291 382q52 31 108 54q12 29 23 58l22 58q10 30 19 61t15 63q1 6 3.5 19t3.5 27t-1.5 25.5t-11.5 14.5q-3 1 -7.5 -2.5t-9.5 -8.5t-9.5 -10.5t-6.5 -7.5q-14 -16 -27 -31t-26 -32
q-23 -32 -43 -65.5t-34 -70.5q-13 -33 -21 -69.5t0 -71.5z" />
    <glyph glyph-name="K" unicode="K" horiz-adv-x="769" 
d="M1075 743q-39 -27 -81.5 -48t-84.5 -42q-19 -9 -37.5 -18.5t-38.5 -18.5q-74 -33 -148 -63.5t-150 -56.5q-72 -24 -144 -44.5t-145 -37.5q-5 -10 -11 -19t-12 -19q80 -22 157.5 -48.5t152.5 -61.5q22 -11 43.5 -21.5t42.5 -21.5l47 -27q23 -12 47.5 -26.5t40.5 -34.5
q7 -9 8 -22.5t-15 -15.5q-11 -2 -21 -1.5t-19 7.5q-29 18 -55.5 39t-55.5 38q-50 28 -99 51q-69 32 -139.5 58.5t-142.5 49.5l-12 3q-32 -54 -63.5 -108.5t-60.5 -109.5q-13 -23 -24 -48t-27 -46q-5 -8 -11 -7t-10 9q-5 13 -2 23.5t8 21.5q34 71 69 141.5t73 140.5
q-10 3 -19.5 6.5t-19.5 7.5q-5 1 -14 3.5t-16.5 6.5t-11 10t3.5 14q5 5 12 5t13 2l32 6q14 2 26.5 5t25.5 6l11 3q9 17 18.5 32.5t20.5 32.5q32 53 66.5 104t73.5 100q17 22 34.5 44t38.5 40q9 8 20 10t22 0q3 0 7 -1t7.5 -2.5t5 -4t-0.5 -7.5q-12 -26 -33 -46.5t-39 -42.5
q-20 -26 -40 -51.5t-38 -52.5q-23 -34 -45.5 -67.5t-44.5 -68.5q127 35 247 83.5t238 104.5q39 19 77.5 38.5t77.5 39.5q23 11 45.5 23.5t45.5 25.5q11 7 21 10t24 -3q3 -1 10 -4.5t13 -8.5t8.5 -10t-3.5 -9zM177 398q-5 -1 -10.5 -1.5t-10.5 -2.5l17 -4z" />
    <glyph glyph-name="L" unicode="L" horiz-adv-x="544" 
d="M533 753q13 23 36 42t49 26q10 2 23.5 0.5t19.5 -10.5q4 -6 2 -13t-7 -14.5t-11 -13.5t-9 -10q-27 -35 -57.5 -66.5t-61.5 -63.5q-108 -107 -213 -213q-77 -80 -149 -161q-19 -21 -36.5 -42t-33.5 -44q-18 -23 -28 -44q-4 -8 -8.5 -18.5t-0.5 -19.5q3 -2 10 -1.5t10 0.5
q25 2 49.5 8t50.5 12q35 10 69.5 19t69.5 17q31 8 65 16t67.5 11.5t67 1.5t65.5 -14q27 -10 29 -37q1 -7 -0.5 -18t-13.5 -8q-16 4 -31.5 9.5t-31.5 7.5q-19 4 -37.5 5t-36.5 0q-72 -3 -140.5 -18.5t-137.5 -31.5q-16 -4 -45.5 -11.5t-57.5 -8.5t-47.5 10t-16.5 43
q4 30 21 58.5t34 52.5q20 29 42.5 56t45.5 53q75 90 155 175t165 166l72 69q-8 -1 -10 7.5t3 15.5z" />
    <glyph glyph-name="N" unicode="N" horiz-adv-x="613" 
d="M33 705q-2 -11 4 -13t14 0q18 3 35 9l34 12q23 9 47 17t47 16q25 8 51 14.5t52 9.5q11 2 24.5 3.5t26 0t24 -7t17.5 -17.5q8 -16 8 -32t-5 -32q-8 -32 -22.5 -60.5t-34.5 -54.5l-26 -36q35 35 71 68q51 48 105 90t115 76q14 7 39.5 19.5t52 19t49 2t30.5 -29.5
q4 -11 2 -23t-7 -24t-11.5 -23t-12.5 -20q-19 -28 -39.5 -55t-41.5 -54q-15 -19 -29 -37t-28 -37q-49 -64 -96 -128t-92 -131q-48 -72 -93 -147t-80 -154l20 13q7 5 13.5 9.5t13.5 9.5q4 3 13 11.5t14 6.5q7 -3 1 -15t-17 -25.5t-22 -25t-14 -14.5q-9 -8 -21 -17.5t-26 -9.5
t-22.5 9t-9.5 23q-3 25 7 51.5t19 48.5q26 64 63 122.5t78 113.5q30 41 60.5 80.5t61.5 78.5l86 109l50 62t48 63q13 15 23.5 30t21.5 32q15 25 23 51q-11 0 -20.5 -1t-21.5 -6q-17 -5 -33 -13t-31 -16q-31 -16 -59.5 -35t-56.5 -40q-56 -41 -107 -88t-99 -97
q-68 -69 -131 -142t-124 -148q-5 -7 -11.5 -12.5t-14.5 -7.5q-4 -1 -10 -2t-11 0t-8 4.5t-1 10.5t8 14.5t10 13.5l19 29l43 62l64 88l117 158q21 29 40.5 58.5t39.5 58.5q9 14 17.5 27.5t13.5 27.5q2 5 3 13.5t-4 13.5q-5 6 -15 6.5t-16 0.5q-17 -1 -35 -5t-35 -9
q-35 -11 -69 -23t-66 -27q-12 -6 -27 -12.5t-31 -10t-31.5 -3.5t-29.5 7q-12 7 -17 19t0 26q2 2 5 6t6 6q5 3 10.5 -0.5t4.5 -9.5z" />
    <glyph glyph-name="M" unicode="M" horiz-adv-x="958" 
d="M31 878q0 -5 1 -13.5t8 -11.5q12 -8 29.5 -6t31.5 4q35 6 68.5 14.5t68.5 13.5q26 4 55 6.5t56.5 -0.5t52.5 -14.5t43 -34.5q17 -22 17.5 -50t-5.5 -53q-8 -32 -23 -61t-32 -57q-35 -61 -72.5 -119.5t-73.5 -118.5q-16 -26 -30.5 -52t-28.5 -52q55 70 112 136.5
t119 130.5q24 25 48 49t50 46q23 21 47.5 43.5t52.5 36.5q20 10 42.5 11.5t37.5 -13.5q17 -18 13.5 -40.5t-12.5 -42.5q-21 -45 -52 -84t-60 -78q-15 -20 -28.5 -40t-27.5 -40q27 29 55.5 58t57.5 57q49 47 101.5 90.5t109.5 79.5q24 15 51.5 28.5t56.5 15.5q12 1 20.5 -3.5
t13.5 -12.5t7 -18t1 -20q-2 -32 -16 -60.5t-30 -55.5q-11 -20 -22 -38.5t-23 -37.5q-23 -39 -45.5 -77.5t-45.5 -76.5q-20 -32 -38 -65t-35 -66q-23 -45 -43.5 -94.5t-23.5 -100.5q0 -17 2.5 -33.5t12.5 -30.5q18 -24 48.5 -30t56.5 4q29 11 42 35q5 6 6 13t4 12q4 5 10.5 5
t9.5 -7q8 -11 7.5 -23t-6.5 -23.5t-15 -21.5t-19 -16q-26 -16 -57 -18t-59.5 8t-51.5 30t-35 47q-14 34 -12.5 71t12.5 72q26 82 69.5 158t91.5 148q25 36 49.5 73t48.5 74q17 26 35 55.5t27 58.5q1 4 3.5 9.5t3 10t-2 6.5t-9.5 1q-16 -2 -30.5 -8.5t-28.5 -14.5
q-30 -17 -58 -36.5t-55 -39.5q-54 -42 -104.5 -88t-99.5 -95q-25 -25 -48 -49.5t-49 -47.5q-4 -3 -8.5 -7.5t-9.5 -5.5q-5 0 -8 4t-1 10q0 14 7.5 29t12.5 28q22 50 50 95.5t60 90.5l33 46q6 9 14.5 19.5t15.5 22t12 23t5 23.5q0 3 -4.5 3t-9.5 -2t-10.5 -4.5t-6.5 -3.5
q-15 -8 -29 -17t-27 -20q-27 -21 -52 -44t-51 -46q-38 -38 -74 -76.5t-71 -78.5q-54 -60 -104 -121.5t-99 -125.5q-10 -12 -18.5 -24t-18.5 -24q-2 -7 -6.5 -8.5t-9 0.5t-7.5 7t-2 11q5 32 15.5 62t24.5 59q20 38 40 75.5t42 73.5q32 51 64 100.5t64 99.5q19 29 37 58.5
t35 61.5q6 13 12.5 27t10 29t3 29.5t-6.5 28.5l-8 11q-23 21 -53 23t-59 -1q-37 -5 -73.5 -12.5t-72.5 -15.5q-27 -6 -58 -8.5t-56 11.5q-30 17 -29 50q0 5 2 12t7 9q6 4 11.5 0.5t5.5 -9.5z" />
    <glyph glyph-name="O" unicode="O" horiz-adv-x="567" 
d="M616 357q-29 -20 -63.5 -37t-70.5 -20q-47 -68 -109 -128q-23 -22 -48 -43t-53 -38t-58 -29.5t-62 -16.5q-31 -5 -61.5 -0.5t-53.5 29.5q-22 23 -28 53.5t-4 61.5q5 63 30 122t59 111q35 54 77.5 102.5t93.5 89.5q25 19 51 37t55 30q10 5 20.5 8t21.5 5q9 2 15 -6t-3 -14
q-47 -32 -91 -64.5t-83 -72.5q-45 -47 -83.5 -99.5t-67.5 -110.5q-14 -29 -26 -60t-17 -64q-2 -13 -3 -29t1.5 -31.5t10 -28.5t22.5 -19q28 -11 61 -2t58 21q29 14 54.5 34t48.5 43q55 54 103 120q-4 2 -7.5 4t-7.5 4q-30 19 -42.5 49t-12.5 63.5t9 68t21 61.5
q13 28 29.5 58.5t36.5 58.5t44.5 51.5t53.5 38.5q26 14 55 12t46 -29q8 -13 10 -28.5t0.5 -31.5t-5 -32t-6.5 -29q-16 -67 -42 -130t-61 -121l-29 -46q30 3 56 14q11 5 21 10t19 11l8 4t8 -1t3.5 -7.5t-4.5 -6.5zM382 435q-2 -30 11.5 -56t40.5 -38q10 15 19.5 29.5
t18.5 29.5q37 59 71.5 120t57.5 126q3 10 8.5 27t6.5 34t-4 29.5t-23 14.5q-15 1 -28.5 -5.5t-25.5 -17.5t-22.5 -24t-17.5 -23q-20 -26 -37.5 -58t-32.5 -61q-16 -29 -29 -60.5t-14 -66.5z" />
    <glyph glyph-name="P" unicode="P" horiz-adv-x="729" 
d="M5 -29q0 12 1 26t4.5 27.5t10 25t17.5 18.5q11 8 19.5 20t16.5 24q9 14 19 27t19 27q41 54 83.5 106t87.5 103q46 53 93 102t98 96q50 45 102.5 86.5t111.5 73.5q29 16 60.5 28t65.5 12t55 -19t19 -54q-2 -32 -14.5 -61.5t-26.5 -56.5q-32 -58 -74 -114
q-41 -54 -89.5 -102.5t-105.5 -83.5q-18 -11 -44 -24.5t-53.5 -21t-53.5 -5.5t-45 22q-13 13 -15.5 29.5t2 33.5t14 32.5t20.5 26.5q10 10 24 19.5t29.5 14t31 3.5t29.5 -11q2 -2 5 -4t4 -6q3 -7 0 -12.5t-10 -6.5t-13 0t-13 -1q-11 -4 -24 -11q-6 -4 -19 -15t-23.5 -24.5
t-14 -26t10.5 -18.5l1 1q18 -5 37 -1t37 13t34.5 20t30.5 21q35 26 67.5 57.5t62.5 63.5q30 33 57.5 68.5t50.5 73.5q12 20 22.5 40t17.5 42q1 4 3 11t2.5 14.5t-1.5 13.5t-8 9l1 1q-29 7 -57.5 -3t-54.5 -24q-30 -15 -57.5 -33.5t-53.5 -39.5q-55 -44 -105.5 -91t-98.5 -97
q-90 -96 -171 -198l-80 -104q-18 -26 -38 -51.5t-33 -54.5q-11 -19 -23.5 -37.5t-25.5 -35.5q-4 -5 -9.5 -8t-12.5 0q-8 3 -9 9.5t-1 14.5z" />
    <glyph glyph-name="Q" unicode="Q" horiz-adv-x="569" 
d="M12 415q17 -21 35.5 -40.5t37.5 -39.5q18 54 44 104q29 57 69.5 105.5t91.5 86.5q19 14 39 25.5t41 20.5q1 0 2 1q20 20 44 38t51.5 33.5t58.5 20.5q20 5 38 1t29 -23q8 -14 11 -29.5t3 -32t-2 -33t-4 -31.5q-5 -35 -15 -68.5t-24 -65.5q-24 -63 -55.5 -121.5
t-73.5 -112.5q-25 -32 -53.5 -63t-62.5 -55q37 -29 75 -54q29 -20 58 -38t58 -34q27 -14 55 -27.5t58 -21.5q6 -2 16.5 -3t15.5 -7q6 -7 0.5 -13t-10.5 -10q-12 -10 -25 -12.5t-26 -1t-26 6.5t-25 11q-72 35 -137.5 80.5t-126.5 98.5q-11 -5 -21.5 -9.5t-21.5 -7.5
q-23 -7 -48 -8.5t-48 6.5q-32 11 -48 38.5t-21 58.5q-4 30 -1.5 61t10.5 61q-13 15 -25 30.5t-23 31.5q-13 16 -21 31l-2.5 2.5t-1.5 2.5q-1 3 1 6.5t6 -0.5zM322 526q-9 12 -11 24.5t0.5 25.5t8 25.5t12.5 23.5q-72 -55 -122 -133q-29 -45 -51.5 -94t-34.5 -101
q37 -35 76 -68t79 -65q29 20 53.5 45.5t44.5 52.5q42 55 73.5 116t57.5 124q13 32 24 65t19 67q3 16 6 31.5t4 31.5q1 13 -1 25t-16 16t-29 1.5t-29.5 -10t-27 -17.5t-22.5 -19q-44 -45 -70 -104q-5 -14 -10.5 -27t-11.5 -26q-5 -9 -9 -15t-13 5zM175 129q33 0 66 14l-19 19
q-27 25 -53 51t-51 54q-3 -20 -4 -44t4 -44.5t18.5 -35t38.5 -14.5z" />
    <glyph glyph-name="R" unicode="R" horiz-adv-x="535" 
d="M7 581q-3 13 -2 24.5t12 19.5l35 27q29 20 59 34.5t62 28.5q61 24 125.5 37t130.5 17q1 2 5 6q9 11 18.5 21.5t20.5 18.5q5 4 9.5 8.5t10.5 2.5q10 -3 17 -12q4 -6 7.5 -16t-2.5 -15q-5 -4 -8.5 -7t-6.5 -7q25 -2 50.5 -6.5t48 -14t40.5 -26t27 -40.5q12 -31 2 -60.5
t-30 -55t-46.5 -47.5t-47.5 -38q-51 -38 -107 -69t-113 -59q-29 -14 -58 -27t-59 -24l-30 -58q75 -30 148.5 -64.5t146.5 -70.5l20 -9q8 -5 9 -12.5t-3 -15.5q-5 -9 -11.5 -10.5t-13.5 0.5t-14 6t-13 7q-19 9 -37.5 18.5t-38.5 18.5l-111 52l-99 46l-44 -88q-4 -8 -8 -16.5
t-12 -13.5q-9 -6 -19 -1t-12 16q0 11 5 21l10 20l23 50l15 31q-11 5 -23 9.5t-23 10.5q-12 5 -12.5 19t11.5 20q13 7 27.5 11t28.5 10l37 15q29 60 60 118.5t64 115.5q24 42 49 84t54 81q-25 -4 -50 -9t-49 -11q-90 -25 -172 -69q-20 -11 -39 -22.5t-36 -25.5
q-5 -4 -15 -13.5t-15 -7.5q-4 2 -5 8t-3 8zM235 354q22 10 43 20.5t42 21.5q60 31 119 66.5t110 80.5q11 10 25.5 23t26.5 28.5t18.5 32.5t2.5 34q-5 20 -21.5 32.5t-37.5 19.5t-44 10t-40 4h-18q-29 -35 -53.5 -73.5t-47.5 -77.5q-29 -48 -56 -95.5t-53 -97.5zM142 278
q-13 -5 -29 -10l10 -4l10 -4z" />
    <glyph glyph-name="S" unicode="S" horiz-adv-x="448" 
d="M482 678q11 6 22.5 10t22.5 9q2 1 10.5 5.5t17.5 10t15.5 11.5t5.5 9q-1 2 -12 4t-13 2q-16 2 -32 0.5t-32 -6.5q-32 -7 -63 -19.5t-60 -29.5q-57 -34 -106 -77q-23 -21 -45 -47t-33 -56q-5 -15 -3.5 -27.5t7.5 -23t15.5 -20t20.5 -17.5q24 -19 49 -36.5t45 -41.5
q20 -23 27 -53t-1 -59q-9 -30 -28.5 -53t-43.5 -41q-38 -29 -86 -46.5t-96 -18.5q-10 0 -21.5 0.5t-22 3.5t-19.5 8.5t-14 16.5q-9 19 1 39q9 20 27 35t37 24q4 2 15 4.5t22.5 3t19.5 -3t5 -14.5q-4 -14 -12 -21t-21 -12l-13 -6.5t-22.5 -12t-20 -13t-6.5 -9.5q7 -7 19.5 -7
h20.5q17 2 33 6.5t33 9.5q30 11 58.5 26.5t51.5 38.5q10 10 19.5 22.5t14.5 26t5 28t-8 28.5q-16 29 -44.5 47t-52.5 37q-21 15 -39 34t-26 44q-7 23 -2.5 47.5t15.5 45.5q15 28 35.5 53t44.5 46.5t50.5 40.5t53.5 34q35 20 72.5 36t77.5 24q31 7 65 7.5t62 -16.5
q19 -12 20 -28.5t-8 -33t-24.5 -30.5t-27.5 -21q-14 -8 -30 -12.5t-32 -0.5q-6 1 -12 5t-9.5 9t-3 10.5t8.5 10.5z" />
    <glyph glyph-name="T" unicode="T" horiz-adv-x="378" 
d="M126 714q0 1 3 5t7 8.5t7.5 8.5t4.5 6q9 7 22 9q16 2 31 4.5t29 4.5q32 5 64 7.5t64 5.5l99 6l7 7l16 16t19 13q3 1 8.5 2t10 1t7 -3t0.5 -9t-5.5 -12t-7.5 -11l122 6q70 4 139.5 5.5t138.5 1.5q31 0 61.5 0.5t62.5 -0.5h22.5t22.5 -2q14 -1 14 -12.5t-9 -17.5
q-17 -11 -36.5 -17.5t-39.5 -8.5q-8 -2 -14 -1.5t-14 4.5q-6 2 -12.5 5t-14.5 4q-17 1 -34.5 0.5t-34.5 -0.5q-69 0 -138 -2.5t-138 -7.5q-36 -2 -72.5 -4.5t-72.5 -5.5q-21 -26 -40.5 -50t-39.5 -50q-43 -56 -83.5 -112.5t-78.5 -116.5q-36 -57 -70.5 -114.5t-67.5 -117.5
q-12 -23 -23 -46.5t-27 -43.5q-7 -9 -13 -2t-9 12q-7 13 -8 24.5t5 25.5q50 103 111.5 198t128.5 188q34 47 68.5 92t72.5 89l17 20q-43 -4 -74 -6.5t-57.5 -4.5t-53 -5t-60.5 -7q-5 -1 -13 -2.5t-14.5 -1.5t-10.5 3t1 12z" />
    <glyph glyph-name="U" unicode="U" horiz-adv-x="598" 
d="M124 875q1 -11 12.5 -12t26.5 2t29.5 8t19.5 7q31 11 61 21t62 18q21 5 50.5 10t57.5 2.5t49 -16t25 -45.5q3 -29 -10 -58t-27 -54q-32 -58 -74 -114q-42 -55 -85.5 -106.5t-88.5 -103.5q-31 -36 -61.5 -73t-58.5 -75q-14 -18 -26.5 -37.5t-23.5 -39.5l-7.5 -15t-8 -19
t-4.5 -19.5t4 -16.5q6 -8 16.5 -10t21.5 0t22 6t19 7q31 12 59.5 29t56.5 35q37 25 72 51.5t70 55.5q39 103 104.5 192t141.5 165q5 5 19.5 18t34 28.5t41 30t40.5 22t33 5.5t18 -20q3 -12 -1 -25.5t-11.5 -26.5t-16.5 -24t-16 -20q-20 -28 -42.5 -53t-45.5 -51
q-57 -62 -117 -120.5t-124 -113.5q-11 -23 -21.5 -47t-18.5 -48q-8 -22 -14 -46.5t-8.5 -50t0.5 -50.5t15 -47q15 -25 41 -36t55 -11t57 10.5t46 28.5q16 16 22 35q1 6 5.5 7.5t9 0.5t7 -4.5t0.5 -9.5q2 -47 -36 -75q-23 -18 -52.5 -25.5t-60 -5t-59 14.5t-47.5 34
q-17 16 -25.5 38.5t-11.5 44.5q-6 33 -3.5 67t10.5 66q2 11 5 22.5t6 22.5q-23 -18 -46 -35l-46 -34q-27 -20 -55.5 -37.5t-58.5 -31.5q-14 -6 -29 -12.5t-31 -10t-32 -3t-31 8.5q-25 15 -28 39.5t5.5 51.5t23 53t25.5 43q36 57 77 111t83 107q42 54 83.5 107t84.5 107
q20 26 40.5 54t33.5 58q4 10 7.5 24.5t-7.5 21.5q-14 8 -32 4.5t-32 -7.5q-32 -9 -62 -19.5t-62 -19.5q-30 -8 -62.5 -14.5t-64.5 -3.5q-20 2 -36 13t-17 32q0 7 1 14.5t8 9.5q8 4 14 0t7 -12zM489 407q38 35 74.5 71.5t71.5 74.5q22 23 43 46.5t41 48.5q11 13 20.5 25.5
t18.5 26.5q5 8 10.5 16.5t8.5 17.5q-8 -4 -15.5 -10t-12.5 -11q-11 -9 -21 -18l-20 -18q-20 -19 -38 -38.5t-36 -39.5q-72 -81 -135 -176z" />
    <glyph glyph-name="V" unicode="V" horiz-adv-x="392" 
d="M14 769q29 -3 50 -20.5t36 -42t25 -52t16 -51.5q17 -63 21 -126.5t2 -128.5q-1 -15 -1.5 -29.5t-2.5 -29.5q23 38 46.5 74t49.5 71q75 106 164 206t197 175q26 18 52.5 33.5t55.5 28.5q12 5 23.5 9.5t24.5 8.5q8 2 20.5 6.5t20.5 -2.5q9 -6 7 -14.5t-8.5 -17t-14.5 -16
t-12 -11.5q-22 -20 -44 -35q-14 -10 -27 -12.5t-27 -6.5q-14 -5 -27 -14t-25 -17q-14 -10 -27.5 -19.5t-26.5 -20.5q-25 -20 -48.5 -40.5t-45.5 -42.5q-49 -48 -93.5 -98.5t-86.5 -104.5q-43 -55 -81.5 -113t-73.5 -118l-4 -6q-5 -31 -10 -61t-12 -59q-8 -32 -18.5 -68
t-32.5 -62q-7 -8 -15.5 -11.5t-16.5 -2t-14.5 7.5t-9.5 17q-4 14 -1 28t6 27q5 17 10.5 33t12.5 33q13 32 27.5 62.5t31.5 60.5q0 1 2 3q5 52 7 104t0 103q-3 54 -10 108t-24 105q-16 44 -42 86q-7 10 -13 19.5t-13 17.5q-1 2 -4 7t-4.5 9.5t-0.5 7.5t9 2zM84 53q2 5 3 10.5
t2 11.5q-8 -16 -14 -32t-11 -32q-4 -10 -7 -20t-3 -21q4 6 7.5 14.5t5.5 12.5q5 14 9 28z" />
    <glyph glyph-name="W" unicode="W" horiz-adv-x="732" 
d="M357 738q20 14 44 27t48 14q11 1 21.5 -1.5t16.5 -11.5q7 -11 3.5 -21.5t-11.5 -17.5q-78 -62 -148 -138q-44 -48 -84 -100.5t-77 -106.5q-37 -55 -70.5 -115t-47.5 -125q-3 -14 -5.5 -33t8.5 -31q4 -4 12 -3t16 5t15 8.5t11 7.5q32 21 60 48t54 55t52 58q20 42 37.5 73
t25.5 43q9 14 18.5 27.5t19.5 26.5q9 11 20.5 22.5t25.5 13.5q10 2 19 -2t11 -15q2 -12 -5 -25t-13 -23q-24 -42 -53 -80.5t-61 -74.5l-11 -23q-14 -29 -26 -58.5t-22 -60.5q-4 -14 -8 -28.5t-7 -28.5q-2 -10 -5 -27t3 -26l-2 1q10 -5 22 -1t23.5 11.5t21.5 16.5t16 15
q26 23 48.5 49.5t44.5 53.5q43 54 82.5 109.5t79.5 112.5q41 56 80 111.5t81 109.5q39 52 79 103t85 98q21 22 43.5 42.5t46.5 37.5q10 8 20 15t22 9q14 1 31 -5q11 -2 12.5 -12.5t-6.5 -17.5l-40 -29q-24 -19 -46 -39.5t-42 -43.5q-46 -48 -88.5 -99.5t-83 -104.5
t-79.5 -107l-78 -108q-40 -57 -80 -111.5t-83 -108.5q-23 -27 -46 -53t-49 -50q-22 -20 -49 -37.5t-58 -17.5q-30 0 -43.5 16.5t-15 43.5t7 62.5t22.5 73.5l-52 -47q-23 -18 -50.5 -37t-59.5 -19q-17 0 -28 8.5t-17.5 21.5t-9 28t-1.5 29q3 33 13.5 64.5t24.5 60.5
q36 81 82.5 155t100.5 143q36 47 76 92t85 84q-11 -2 -23 0q-6 2 -10.5 7.5t3.5 10.5z" />
    <glyph glyph-name="X" unicode="X" horiz-adv-x="785" 
d="M8 58q-8 25 4 52t25 47q19 26 43 48t49 43q51 47 105 88.5t111 81.5l75 54q6 50 20 102q-24 -14 -50 -23.5t-53 -14.5q-29 -5 -59 -4t-55 21q-8 6 -13.5 12.5t-8.5 14.5q-2 3 -3 8t-0.5 9t3 6t9.5 0q51 -19 102 -10t98 32q14 8 28 15.5t27 15.5l14 34t15 34q6 12 12 25.5
t14.5 26t18.5 22.5t24 15q10 4 21 2.5t20 -6.5t14 -14t5 -21q-1 -29 -20.5 -54t-38.5 -44q-12 -14 -25.5 -27t-27.5 -25q-5 -16 -8.5 -31t-7.5 -31l-10 -45q78 54 157 105t160 102q27 17 53.5 35.5t54.5 35.5q11 7 23 13.5t25 12.5q3 1 8 4.5t10.5 5.5t10 1.5t7.5 -5.5
q3 -8 -3.5 -17t-11.5 -14q-9 -13 -20.5 -23.5t-22.5 -21.5q-11 -9 -23 -12.5t-25 -8.5q-15 -6 -28.5 -16.5t-26.5 -18.5q-91 -60 -180.5 -121t-178.5 -125q-7 -42 -10.5 -84t-5.5 -84q-1 -32 0.5 -66t11.5 -66q3 -11 9 -22t20 -11q16 0 32 8.5t29 16.5q54 35 100.5 78.5
t94.5 86.5q10 10 20 18t21 16q5 5 9.5 4t2.5 -9q-4 -24 -16 -45.5t-28 -39.5q-42 -46 -93 -83.5t-107 -65.5q-21 -11 -46.5 -19t-48.5 6q-22 13 -31 38.5t-14 48.5q-11 57 -13.5 115t2.5 115l-21 -15q-60 -45 -118 -90.5t-114 -96.5q-26 -22 -50.5 -46t-46.5 -50
q-19 -23 -29 -46q-2 -5 -3 -10t-9 -6q-7 -1 -9.5 3.5t-4.5 9.5zM562 754q-5 -8 -9 -15t-8 -15l5 5q7 8 17 19.5t12 22.5q-5 0 -10 -6.5t-7 -10.5z" />
    <glyph glyph-name="Y" unicode="Y" horiz-adv-x="423" 
d="M26 852q-3 -12 3 -18.5t15 -4.5q15 2 29 8t28 11q29 12 57.5 24t59.5 18q14 3 29.5 5t31.5 1t30 -6t25 -16q15 -17 14 -37.5t-8 -40.5q-11 -31 -28 -60t-34 -57l-74 -115q-37 -57 -75.5 -115.5t-59.5 -123.5q-1 -5 -3.5 -12.5t-4 -15t-1 -14.5t5.5 -10q14 -9 64 24
q19 12 36.5 25.5t34.5 27.5q35 31 68.5 63t66.5 66l6 6q58 96 121 184q10 14 20 27t21 27q10 12 20.5 23.5t23.5 19.5q8 4 17 3.5t13 -9.5q6 -14 -1.5 -29t-14.5 -26q-35 -60 -80.5 -112t-91.5 -103q-58 -106 -104 -212q-23 -52 -42 -104.5t-32 -108.5q-5 -26 -8.5 -53
t-0.5 -54q0 -3 1 -8t1 -9.5t-2.5 -6.5t-8.5 1q-18 9 -29 26q-9 13 -12 27.5t-2.5 29.5t4 30.5t6.5 29.5q7 31 16.5 61t20.5 60q17 45 36.5 87t42.5 84q-20 -20 -41 -39.5t-43 -37.5q-15 -12 -41.5 -30.5t-53.5 -28t-50.5 -4t-32.5 40.5q-8 29 -0.5 61t17.5 60
q12 30 27.5 57.5t33.5 53.5q28 45 59.5 86.5t63.5 83.5q17 22 32.5 44t29.5 45q6 11 12 22.5t11 22.5q1 2 2.5 7t3.5 10.5t3 10.5t0 7q-5 10 -17 11.5t-25.5 -1.5t-26.5 -7.5t-20 -7.5q-54 -20 -106 -33q-11 -3 -25.5 -6.5t-29 -4.5t-27.5 2.5t-21 14.5q-6 8 -6.5 17.5
t1.5 19.5q1 2 2.5 6.5t3.5 6.5q5 3 9.5 0t3.5 -8z" />
    <glyph glyph-name="Z" unicode="Z" horiz-adv-x="760" 
d="M500 705q-17 -8 -36.5 -10.5t-37.5 -7.5q-1 -1 -2 -1q3 0 6 0.5t7 0.5q11 2 20 3.5t19 3.5q35 5 68.5 9.5t68.5 10.5l110 15q35 5 70.5 9t71.5 6q33 3 67 3q15 1 31.5 0.5t30.5 -5.5q17 -5 25 -20t0 -31q-7 -11 -18.5 -20t-22.5 -17q-15 -11 -29.5 -20t-29.5 -19
q-43 -25 -86 -48t-87 -46q-94 -51 -186 -99.5t-185 -99.5q-74 -41 -146 -82t-141 -89q100 23 200 31t202 4q138 -5 273.5 -24t269.5 -51q17 -3 32 -6.5t31 -8.5q5 -1 14 -3t17.5 -5t13.5 -8.5t3 -13.5q-4 -10 -16 -12t-20 -3q-17 -2 -33.5 0.5t-33.5 6.5q-70 17 -140 31.5
t-142 24.5q-135 20 -270.5 28.5t-271.5 -4.5q-26 -3 -52.5 -7t-52.5 -9q-17 -2 -34 -6l-34 -8q-5 -2 -12 -3.5t-13 -1t-10.5 4t-4.5 12.5q0 6 3.5 9.5t5.5 8.5q3 8 6.5 14t7.5 13q10 14 21.5 24.5t25.5 19.5q29 19 58 36.5t60 35.5q125 72 253 136t258 128l155 79l72 41
q15 9 30 21q4 2 9 5t9 7q-8 3 -20 2t-19 -1q-37 0 -73 -3q-37 -2 -73 -5.5t-71 -6.5q-27 -4 -53.5 -6.5t-53.5 -6.5q-35 -3 -68.5 -7t-68.5 -7q-32 -3 -55.5 -6.5t-39.5 -5t-26 -0.5t-16 7q-8 11 -4.5 20.5t13 16t21.5 11t20 6.5q15 5 31 6.5t32 2.5q8 0 17 0.5t18 -0.5
q1 0 4.5 -1t6.5 -2.5t4 -3t-4 -3.5z" />
    <glyph glyph-name="a" unicode="a" horiz-adv-x="256" 
d="M179 391q-35 -8 -68 -23.5t-59 -40.5q-28 -27 -47 -57q-2 -4 -6.5 -11.5t-7.5 -15.5t-4 -15.5t4 -11.5v1q6 -3 14 -0.5t16.5 7.5t16 10.5t11.5 8.5q11 8 21.5 16t21.5 17l6 11q17 28 38 49.5t45 42.5q0 5 5 6t7 -4q1 -4 2 -7t2 -8q4 -9 0.5 -15t-8.5 -14
q-15 -18 -31 -35.5t-34 -34.5q-2 -3 -5 -9.5t-6 -14t-5 -15t-1 -13.5q12 2 24 11t22 17q14 11 27 22.5t26 22.5t25 22t25 21q4 3 11 9.5t12 4.5q3 -2 2.5 -5t-2.5 -7t-5 -7.5t-4 -5.5q-19 -26 -42 -50.5t-47 -45.5q-11 -10 -22.5 -18.5t-23.5 -15.5q-11 -7 -20.5 -8.5
t-22.5 2.5q-14 4 -17 15t-1 25q-6 -5 -12 -9l-12 -8q-14 -10 -30.5 -17.5t-33.5 -5.5q-19 3 -25.5 16t-5.5 29.5t7 33t11 27.5q17 33 43 59.5t58 44.5q32 19 68 19q15 0 32 -5q2 -1 5 -3.5t4.5 -5t1 -5t-5.5 -3.5z" />
    <glyph glyph-name="b" unicode="b" horiz-adv-x="213" 
d="M33 317q-7 -14 -13 -29t-11 -30q-3 -8 -6.5 -22.5t1.5 -22.5q9 -7 19.5 -3t21 12.5t19.5 18.5t13 15q22 27 36 53q1 2 3.5 6.5t5.5 10.5q-5 4 -6 12q-3 11 -3.5 28t8.5 25t21.5 0t17.5 -16q6 -11 7.5 -23t-0.5 -25q18 -9 39 0q2 0 8 4t12.5 8t11.5 5.5t5 -3.5t-3.5 -10.5
t-9 -10t-11.5 -8.5l-9 -6q-24 -13 -51 -7q-5 -11 -10.5 -22t-10.5 -19q-17 -23 -40 -43.5t-51 -31.5q-19 -8 -41.5 -5t-31.5 23q-6 13 -5.5 29t4.5 31.5t10.5 31t11.5 27.5q23 56 53 107.5t65 99.5q18 26 36.5 49t38.5 46q6 7 14 16.5t18 18t20.5 14t21.5 4.5
q18 -2 21.5 -14.5t-2 -30.5t-17 -39t-24 -40t-23.5 -33t-15 -19q-20 -23 -39.5 -45t-41.5 -42q-15 -14 -34.5 -29.5t-32.5 -26.5zM76 394q49 48 90 105q13 18 25.5 36t23.5 38q5 10 10 18.5t9 18.5l-11 -12q-11 -14 -21.5 -26.5t-20.5 -26.5q-21 -28 -41.5 -56t-39.5 -58z
" />
    <glyph glyph-name="c" unicode="c" horiz-adv-x="211" 
d="M130 366q3 1 9.5 8t-1.5 8q-11 0 -20 -4.5t-18 -9.5q-26 -17 -46 -42t-34 -52q-5 -11 -11.5 -25.5t-4.5 -27.5q1 -6 6 -7.5t11 -0.5t12 3l9 3q31 10 58 27t52 37l47 37q2 2 7 6.5t11 9t12 7.5t9 2q6 -3 -0.5 -14t-16.5 -23.5t-20 -23t-12 -12.5q-23 -22 -48 -40.5
t-53 -32.5q-20 -11 -45.5 -20t-48.5 1q-13 5 -20.5 15.5t-10.5 23.5t-2 27.5t5 26.5q12 35 40 65t60 50q10 6 28.5 14.5t37.5 11.5t33.5 -3.5t17.5 -28.5q1 -14 -7.5 -27t-25.5 -15q-4 0 -10.5 2.5t-11.5 6.5t-5.5 8.5t7.5 8.5z" />
    <glyph glyph-name="d" unicode="d" horiz-adv-x="313" 
d="M150 419q10 -1 22 -10q11 22 22.5 43t24.5 42q17 30 37 58.5t43 54.5q7 9 17.5 20.5t22.5 22t25 16.5t27 5q21 -2 26 -15.5t0.5 -33.5t-16 -43t-24 -44t-24.5 -37.5t-16 -22.5q-39 -52 -81.5 -101t-90.5 -92q-3 -6 -6.5 -16.5t-6 -21.5t-2.5 -21.5t5 -17.5q4 -3 10.5 -1
t13 6t12 8.5t7.5 6.5q14 10 26 22l24 24q20 19 39 37.5t42 34.5q5 2 10 1t0 -7q-4 -7 -8 -13.5t-9 -13.5q-18 -23 -38 -45.5t-43 -42.5q-9 -8 -19.5 -18t-23 -18t-26 -13t-26.5 -2q-22 5 -28.5 25t-5.5 40q-17 -14 -37 -27t-39 -19t-35 -1.5t-25 24.5q-5 12 -5.5 24.5
t2 25.5t7 25t9.5 23q11 24 28.5 45.5t39.5 37.5q20 14 44.5 22.5t48.5 2.5zM122 285q6 21 14.5 42t17.5 42l5 12q-14 4 -27 1t-25.5 -9.5t-23 -16.5t-19.5 -19q-12 -14 -22.5 -29t-18.5 -32l-6 -16t-4 -17v-8.5t1 -6.5l1 -1q6 -2 14 0.5t16 6.5t15.5 9t11.5 7q28 17 50 35z
M232 426q-10 -18 -19.5 -36t-17.5 -37l44 49q26 29 49 59.5t45 63.5q10 14 20 30t18 33q1 3 4 9t6 13t4.5 13.5t0.5 10.5q-6 -1 -11.5 -5.5t-11 -10.5t-10 -11.5t-7.5 -8.5q-11 -14 -21.5 -28t-21.5 -29q-37 -55 -71 -115z" />
    <glyph glyph-name="e" unicode="e" 
d="M26 290q-10 -16 -18.5 -32t-8.5 -33q0 -8 4 -10t9.5 -1.5t11.5 2.5t11 4q17 6 32.5 14t30.5 17q26 17 50 34.5t46 37.5q5 4 13 13.5t14 9.5t5 -4.5t-4 -10.5t-7 -11t-4 -6q-36 -48 -88 -83q-24 -17 -53 -32.5t-58 -17.5q-26 -2 -38 16.5t-9 42.5q4 37 23 71t45 60
q9 9 26 20t35 17.5t35 6t28 -14.5q10 -14 6.5 -27.5t-13.5 -25.5t-23.5 -21t-23.5 -14q-32 -15 -66 -20zM52 326q8 3 15.5 6t15.5 8q3 1 12.5 6.5t20 12.5t18 13.5t4.5 9.5q-4 8 -15.5 2.5t-24.5 -15t-23.5 -20l-13.5 -13.5z" />
    <glyph glyph-name="f" unicode="f" horiz-adv-x="166" 
d="M-106 254q0 3 4 5t9 3.5t10 2t7 0.5h30q65 98 139.5 188.5t162.5 168.5q11 10 22.5 18.5t26.5 10.5h8.5t12.5 -1.5t9 -4.5t-1 -9q-14 -18 -31.5 -33t-34.5 -32q-22 -20 -42.5 -41t-40.5 -43q-43 -47 -84 -96.5t-79 -101.5l-12 -16q16 3 31.5 6.5t31.5 8.5q23 8 43.5 17.5
t40.5 20.5l35 19q5 2 7 -1.5t0 -7.5q-26 -40 -70 -64.5t-89 -36.5q-32 -9 -64 -12q-27 -39 -51 -79t-47 -82q-16 -30 -30.5 -60.5t-27.5 -61.5q-6 -16 -11 -31t-10 -31q-2 -7 -3 -13.5t-2 -14.5q0 -4 1 -10.5t3 -6.5q9 0 19.5 6.5t18.5 12.5q14 11 25.5 23.5t22.5 26.5
q20 26 36.5 55t28.5 60q10 28 16 58t4 61q0 9 -0.5 17.5t-0.5 17.5q-1 14 9.5 13t15.5 -11q20 -59 7 -118t-40 -113q-14 -28 -32.5 -53.5t-40.5 -47.5q-9 -9 -20 -19t-23.5 -18t-26 -12t-26.5 -2q-24 4 -33 21.5t-6.5 45t14 61.5t28 70t35.5 71.5t37 65.5l31.5 52.5
t19.5 31.5l8 12l-12 2t-11 5q-6 4 -11 11t3 15z" />
    <glyph glyph-name="g" unicode="g" horiz-adv-x="235" 
d="M158 380q-62 -12 -110 -58q-11 -11 -21.5 -22.5t-18.5 -25.5q-2 -3 -6.5 -10t-7.5 -15t-4 -15.5t3 -11.5q3 -4 10 -2.5t14.5 5t14 7.5t9.5 6q15 8 29 17.5t28 20.5q11 10 21.5 20.5t21.5 19.5q4 4 9.5 4.5t9.5 -2.5q5 -6 4 -12t-4 -11l-30 -51l28 23l26 22t27 21
q2 2 9.5 9t16 13.5t16 10.5t10.5 1q2 -3 -1 -9t-8 -12t-10 -11.5t-6 -7.5q-11 -13 -22.5 -24.5t-23.5 -22.5q-62 -54 -121 -112l-58 -91q-38 -57 -76.5 -113.5t-85.5 -106.5q-7 -7 -17 -16.5t-21 -17t-23.5 -10t-24.5 4.5q-11 6 -13.5 16t-0.5 20.5t7 20.5t10 18
q36 59 84.5 108.5t97.5 97.5q26 26 51.5 51t51.5 49l33 52q-12 -9 -24.5 -17t-26.5 -14q-15 -8 -33.5 -11.5t-32.5 9.5q-17 16 -14.5 38t10.5 41q16 35 43.5 67t61.5 52q16 9 36 17t37 3q4 -1 10 -5.5t10.5 -10t4 -10.5t-9.5 -7zM-122 -71q21 26 40.5 52.5t39.5 53.5
q-14 -14 -27 -27.5t-26 -27.5q-29 -30 -60.5 -65t-46.5 -75q8 7 16 16t13 14q14 14 26.5 28.5t24.5 30.5z" />
    <glyph glyph-name="h" unicode="h" horiz-adv-x="326" 
d="M95 393q-10 -8 -19 -16.5t-20 -16.5q-33 -53 -63 -105q33 33 64.5 63.5t67.5 54.5q14 8 30 16.5t32 1.5q10 -5 16 -13.5t5 -19.5q-1 -17 -9 -35t-15 -32q-1 -3 -6 -14.5t-10 -25t-8 -24.5t1 -11q10 -2 22 3.5t24.5 14t23.5 18t19 15.5l46 38q2 2 8 7.5t12.5 11t12.5 9
t8 0.5q3 -3 0 -10t-8 -14.5t-10.5 -14.5t-8.5 -10q-20 -25 -44.5 -44.5t-50.5 -37.5q-9 -6 -19 -12t-20.5 -9.5t-21 -3t-20.5 8.5q-11 8 -14.5 20.5t-2.5 25.5t6 26t10 23l10 15t16.5 26t13 25t-0.5 12t-11 -1.5t-13 -7l-14 -9t-13 -8.5q-14 -11 -27.5 -21.5t-26.5 -21.5
q-19 -16 -36 -32t-34 -33l-9.5 -9.5t-9.5 -8.5q-4 -4 -9 -10t-11 -11.5t-13 -8.5t-13 0q-7 4 -7.5 10t2 12.5t6.5 13t7 11.5q8 17 17.5 33t18.5 33l36 62t37 62q35 59 73.5 116.5t83.5 108.5q9 9 19.5 20t22.5 20.5t25 15t27 3.5q12 -2 18 -9.5t7.5 -17.5t-0.5 -20.5
t-6 -19.5q-12 -23 -28 -43.5t-34 -39.5q-18 -21 -37.5 -40.5t-39.5 -38.5q-41 -38 -85 -76zM95 421l22 22q26 27 51.5 54t50.5 56q14 16 27.5 32.5t25.5 34.5q7 11 13 22t6 20q-12 -2 -23 -14t-19 -20q-26 -27 -48 -57q-23 -30 -45 -60.5t-43 -62.5z" />
    <glyph glyph-name="i" unicode="i" horiz-adv-x="147" 
d="M103 391q1 -6 -8.5 -18t-15.5 -20q-10 -12 -20 -25t-19 -27q-11 -14 -20 -29t-15 -32q-1 -3 -3 -10t0 -11q5 0 11 4t19 14.5t35.5 29t59.5 49.5q5 4 10.5 8.5t11.5 8.5q4 2 8.5 6t8.5 6q11 2 8 -5t-6 -12q-8 -11 -15.5 -21t-16.5 -21q-19 -23 -39.5 -44t-44.5 -39
q-8 -6 -17.5 -12t-20 -9.5t-20.5 -2.5t-18 10q-11 10 -14 22.5t-1.5 26t6 26.5t10.5 24q11 24 26 47t33 43q4 5 15 10t22 8t20 2t10 -7zM89 454q-3 13 4.5 23t18.5 15q14 6 21.5 -3.5t9.5 -20.5q1 -11 -5.5 -19t-16.5 -11t-19.5 0.5t-12.5 15.5z" />
    <glyph glyph-name="j" unicode="j" horiz-adv-x="178" 
d="M-35 292q19 23 40.5 43.5t47.5 37.5q12 8 25 14t26 14q5 4 10 7t12 1t10 -9t1 -14q-8 -29 -23 -53.5t-29 -50.5l-20 -37l29 25q27 21 53.5 41t56.5 35q8 0 7 -4.5t-5.5 -10t-10.5 -11t-8 -6.5q-14 -12 -27 -23.5t-27 -22.5q-27 -21 -52 -42t-51 -44l-45 -81
q-45 -81 -90.5 -161t-100.5 -155q-17 -23 -38.5 -50t-48.5 -35q-13 -3 -23.5 1t-17.5 12.5t-10.5 20t-2.5 22.5q2 32 18.5 62t33.5 56q19 29 39.5 55t43.5 52q43 48 88 93.5t93 88.5l53 93l32 56q5 9 10.5 18.5t11.5 18.5l6 10q-9 -5 -17 -10.5t-16 -10.5
q-13 -8 -24.5 -16.5t-22.5 -16.5l-26 -19q-2 -1 -3.5 -2t-3.5 -1q-3 0 -5 3t1 6zM-81 74l9 15q-27 -26 -52.5 -52t-51.5 -53q-29 -32 -56 -66t-52 -69l-12 -20t-16.5 -31.5t-11.5 -32t2 -22.5q5 -6 11.5 -4.5t13.5 6t13 10.5l9 9q12 13 22 27l20 28q20 29 38.5 59t36.5 60z
M145 484q-6 13 1.5 32.5t21 34.5t28.5 19.5t24 -11.5q7 -16 -2.5 -29.5t-17.5 -24.5q-4 -5 -11 -13t-15 -13t-16 -5.5t-13 10.5z" />
    <glyph glyph-name="k" unicode="k" horiz-adv-x="307" 
d="M48 339l-9 -14q-13 -19 -24.5 -38t-22.5 -39q34 33 72 66q16 14 31.5 26.5t32.5 24.5q15 12 32 23.5t36 18.5q13 4 25 2t21 -13q11 -14 5 -31.5t-14 -29.5q-19 -29 -52 -48.5t-66 -29.5q5 -14 14 -25t24 -9q11 4 23 10.5t23 13.5q27 17 52.5 37.5t49.5 41.5q2 1 7 6
t10 8.5t9 3.5t4 -7q-5 -14 -13.5 -27t-17.5 -26q-27 -33 -59 -58q-17 -14 -38.5 -29t-44.5 -17q-26 -2 -43.5 14.5t-26.5 39.5q-3 8 -7 21t3 22q2 5 6.5 7t9.5 4l28 17q12 8 24 16.5t23 16.5q4 3 9.5 7t11.5 9t10.5 10.5t5.5 11.5q-11 -1 -23.5 -9t-20.5 -13
q-15 -10 -29 -20.5t-28 -22.5q-26 -21 -52.5 -44.5t-51.5 -46.5l-22 -22t-24 -20q-10 -10 -20 -1.5t-8 20.5q11 31 26 60t32 58q35 61 74.5 118.5t82.5 112.5q20 27 42.5 53t47.5 50q8 8 20.5 18t26 18t28 10.5t27.5 -4.5q16 -9 18 -23.5t-3 -30.5t-14.5 -30.5t-16.5 -24.5
q-22 -29 -48 -54.5t-53 -49.5q-56 -50 -114 -96zM123 446q-11 -14 -20.5 -27.5t-19.5 -27.5q28 23 54.5 47.5t52.5 50.5q20 20 39.5 40t37.5 42q9 11 17 21.5t16 22.5q5 7 11.5 18t7.5 20q-12 -3 -25 -13t-26.5 -22.5t-25.5 -26.5t-21 -24q-26 -29 -50.5 -59t-47.5 -62z" />
    <glyph glyph-name="l" unicode="l" 
d="M43 319q-8 -18 -12 -36q-2 -8 -4 -17t-3 -18q-1 -6 0 -12.5t3 -9.5q10 -3 22 0t23.5 10t21.5 14.5l18 13.5q24 18 47 36.5t49 34.5q1 1 4.5 3.5t7.5 4.5t7.5 2.5t5.5 -2.5q1 -3 -1.5 -8t-6.5 -10t-8.5 -9t-5.5 -6q-20 -23 -41 -44.5t-44 -40.5q-21 -17 -48 -31.5
t-55 -9.5q-21 3 -31.5 18.5t-10.5 35.5q-2 34 9.5 67t24.5 62q14 32 30.5 61.5t34.5 57.5q35 54 75 105.5t87 95.5q8 7 20.5 16.5t26 15t26.5 4.5t23 -14q9 -11 8 -25.5t-7 -28.5t-14.5 -27.5t-14.5 -23.5q-23 -36 -52 -73t-61 -73t-66.5 -68.5t-68.5 -57.5zM130 482
q-19 -28 -36 -56.5t-31 -59.5q24 25 48 50.5t47 51.5t45.5 51.5t43.5 53.5l20 28t19 29q7 11 17 27.5t7 30.5q-11 -3 -21.5 -11t-16.5 -14q-14 -13 -26 -27.5t-25 -28.5q-25 -30 -48 -61t-43 -64z" />
    <glyph glyph-name="m" unicode="m" horiz-adv-x="512" 
d="M-29 291q6 8 21.5 29.5t35 41t38 28.5t30.5 -8q2 0 2.5 -8.5t0.5 -9.5q-2 -12 -8.5 -23t-12.5 -22l-35 -53l48 47q25 25 51 50t58 42q22 12 40 2t14 -38q-3 -15 -10 -29.5t-15 -27.5q-3 -6 -7 -12.5t-8 -12.5l1 1q23 16 47 35q21 16 47 33.5t53 17.5q21 0 30 -15t9 -34
q-1 -14 -3 -27.5t-5 -27.5q-2 -11 -6.5 -28t0.5 -28q10 6 25.5 21.5l29.5 29.5q15 14 30 29t31 29l23 19q3 3 9 2.5t1 -7.5q-1 -5 -6.5 -10.5l-8.5 -8.5q-6 -9 -12.5 -17.5t-13.5 -16.5q-14 -16 -28.5 -32.5t-30.5 -31.5l-12 -12t-14.5 -12.5t-16 -8.5t-17.5 0
q-10 3 -14.5 10.5t-5.5 17.5t-0.5 20.5t1.5 18.5l7 47q0 7 2 19t-3 17q-1 0 -1.5 -0.5t-2.5 -0.5q-6 -2 -12.5 -5t-11.5 -6q-14 -9 -26 -18.5t-26 -20.5q-22 -19 -44 -34q-10 -8 -21 -15.5t-25 -6.5q-12 0 -20 8q-8 10 -3.5 21.5t9.5 20.5q7 14 14.5 27.5t13.5 27.5
q3 7 6 13.5t5 14.5q0 2 1 5q0 2 0.5 4.5t0.5 4.5q-12 -5 -23.5 -14.5t-21.5 -17.5q-15 -13 -29.5 -26t-28.5 -26q-14 -14 -28.5 -27t-29.5 -26q-10 -10 -21.5 -22t-25.5 -17q-5 -3 -13.5 -3t-11.5 7q-4 12 -1.5 21t9.5 21q9 16 19 31t20 31q5 8 10.5 16t10.5 17q1 2 3.5 5.5
t4.5 7.5q-5 -4 -10 -9l-7 -7l-34 -29q-13 -11 -28 -22l-2.5 -2.5t-3.5 -2.5q-3 -2 -6 1t-1 7z" />
    <glyph glyph-name="n" unicode="n" horiz-adv-x="381" 
d="M-30 290q9 18 23 33.5t30 27.5q7 5 17.5 12t22 12t23 6t20.5 -5q7 -5 8.5 -12.5t0 -15.5t-5.5 -15.5t-7 -13.5l-28 -47l-6 -10q7 5 13 11t12 11q14 13 29.5 25.5t31.5 24.5q15 11 29.5 22t30.5 20q14 8 31 15.5t34 2.5q13 -5 17 -14t2.5 -19.5t-7 -21t-10.5 -18.5
q-10 -15 -20 -29.5t-20 -30.5q-1 -2 -4 -7t-6 -11t-4.5 -10.5t-0.5 -5.5h-1l1 -1q8 -2 19 5t16 10q11 7 22.5 14t22.5 15q19 14 37 29l36 30q4 3 9.5 9t10.5 7q6 1 6 -2.5t-2.5 -7.5t-5.5 -8t-4 -5q-26 -32 -57 -60q-18 -17 -37.5 -32t-42.5 -26q-12 -6 -27 -8.5t-27 8.5
q-7 8 -8 18t2 20.5t7.5 21t9.5 18.5l14 22t15 22q3 5 11 14.5t10 17.5q-16 -3 -32 -15t-27 -21q-18 -14 -35.5 -28.5t-36.5 -28.5q-16 -14 -33.5 -25.5t-34.5 -22.5q-8 -5 -18.5 -9t-17.5 4q-6 7 -6.5 15t2.5 16t7.5 16t7.5 15l20 36t20 37q-8 -2 -15 -6.5t-12 -6.5
q-18 -11 -36 -24l-16 -12t-16 -11q-4 -3 -10.5 -4t-3.5 7z" />
    <glyph glyph-name="o" unicode="o" horiz-adv-x="221" 
d="M126 409q4 -3 10 -11t-2 -12h3q20 -5 25.5 -22t3.5 -37q13 -4 26 -2.5t27 5.5q7 3 13.5 5.5t12.5 4.5q3 2 7.5 4t7.5 1q6 -1 3.5 -6t-7.5 -10.5t-11 -10.5t-7 -6q-17 -13 -38 -18.5t-41 -0.5q-2 -4 -3 -7l-2 -6q-11 -26 -30.5 -49t-45.5 -38q-11 -7 -25.5 -11.5
t-28.5 -3.5t-26 8t-18 23q-5 13 -5.5 28.5t2.5 31t8.5 30t11.5 27.5q13 24 32.5 46.5t45.5 34.5q11 5 25 6.5t26 -4.5zM104 352q-3 21 11 31q-21 -7 -37 -22.5t-29 -32.5q-18 -22 -30 -50q-5 -13 -10 -30.5t2 -31.5q3 -6 9.5 -7.5t13.5 -0.5t13.5 4t10.5 6q14 8 25 20.5
t20 26.5q2 3 10 16t16 29q-9 8 -16 19t-9 23zM140 341q2 11 -0.5 17.5t-11.5 5.5q-1 0 2.5 -8t5.5 -10z" />
    <glyph glyph-name="p" unicode="p" horiz-adv-x="320" 
d="M34 362q5 -13 4 -27.5t-6 -28.5q14 15 29.5 28.5t32.5 26.5q10 9 22.5 18t26.5 16.5t28.5 12t29.5 3.5q21 -2 34.5 -17.5t13.5 -36.5q1 -29 -15 -56.5t-36 -47.5q29 13 55 29.5t50 36.5q10 6 21 15q3 2 6.5 6.5t7.5 5.5q8 0 6 -5.5t-4 -7.5q-5 -6 -10 -12.5t-11 -11.5
q-20 -20 -42.5 -36t-47.5 -30q-24 -14 -50 -24t-52 -16q-17 -7 -35 -10q-11 -2 -24 -3t-23 2q-11 0 -10 9t9 11q2 1 7 1q15 4 30 9.5t29 12.5q29 15 54 36.5t40 50.5q5 10 10 24t-3 25q-4 6 -10.5 6.5t-13.5 -1t-14 -4.5t-12 -6q-30 -15 -57 -38t-50 -47q-23 -23 -45 -47
t-43 -49q-9 -15 -18 -29.5t-19 -28.5q-17 -26 -34 -51.5t-35 -51.5l-46 -70q-13 -20 -25 -39t-23 -39q0 -1 -0.5 -1t-0.5 -1l-1 -1q-5 -10 -16.5 -8.5t-13.5 13.5q0 7 1 10l6 12q3 8 6.5 16t7.5 16q31 62 69.5 118.5t80.5 110.5l5 6q9 14 17.5 27.5t16.5 27.5q14 24 27 47
t24 49l9 25q2 5 3 11.5t5 11.5q5 9 12.5 6.5t9.5 -10.5z" />
    <glyph glyph-name="q" unicode="q" horiz-adv-x="231" 
d="M-376 -86q17 20 39 34t44 26q29 16 60 29.5t62 26.5q35 14 71 25.5t73 21.5l4 7q27 38 54.5 76.5t54.5 77.5l-8 -6q-17 -14 -39 -26.5t-45 -12.5q-19 -1 -31.5 10t-13.5 29q-1 21 9 40.5t22 35.5q16 20 35 36t41 29q22 14 45.5 21.5t47.5 12.5q11 2 22 2.5t22 -0.5
q5 0 10 -0.5t7 -5.5q1 -4 -1 -8t-7 -4q-34 -6 -66.5 -16.5t-61.5 -30.5q-17 -12 -32.5 -25t-28.5 -29q-14 -15 -23 -34q-2 -4 -5 -13t1 -13q4 -5 12 -3t14 4q16 6 30.5 15.5t28.5 20.5q15 11 28.5 23t27.5 23q6 5 17 14t19 7q9 -2 9 -9t-4.5 -15.5t-10.5 -16t-9 -10.5
l-38 -60t-39 -59l-49 -74q18 5 36.5 9t37.5 8q62 11 125 19t125 4q14 0 28 -1t28 -5q4 -1 10.5 -2t12.5 -3t10.5 -5.5t4.5 -9.5q0 -10 -10.5 -12t-18.5 -4q-14 -3 -28.5 -3.5t-28.5 -1.5q-11 -1 -20 2.5t-18 6.5q-11 3 -23.5 2.5t-23.5 -0.5q-26 -2 -51.5 -4.5t-51.5 -5.5
q-86 -12 -171 -35q-32 -48 -62.5 -97t-56.5 -101q-21 -41 -38.5 -81.5t-31.5 -84.5l-17 -56q-3 -9 -13 -10t-12 10q-5 12 -4 28.5t3 29.5q8 42 25 81.5t36 76.5q26 51 56 97.5t62 91.5q-47 -14 -93 -30.5t-91 -37.5q-23 -11 -44.5 -23t-42.5 -25q-8 -5 -16.5 -9.5
t-17.5 -9.5q-8 -3 -13 3t0 12z" />
    <glyph glyph-name="r" unicode="r" horiz-adv-x="242" 
d="M-31 291q14 19 29 37t29 38l12 16q-5 4 -8 11q-8 20 0 39t21 33q11 12 28.5 26t34.5 12t19 -13.5t-4.5 -27.5t-17.5 -32.5t-21 -29.5q8 2 14.5 3.5t11.5 3.5q17 5 36.5 4.5t29.5 -20.5q5 -11 3.5 -22t-6.5 -21.5t-12 -20.5t-14 -17q-11 -13 -21.5 -25t-20.5 -24l-18 -24
q-2 -4 -6.5 -11t-5.5 -12q4 2 8 2.5t6 2.5q5 2 10.5 5t10.5 6q13 8 25 17l24 18q20 16 38.5 32t36.5 33q4 3 11.5 10.5t12.5 3.5q2 -3 0 -7.5t-5.5 -9.5t-7.5 -9t-5 -6q-35 -42 -75 -78q-18 -16 -38.5 -32t-43.5 -22q-23 -5 -35 10t-6 36q6 24 21 45.5t31 41.5q8 11 17 21.5
t17 21.5q6 8 8 15q-19 2 -37.5 0.5t-37.5 0.5q-13 -15 -27 -28.5t-28 -26.5l-13.5 -13.5t-14.5 -12.5q-2 -2 -4 -4.5t-4 -3.5q-4 -3 -7.5 0t-0.5 8z" />
    <glyph glyph-name="s" unicode="s" horiz-adv-x="177" 
d="M-31 291q15 20 30.5 39.5t31.5 38.5q10 11 20.5 21t21.5 19q8 7 16.5 12.5t20.5 3.5h-1q10 -1 14.5 -10t5.5 -20t0 -22.5t-1 -17.5q-2 -13 -3.5 -25t-4.5 -25q9 3 17.5 6t17.5 8q11 5 21.5 11t20.5 14q3 2 6.5 1.5t3.5 -5.5q0 -4 -4.5 -8.5l-7.5 -7.5q-19 -19 -41 -31.5
t-46 -23.5q-8 -22 -20 -40q-16 -23 -37 -40.5t-47 -28.5q-10 -4 -22 -5.5t-23 3.5q-14 7 -17 21t3 28q12 26 38 43.5t52 28.5l35 12q5 14 9.5 28.5t6.5 29.5q2 6 3.5 14.5t2.5 16.5l-22 -20q-11 -10 -22 -19l-22 -18q-10 -8 -19.5 -16t-20.5 -16l-4.5 -4.5t-4.5 -3.5
q-4 -3 -7 0.5t-1 7.5zM6 193q28 23 44 54q-17 -7 -33.5 -14t-30.5 -18q-2 -2 -7.5 -7t-9.5 -11t-4.5 -11t7.5 -6q9 -2 18 3t16 10z" />
    <glyph glyph-name="t" unicode="t" horiz-adv-x="166" 
d="M-157 488q7 7 16.5 12t18.5 8q7 2 13.5 3.5t14.5 -0.5q11 -2 19 -3.5t19 0.5q33 4 65.5 7t66.5 5l45 4q23 28 48 52.5t54 44.5q18 13 37.5 23t40.5 17q15 6 29 -3.5t9 -27.5q-5 -21 -21 -39.5t-30 -34.5l-10 -10l-10 -10q22 2 44 2.5t44 1.5q31 1 62 0q15 0 31.5 0.5
t31.5 -5.5q5 -2 15.5 -10t7.5 -16q-1 -4 -5.5 -5t-10 -0.5t-11 1.5t-7.5 1q-60 2 -118 0.5t-116 -3.5l-17 -17q-28 -27 -56 -53t-57 -52l-31 -28q-13 -13 -26 -23q-8 -16 -15 -31.5t-14 -32.5q-5 -11 -11 -26t-5 -29q12 2 26 11.5t23 16.5q28 20 56 44q12 11 24 21t25 20
q4 3 10.5 8.5t11.5 3.5q3 -2 3 -5.5t-2.5 -7t-5 -7.5t-3.5 -5q-18 -27 -42 -49t-49 -42q-8 -6 -21 -16t-28 -17.5t-29 -9t-24 9.5q-8 11 -8 25t2 26q3 17 7.5 33.5t9.5 33.5q11 31 26 60t32 57q22 37 50 74l-56 -4l-56 -4l-100 -9l-38 -6q-8 -1 -9.5 4.5t4.5 10.5zM188 530
l42 3l32 33q8 10 16 19t16 19q3 4 9.5 12.5t8.5 15.5q-29 -14 -54 -35t-47 -44zM94 406l42 39l59 55l1 1q-8 0 -17 -0.5t-17 -0.5q-11 -14 -21 -27.5t-20 -27.5z" />
    <glyph glyph-name="u" unicode="u" horiz-adv-x="314" 
d="M104 389q-20 -22 -38.5 -45t-35.5 -46q-2 -2 -9.5 -13.5t-16 -25t-16 -27t-8.5 -19.5q3 1 7 1.5t5 1.5q7 3 13.5 6.5t13.5 7.5q13 8 24.5 17.5t23.5 17.5q25 20 48 40t46 41q22 20 43 39.5t42 39.5l11 11t14 6q12 0 16.5 -12t-4.5 -20l-78 -100q-6 -7 -15 -18t-18 -23.5
t-15.5 -25t-7.5 -21.5q8 -2 21.5 6t19.5 12q13 8 25 17.5t24 17.5q24 18 47 35.5t48 33.5q7 1 7 -2.5t-3 -9t-7.5 -10.5t-5.5 -7q-9 -11 -19 -22.5t-21 -22.5q-40 -40 -91 -68q-11 -7 -22.5 -11t-23.5 -8q-19 -8 -33 4q-17 14 -14.5 35.5t11.5 39.5l-8 -6q-23 -19 -47 -37
t-51 -31q-11 -5 -24 -7.5t-24 5.5t-12 20.5t2 26t9 26.5t11 22q14 25 30.5 48.5t37.5 43.5q10 8 20 15.5t23 10.5q1 0 7 0.5t12 0t8.5 -3t-2.5 -7.5z" />
    <glyph glyph-name="v" unicode="v" horiz-adv-x="268" 
d="M39 406q10 -9 12.5 -21.5t0 -26t-8 -26.5t-11.5 -23q-8 -14 -16.5 -27.5t-16.5 -27.5q-2 -3 -5.5 -9.5t-6.5 -13.5t-4 -14t3 -10v-1q15 4 27.5 10.5t25.5 15.5q15 13 29.5 27.5l28.5 28.5q14 15 26.5 30t24.5 31q4 5 8.5 11t9.5 14q-2 22 7 40q4 10 13.5 19.5t20.5 -2.5
q8 -9 7 -21t-4 -22q-4 -13 -11 -27q6 -8 15.5 -14t18.5 -10q27 -11 52 2q4 2 8 4.5t8 2.5q5 -1 5.5 -4t-1 -6.5t-4 -6.5t-3.5 -4q-18 -23 -45.5 -26t-50.5 13q-11 7 -20 19q-9 -14 -19.5 -27.5t-21.5 -25.5q-42 -48 -100 -80q-9 -5 -21 -10.5t-24 -7t-22 2.5t-15 18
q-5 12 -2 26t8 26q6 16 13 31t15 31q7 14 14 29t13 30q2 7 4 13.5t3 13.5q0 7 3.5 9t8.5 -4z" />
    <glyph glyph-name="w" unicode="w" horiz-adv-x="423" 
d="M130 396q-27 -10 -49 -29.5t-39 -42.5q-17 -26 -26 -58l-2.5 -12.5t-2 -15.5t2 -14.5t8.5 -9.5q11 -5 23 -0.5t22 10.5q20 12 36.5 29t31.5 34q6 8 12 15.5t11 15.5t12 20t20 14q9 2 15.5 -4t7.5 -15q0 -8 -4 -15q-2 -4 -5 -6.5t-5 -6.5q-11 -16 -23.5 -37.5t-8.5 -42.5
q2 -12 12 -10.5t21.5 8t22 15.5t13.5 12q17 17 32 34.5t30 35.5q8 10 14.5 19t14.5 17l7 8q-2 10 -0.5 21t9.5 17q6 6 12 4.5t10 -6.5t6.5 -11.5t1.5 -12.5q-2 -7 -3.5 -13.5t-3.5 -12.5l3.5 -3.5l3.5 -3.5q11 -11 25.5 -13t28.5 2q7 2 14 4.5t15 6.5q3 2 9.5 1.5t1.5 -7.5
q-2 -11 -17 -19.5t-23 -12.5q-22 -8 -41.5 -3t-33.5 20q-8 -14 -18 -27t-20 -25q-20 -24 -44 -47t-53 -37q-10 -5 -22 -7.5t-23 -1.5t-21 6.5t-16 17.5q-8 13 -8 32q-8 -8 -16.5 -16t-18.5 -15q-16 -12 -34.5 -19.5t-38.5 -3.5q-20 5 -30 19.5t-12 33.5t1 38.5t10.5 38
t18.5 35.5t24 31q13 13 28.5 25.5t34.5 15.5q8 1 15.5 0t14.5 -6q4 -2 9 -6.5t-3 -7.5z" />
    <glyph glyph-name="x" unicode="x" horiz-adv-x="300" 
d="M-145 83q2 13 9 25t16.5 23t21 20t21.5 17q27 20 54.5 39.5t56.5 39.5l73 48v1q1 14 2.5 26.5t1.5 26.5q0 5 -0.5 14.5t-5.5 12.5q-10 -1 -20 -9t-17 -14q-20 -20 -42 -36q-9 -7 -18 -13.5t-19 -12.5q-2 -2 -5.5 -4.5t-6.5 -3.5q-2 0 -6 1.5t-1 6.5q26 41 62 75
q8 7 18 16.5t21 16.5t23 10.5t24 -0.5q11 -4 17.5 -12.5t10 -20t4.5 -23.5t1 -22v-6q27 19 53 38.5t52 41.5q20 17 41.5 37t31.5 46q4 8 9.5 6.5t8.5 -8.5q6 -11 5 -22.5t-6 -21.5q-7 -14 -17.5 -25t-20.5 -20q-14 -13 -27.5 -24.5t-27.5 -22.5q-25 -19 -51 -36.5t-52 -33.5
q0 -4 -0.5 -7.5t-0.5 -6.5q0 -11 -0.5 -28t8.5 -26q3 -1 8 2l10 6q11 8 22 17.5t22 18.5q20 19 40 37.5t40 36.5q3 4 8 9.5t10 6.5t5.5 -2t-2 -7t-5 -7.5t-3.5 -4.5q-14 -20 -28.5 -38.5t-30.5 -37.5q-9 -11 -26 -28.5t-36 -30t-37.5 -13.5t-31.5 22q-7 12 -10 26t-5 28
q-35 -22 -71 -43.5t-71 -44.5q-20 -13 -39.5 -27t-36.5 -31q-6 -6 -11.5 -12t-8.5 -14t-9.5 -7t-4.5 9z" />
    <glyph glyph-name="y" unicode="y" horiz-adv-x="291" 
d="M-32 291q12 16 25 31.5t27 31.5q11 12 23 25.5t27 21.5q19 10 36.5 2t13.5 -30q-5 -17 -16 -33.5t-20 -31.5l-23 -34q-8 -11 -19.5 -30t-9.5 -33q10 0 22.5 10t18.5 17q14 11 26 22.5t23 23.5q19 20 35.5 39.5t33.5 39.5l33 41q6 7 17 13t20 -2q6 -5 6.5 -11t-2.5 -13
t-7 -13t-6 -11q-17 -30 -33.5 -60t-33.5 -60l19 16q12 10 23 19.5t23 18.5q12 10 24.5 19.5t26.5 17.5q1 1 4 3t6 3.5t5.5 0.5t2.5 -6q-1 -5 -8 -12t-11 -10q-26 -29 -53.5 -54.5t-55.5 -51.5l-55 -51q-42 -72 -85 -142.5t-91 -139.5q-19 -27 -39.5 -53t-45.5 -48
q-9 -8 -20.5 -17t-24.5 -14.5t-26 -6t-25 8.5q-13 10 -14.5 23.5t3 28t12 28t13.5 23.5q17 29 38 55.5t44 52.5q53 58 109 111t116 104q14 23 26.5 46t26.5 46q-11 -12 -23 -23l-24 -22q-8 -7 -17.5 -15t-20 -15t-22 -11t-22.5 -2q-22 4 -25 21t3.5 38t17.5 41.5t16 29.5
q6 11 13.5 22t14.5 22l-14 -9l-44 -33q-6 -6 -12 -10.5t-12 -9.5l-7 -7q-4 -2 -7.5 0.5t0.5 7.5zM-82 -113q30 42 58 85t54 86l1 2l-61 -61q-26 -26 -51.5 -53t-49.5 -56q-13 -15 -24.5 -29.5t-21.5 -30.5l-7 -10.5t-9.5 -16t-7 -16.5t0.5 -11q17 -1 31 11.5t25 23.5
q17 18 32 37t30 39z" />
    <glyph glyph-name="z" unicode="z" horiz-adv-x="257" 
d="M-23 291q5 20 18.5 35t30.5 29t36 26.5t40 20.5q16 8 36.5 13t38.5 -3q19 -9 22.5 -27.5t-4.5 -35.5q-15 -32 -42.5 -54t-55.5 -42q-8 -6 -12 -8q23 -2 32 -19q30 26 61.5 50t64.5 45q2 2 9 7t14.5 9.5t14.5 6.5t9 -2q1 -3 -3.5 -10t-11.5 -14t-14 -13t-9 -8
q-25 -24 -51.5 -45t-52.5 -44l-28 -25q-4 -21 -14 -42t-18 -38q-16 -31 -33.5 -60.5t-36.5 -58.5q-76 -119 -171 -218q-20 -21 -44 -44t-52 -33q-11 -3 -21 -2t-18 6t-12.5 14t-2.5 21q4 30 20.5 58t33.5 52q20 29 41.5 56t44.5 53q45 53 93.5 102t99.5 97l49 46q2 9 1 14
q-15 2 -33.5 -6t-31.5 -13q-7 -2 -13.5 1.5t-4.5 11.5q1 3 3.5 4.5t3.5 3.5q0 8 5 18q9 16 27 28t32 22q11 7 20 13.5t19 14.5q17 12 34 27t25 34q6 13 0 16t-16.5 1.5t-22 -6t-15.5 -6.5q-20 -11 -37.5 -23.5t-34.5 -26.5q-9 -7 -18.5 -14t-18.5 -13q-2 0 -7 -3t-10 -5
t-8 -1t-1 7zM47 116q-35 -33 -69.5 -67t-67.5 -69q-28 -29 -54.5 -59.5t-50.5 -62.5q-13 -17 -25 -33.5t-23 -34.5q-4 -6 -9.5 -14t-10 -17t-6.5 -18t0 -16q0 1 6.5 3.5t9.5 4.5q8 5 15 10.5t15 11.5q15 14 29 29l28 30q26 30 51.5 61.5t48.5 65.5q24 32 46 65.5t43 68.5z
" />
    <glyph glyph-name="germandbls" unicode="&#xdf;" horiz-adv-x="245" 
d="M245 611q-23 -14 -41 -35t-34 -43q-20 -27 -37.5 -55.5t-35.5 -57.5q-36 -60 -69 -120.5t-65 -123.5q-7 -13 -13.5 -27.5t-14 -28.5t-16.5 -26t-22 -21q-5 -4 -12.5 -9t-13.5 -4q-7 -2 -7 3t2.5 11.5t6.5 13t4 7.5q29 54 56 109t57 109q31 55 63.5 108.5t69.5 104.5
q17 21 35 42.5t39 39.5q8 7 17 14.5t20 11.5q4 1 9 0q22 1 28 -13t3 -33.5t-11.5 -39.5t-14.5 -31q-17 -30 -41.5 -56.5t-53.5 -46.5q8 -7 13.5 -16.5t8.5 -17.5q8 -20 8.5 -42.5t-5.5 -43.5q23 6 42 19t37 28q6 5 10 2.5t-2 -9.5q-7 -9 -14 -17t-15 -16q-16 -14 -33 -22.5
t-36 -13.5q-1 -3 -5 -9q-14 -23 -34.5 -40.5t-45.5 -28.5q-11 -5 -24.5 -8t-26.5 -1q-17 4 -25.5 17t-3.5 30q6 24 28.5 37.5t45.5 18.5q12 3 24.5 4t25.5 2q2 2 4 8q7 18 10.5 40.5t-4.5 41.5q-4 9 -8.5 13t-12.5 10q-5 4 -5 10.5t5 10.5q32 25 59 57t48 66q6 9 11.5 18.5
t9.5 19.5q1 2 2.5 6t3 8.5t2 8.5t-1.5 6h-4zM36 214q18 2 35 12t31 25q-6 -2 -12.5 -3t-12.5 -2q-15 -5 -26 -12q-3 -3 -6 -5.5t-5 -6.5z" />
    </font>
</defs>
</svg>
